<svg xmlns="http://www.w3.org/2000/svg" width="640" height="800"><path d="M275.67 537.508a52.186 55.09 0 00-25.424-27.57c-11.254-5.56-36.348-3-36.348-3l-65.95-.15c1.355 6.12 5.684 21.82 8.857 27.1 3.173 5.28 7.957 9.74 13.679 11.45 7 2.09 14.418-.07 21.683-.57 12.78-.87 25.283 3.49 37.589 7.24 12.305 3.75 25.368 6.93 37.815 3.75 3.534-.91 7.238-2.57 8.952-5.95 1.904-3.73.73-8.38-.852-12.3z" fill="#e0e0e0"/><path d="M73.169 290.708s-7.503-.57-6.811 17.19c.691 17.76 2.406 27.23 2.406 27.23s-.218 3.93-3.107 3.16c-2.89-.77-8.327-4.6-11.017-1.69-2.69 2.91-1.79 7.53 1.895 12.9 3.684 5.37 11.367 17.44 12.068 18.54.701 1.1.947 3.09-1.099 2.89-2.046-.2-15.876-5.14-17.705 1.93-1.828 7.07 10.78 20.24 12.135 21.71 1.355 1.47 1.43 2.39.881 3.28-.55.89-5.049-1.24-9.037-2.47-3.988-1.23-8.81-1.99-9.558 2.22-.749 4.21 4.821 16.38 25.633 29.2l10.013 5.28 9.473-6.38c19.486-15 23.862-27.69 22.735-31.76-1.127-4.07-5.864-2.87-9.71-1.22-3.846 1.65-8.127 4.24-8.753 3.42-.625-.82-.644-1.76.56-3.36 1.202-1.6 12.513-16 10.022-22.88-2.492-6.88-15.782-.46-17.8-.05-2.018.41-1.895-1.62-1.364-2.76.53-1.14 7.076-14 10.25-19.72 3.173-5.72 3.713-10.38.663-13-3.05-2.62-7.986 1.82-10.79 2.9-2.804 1.08-3.391-2.83-3.391-2.83s.805-9.59-.19-27.34c-.994-17.75-8.582-16.31-8.582-16.31" fill="#ebebeb"/><path d="M73.766 306.598v.37c0 .25 0 .62.075 1.09.067 1 .152 2.38.275 4.19.228 3.65.521 8.92.862 15.44.692 13 1.487 31.05 2.312 50.95.824 19.9 1.582 37.93 2.197 51 .313 6.51.569 11.78.749 15.44.085 1.81.151 3.22.199 4.2v1.09a3.448 3.64 0 010 .38v-.37c0-.24 0-.63-.076-1.09-.066-1-.161-2.39-.275-4.2-.227-3.64-.52-8.91-.862-15.43-.691-13-1.487-31.06-2.311-51-.824-19.94-1.582-37.92-2.198-51-.322-6.5-.568-11.77-.748-15.44-.086-1.81-.152-3.22-.2-4.2v-1.09a3.211 3.39 0 010-.33z" fill="#e0e0e0"/><path d="M62.048 342.238a3.05 3.22 0 01.615.54c.389.37.948.92 1.592 1.61 1.326 1.39 3.098 3.34 5.02 5.55l4.898 5.66 1.487 1.71a2.946 3.11 0 01.521.65 3.22 3.4 0 01-.625-.54c-.379-.37-.947-.92-1.582-1.62-1.307-1.4-3.06-3.38-4.983-5.58l-4.878-5.62c-.597-.66-1.09-1.23-1.506-1.7a3.05 3.22 0 01-.56-.66zM77.176 357.598c-.076-.08 3.59-4.12 8.175-9 4.585-4.88 8.384-8.83 8.46-8.75.075.08-3.59 4.12-8.185 9-4.595 4.88-8.374 8.83-8.45 8.75zM77.138 388.228a3.855 4.07 0 01.701-.47l1.951-1.16c1.658-1 3.932-2.34 6.395-3.94 2.463-1.6 4.65-3.11 6.223-4.23l1.895-1.31a3.344 3.53 0 01.71-.45 3.372 3.56 0 01-.625.58c-.417.34-1.032.83-1.8 1.42a99.551 99.551 0 01-6.185 4.34c-2.473 1.6-4.737 2.93-6.461 3.84-.843.46-1.535.82-2.018 1.05a3.031 3.2 0 01-.786.33zM60.551 377.508a3.448 3.64 0 01.692.34l1.818 1.07c1.525.91 3.61 2.2 5.911 3.64a306.25 306.25 0 015.855 3.75c.748.49 1.345.89 1.762 1.18a3.344 3.53 0 01.615.47 2.662 2.81 0 01-.7-.34l-1.81-1.02c-1.525-.92-3.619-2.2-5.92-3.65a466.978 466.978 0 01-5.855-3.74 59.37 59.37 0 01-1.752-1.18 3.079 3.25 0 01-.616-.52zM57.264 404.598a4.12 4.35 0 01.88.45l2.331 1.35c1.952 1.16 4.651 2.79 7.579 4.61 2.927 1.82 5.683 3.49 7.578 4.71l2.273 1.47a4.87 5.14 0 01.806.59 5.826 6.15 0 01-.881-.45l-2.35-1.41c-1.96-1.16-4.65-2.79-7.578-4.61-2.927-1.82-5.684-3.49-7.578-4.71l-2.264-1.47a4.736 5 0 01-.796-.53zM78.322 417.258a4.822 5.09 0 01.872-.62l2.434-1.56c2.046-1.32 4.879-3.16 7.957-5.27 3.08-2.11 5.807-4.1 7.787-5.55l2.34-1.72a5.437 5.74 0 01.88-.59 5.068 5.35 0 01-.795.72c-.53.44-1.298 1.06-2.273 1.82-1.895 1.51-4.651 3.54-7.73 5.66-3.079 2.12-5.94 3.92-8.033 5.18-1.052.62-1.895 1.12-2.501 1.45a6.053 6.39 0 01-.938.48zM74.685 507.738H84.3l9.037-72.24H65.638z" fill="#e0e0e0"/><path d="M67.078 444.378s0 .1.151.26a1.724 1.82 0 00.664.5 3.353 3.54 0 002.927-.38c1.117-.65 2.093-1.93 3.59-2.49a7.853 8.29 0 015.096.1 22.006 23.23 0 014.737 2.43 33.05 34.89 0 003.865 2.18 10.505 11.09 0 002.842.87 4.736 5 0 00.805.06h.274a14.39 15.19 0 01-3.789-1.2 37.892 40 0 01-3.789-2.26 21.172 22.35 0 00-4.822-2.5 8.137 8.59 0 00-5.38-.06 7.01 7.4 0 00-2.018 1.32 14.673 15.49 0 01-1.591 1.29 3.268 3.45 0 01-2.69.5 2.842 3 0 01-.872-.62zM68.091 457.678s.218-.29.654-.77a6.11 6.45 0 012.207-1.48 9.9 10.45 0 013.856-.61 38.735 40.89 0 014.812.69 16.9 17.84 0 004.935.22 13.395 14.14 0 003.884-1.18 12.03 12.7 0 002.34-1.46 3.192 3.37 0 00.739-.7 25.293 26.7 0 01-3.202 1.86 14.456 15.26 0 01-3.79 1 17.165 18.12 0 01-4.811-.25 36.234 38.25 0 00-4.879-.66 9.729 10.27 0 00-3.988.74 5.684 6 0 00-2.217 1.66 3.893 4.11 0 00-.416.65c-.105.21-.142.29-.124.29zM90.201 464.808a2.292 2.42 0 00-.767-.42 7.815 8.25 0 00-2.293-.52 14.531 15.34 0 00-3.467.21c-1.297.22-2.68.6-4.13.92a17.146 18.1 0 01-4.13.49 8.97 9.47 0 01-3.268-.74 7.446 7.86 0 01-2.492-2 2.065 2.18 0 00.474.77 5.769 6.09 0 001.895 1.49 8.743 9.23 0 003.391.88 16.303 17.21 0 004.234-.46c1.478-.33 2.842-.72 4.112-1a15.98 16.87 0 013.381-.3 12.504 13.2 0 013.06.68zM70.535 474.828a4.443 4.69 0 012.69-.29 13.262 14 0 012.843 1.11 10.77 11.37 0 003.647 1.06 10.932 11.54 0 006.63-1.62 9.767 10.31 0 001.649-1.34c.341-.38.512-.6.483-.62a22.669 23.93 0 01-2.292 1.67 11.443 12.08 0 01-6.423 1.44c-2.624-.16-4.642-1.81-6.46-2a4.083 4.31 0 00-2.084.19c-.474.17-.692.38-.683.4zM72.08 488.688a5.229 5.52 0 002.31-.48c1.393-.49 3.118-1.62 5.126-2.46a8.175 8.63 0 012.946-.65 5.362 5.66 0 012.368.57 5.087 5.37 0 011.705 1.55 1.288 1.36 0 00-.265-.61 3.647 3.85 0 00-1.317-1.24 5.409 5.71 0 00-2.51-.71 8.298 8.76 0 00-3.107.64c-2.084.88-3.79 2-5.087 2.59-1.298.59-2.179.71-2.17.8zM73.434 495.138a6.46 6.82 0 001.753.61 35.05 37 0 004.386.78 32.416 34.22 0 004.442.13 6.783 7.16 0 001.838-.23c0-.14-2.842 0-6.233-.38-3.391-.38-6.148-1.05-6.186-.91zM505.396 333.746l84.232-20.316 12.972 59.935-84.232 20.316z" fill="#f5f5f5"/><path d="M590.066 314.058a5.835 6.16 0 01-.615 1l-1.895 2.73-7.02 10c-6.034 8.44-14.294 20-23.454 32.8l-.19.27-.293-.15-.692-.35-35.495-18.2-10.723-5.59-2.842-1.56a6.195 6.54 0 01-.995-.6 6.489 6.85 0 011.061.45l2.956 1.42 10.837 5.32 35.59 18 .7.36-.483.12c9.227-12.74 17.554-24.25 23.683-32.65 3.002-4.1 5.456-7.43 7.218-9.82l1.99-2.64a5.39 5.69 0 01.662-.91z" fill="#e0e0e0"/><path d="M518.811 394.318c-.19-.11 4.367-9.85 10.174-21.76 5.807-11.91 10.686-21.49 10.875-21.39.19.1-4.367 9.85-10.174 21.77-5.807 11.92-10.695 21.48-10.875 21.38zM567.691 343.668c.133-.18 8.157 6.47 17.923 14.84 9.767 8.37 17.563 15.31 17.42 15.49-.141.18-8.155-6.47-17.922-14.85-9.767-8.38-17.563-15.3-17.42-15.48z" fill="#e0e0e0"/><path fill="#f5f5f5" d="M206.677 143.783l7.725-35.321 49.64 12.098-7.726 35.32z"/><path d="M264.123 121.038a3.79 4 0 01-.568.36l-1.658.94-6.157 3.38-20.433 11-.17.09-.124-.15-.284-.38-14.39-19.26-4.319-5.89-1.156-1.61a2.785 2.94 0 01-.379-.58 3.524 3.72 0 01.446.52l1.231 1.56 4.433 5.78 14.503 19.21.285.37-.285-.06 20.49-10.9 6.224-3.25 1.705-.86a3.07 3.24 0 01.606-.27z" fill="#e0e0e0"/><path d="M206.756 144.258c-.076-.11 4.736-4 10.704-8.78 5.968-4.78 10.903-8.5 10.979-8.39.076.11-4.736 4-10.704 8.78-5.968 4.78-10.904 8.5-10.98 8.39zM245.045 130.668c.114-.06 2.757 5.65 5.892 12.74 3.136 7.09 5.58 12.89 5.466 13-.114.11-2.747-5.65-5.883-12.74-3.135-7.09-5.598-12.95-5.475-13z" fill="#e0e0e0"/><path fill="#f5f5f5" d="M492.803 135.778l36.269-16.449 10.503 25.809-36.268 16.449z"/><path d="M529.307 119.598a3.202 3.38 0 01-.199.49l-.625 1.39c-.578 1.24-1.392 3-2.378 5.1l-7.985 16.78-.067.14h-.142l-.34-.09-17.364-5.1-5.258-1.71-1.42-.45-.493-.18a2.453 2.59 0 01.511.11l1.44.38 5.286 1.47 17.392 5 .341.1-.199.1c3.145-6.53 5.996-12.43 8.071-16.73 1.033-2.1 1.895-3.82 2.482-5l.682-1.36a2.33 2.46 0 01.265-.44z" fill="#e0e0e0"/><path d="M503.541 161.808c-.095 0 1.194-4.81 2.842-10.67 1.648-5.86 3.164-10.54 3.259-10.54.094 0-1.194 4.8-2.842 10.66-1.649 5.86-3.145 10.58-3.259 10.55zM521.558 134.798c.048-.1 4.178 2.19 9.218 5.11 5.04 2.92 9.084 5.35 9.037 5.44-.048.09-4.168-2.19-9.208-5.11-5.04-2.92-9.094-5.35-9.047-5.44z" fill="#e0e0e0"/><g transform="translate(-48.777 92.598)"><rect x="175.89" y="156.3" width="384.52" height="254.28" rx="14.57" ry="14.57" fill="#455a64"/><path d="M160.86 394.16h416.6v4.45a17.8 17.8 0 01-17.8 17.8h-381a17.8 17.8 0 01-17.8-17.8z" fill="#455a64"/><path fill="#263238" d="M186.21 166.4h362.8v214.73h-362.8zM330.25 391.77l5.16 8.23h72.75l4.8-8.23z"/><rect x="193.69" y="173.67" width="348.6" height="206.78" rx="3.27" ry="3.27" fill="#ebebeb"/><path fill="#fafafa" d="M541.91 380.75h-348.6l.38-191.62h348.22z"/><path d="M222.28 181.66a2.79 2.79 0 11-2.79-2.78 2.78 2.78 0 012.79 2.78zM205.4 181.66a2.79 2.79 0 11-2.78-2.78 2.77 2.77 0 012.78 2.78zM213.5 181.66a2.79 2.79 0 11-2.78-2.78 2.77 2.77 0 012.78 2.78zM557.1 391.77c0 .14-85.34.25-190.59.25s-190.62-.11-190.62-.25 85.33-.25 190.62-.25 190.59.12 190.59.25z" fill="#263238"/><path fill="#3e64ff" d="M305.31 263.98l141.83-1.32 4.15 96.41-146.86-1.05z"/><path d="M305.31 264l67-54.45a7.72 7.72 0 019.74 0l65.08 53.12" fill="#3e64ff"/><path d="M305.31 264l67-54.45a7.72 7.72 0 019.74 0l65.08 53.12" opacity=".3"/><path d="M304.43 358c-.17-.17 11.15-12.59 25.3-27.74 14.15-15.15 25.77-27.26 25.95-27.12.18.14-11.15 12.58-25.31 27.74-14.16 15.16-25.76 27.3-25.94 27.12zM451.29 359.07c-.18.17-11.26-12-24.75-27.07s-24.28-27.5-24.1-27.66c.18-.16 11.26 12 24.76 27.08 13.5 15.08 24.27 27.49 24.09 27.65z" fill="#263238"/><path d="M447.14 262.66l-71.1 57.04-70.73-55.72" opacity=".5"/><path fill="#fafafa" d="M437.83 269.82l-61.8 49.13-63.56-49.71-.32-44.3 124.19-1.72z"/><path d="M312.47 269.24s.41.29 1.18.88l3.38 2.61 12.86 10c11.08 8.65 27 21 46.27 36.08h-.26l61.77-49.17-.09.21c-.29-8.89-.59-18.22-.89-27.71-.21-6.39-.41-12.71-.61-18.9l.26.25-124.18 1.64.16-.17c.06 13.93.12 25 .15 32.58V266.28c0-2-.06-4.9-.1-8.68-.07-7.61-.18-18.68-.31-32.64v-.16h.16l124.11-1.8h.26v.26c.2 6.19.4 12.5.61 18.89.3 9.49.6 18.82.88 27.71v.13l-.1.08-61.84 49.1-.13.11-.13-.11-46.22-36.27-12.76-10.06-3.33-2.64z" fill="#263238"/><path d="M416.76 245.56c0 .14-19 .41-42.42.6s-42.42.23-42.42.09 19-.41 42.42-.61 42.42-.23 42.42-.08zM416.78 258.07c0 .14-19 .42-42.41.61-23.41.19-42.42.23-42.42.08 0-.15 19-.41 42.42-.6s42.41-.23 42.41-.09zM416.81 272.49c0 .15-19 .42-42.41.61-23.41.19-42.42.23-42.42.08 0-.15 19-.41 42.42-.6s42.41-.23 42.41-.09zM416.84 286.91c0 .15-18.11.41-40.46.59s-40.47.22-40.47.07 18.11-.41 40.47-.59 40.46-.21 40.46-.07zM401 299.6a1.65 1.65 0 01-.5.06l-1.43.06-5.24.13-17.31.32c-6.76.12-12.89.16-17.32.16h-6.67a2 2 0 01-.5-.05 1.65 1.65 0 01.5-.06l1.42-.06 5.25-.13 17.31-.31c6.76-.13 12.88-.17 17.31-.17h6.68a2.55 2.55 0 01.5.05zM385 311.8a76.73 76.73 0 01-9 .28 77.38 77.38 0 01-9-.24 79.42 79.42 0 019-.28 80.12 80.12 0 019 .24z" fill="#263238"/></g><path d="M592.293 508.148c0 .148-121.23.256-270.768.256-149.54 0-270.769-.108-270.769-.256 0-.147 121.205-.255 270.769-.255 149.563 0 270.768.118 270.768.255z" fill="#263238" stroke-width="1.12"/><path d="M338.94 315.428c.126 0 .18.58.117 1.27-.062.69-.215 1.23-.34 1.22-.126-.01-.18-.59-.117-1.28.063-.69.206-1.23.34-1.21zM340.132 305.688a5.456 6.09 0 01-.098 2.46 5.537 6.18 0 01-.565 2.39 10.392 11.6 0 01.663-4.85zM341.888 296.048a5.375 6 0 01-.242 2.46 5.5 6.14 0 01-.707 2.34 5.295 5.91 0 01.25-2.45 5.375 6 0 01.7-2.35zM344.28 286.598a10.33 11.53 0 01-1.28 4.71 5.5 6.14 0 01.42-2.43 5.268 5.88 0 01.86-2.28zM347.353 277.378a5.51 6.15 0 01-.6 2.38 5.375 6 0 01-1.03 2.19 5.546 6.19 0 01.6-2.35 5.304 5.92 0 011.03-2.22zM351.17 268.528a10.616 11.85 0 01-2.007 4.37 5.375 6 0 01.797-2.3c.556-1.21 1.093-2.14 1.21-2.07zM355.775 260.148a5.483 6.12 0 01-1.03 2.19c-.646 1.14-1.264 2-1.371 1.93a5.205 5.81 0 01.976-2.22c.681-1.13 1.317-1.98 1.425-1.9zM361.204 252.408a5.581 6.23 0 01-1.228 2.06c-.78 1-1.487 1.81-1.594 1.72-.108-.09.448-1 1.236-2.05.788-1.05 1.487-1.82 1.586-1.73zM367.403 245.438c.09.11-.555.95-1.433 1.88-.878.93-1.666 1.6-1.792 1.5-.125-.1.547-.94 1.434-1.88.886-.94 1.71-1.61 1.791-1.5zM374.338 239.378c.071.12-.663.87-1.64 1.67a5.43 6.06 0 01-1.908 1.24c-.08-.11.654-.86 1.64-1.66a5.286 5.9 0 011.908-1.25zM381.935 234.408a10.482 11.7 0 01-3.88 2.34c-.062-.13.753-.75 1.792-1.4a5.295 5.91 0 012.088-.94zM390.087 230.708a5.59 6.24 0 01-1.989 1.08 5.313 5.93 0 01-2.15.59 5.456 6.09 0 011.99-1.08 5.17 5.77 0 012.15-.59zM398.652 228.478a5.555 6.2 0 01-2.123.66 5.375 6 0 01-2.195.25 8.807 9.83 0 014.318-.91zM407.44 227.938a5.447 6.08 0 01-2.194.28 5.241 5.85 0 01-2.204-.23 5.465 6.1 0 012.195-.29 5.232 5.84 0 012.204.24zM416.203 229.088a5.438 6.07 0 01-2.213-.14 5.322 5.94 0 01-2.141-.65 10.634 11.87 0 014.354.79zM424.615 231.898a10.401 11.61 0 01-4.166-1.62 5.662 6.32 0 012.16.56 5.295 5.91 0 012.006 1.06zM432.454 236.358a5.581 6.23 0 01-2.025-1 5.43 6.06 0 01-1.791-1.45 5.375 6 0 012.024 1c1.057.69 1.864 1.33 1.792 1.45zM439.352 242.438a5.617 6.27 0 01-1.791-1.43c-.896-.88-1.577-1.7-1.496-1.81.08-.11.895.52 1.791 1.42.896.9 1.586 1.72 1.496 1.82zM443.707 248.038c-.108.08-.493-.29-.896-.83-.404-.54-.6-1.05-.502-1.15.098-.1.484.28.896.83.412.55.609 1.06.502 1.15zM485.133 308.288a5.492 6.13 0 01-2.124-.82c-1.128-.58-1.998-1.16-1.935-1.29a5.841 6.52 0 012.132.82 5.626 6.28 0 011.927 1.29zM493.59 311.598a10.894 12.16 0 01-4.283-1.46 10.75 12 0 014.283 1.46zM502.432 313.148a5.537 6.18 0 01-2.257 0 5.465 6.1 0 01-2.195-.53 5.716 6.38 0 012.248 0 5.635 6.29 0 012.204.53zM511.373 312.838a5.555 6.2 0 01-2.213.44 5.375 6 0 01-2.257-.07 5.877 6.56 0 012.222-.45 5.465 6.1 0 012.248.08zM520.171 310.998a5.752 6.42 0 01-2.123.84 5.617 6.27 0 01-2.249.25 5.635 6.29 0 012.15-.75 5.465 6.1 0 012.222-.34zM528.485 307.308c.063.13-.806.7-1.935 1.29a5.375 6 0 01-2.132.8 10.894 12.16 0 014.067-2.09zM535.912 301.738c.08.11-.618.93-1.613 1.77a4.945 5.52 0 01-1.962 1.24c-.071-.12.699-.83 1.684-1.65a6.271 7 0 011.89-1.36zM542.004 294.438a4.981 5.56 0 01-1.192 2.15c-.797 1.07-1.567 1.81-1.657 1.71-.09-.1.52-1 1.299-2 .78-1 1.442-1.94 1.55-1.86zM546.197 285.598a4.784 5.34 0 01-.618 2.43 4.981 5.56 0 01-1.201 2.14 6.603 7.37 0 01.77-2.36 6.8 7.59 0 011.049-2.21zM547.899 275.858a4.73 5.28 0 01.098 2.52 4.64 5.18 0 01-.555 2.45 6.97 7.78 0 01.09-2.5 6.809 7.6 0 01.367-2.47zM546.564 265.998a4.883 5.45 0 01.806 2.36 4.766 5.32 0 01.188 2.51 6.656 7.43 0 01-.645-2.39 6.8 7.59 0 01-.349-2.48zM542.667 257.038c.098-.09.78.77 1.406 2a4.659 5.2 0 01.843 2.33c-.117.07-.637-.89-1.246-2.07a6.916 7.72 0 01-1.003-2.26zM536.45 249.898a4.677 5.22 0 011.908 1.36c.95.91 1.567 1.81 1.478 1.91-.09.1-.896-.63-1.792-1.52s-1.666-1.63-1.595-1.75zM528.324 245.838a4.48 5 0 012.24.41 4.64 5.18 0 012.015 1.15 7.006 7.82 0 01-2.159-.66 7.337 8.19 0 01-2.096-.9zM519.445 246.008a4.327 4.83 0 012.168-.73 4.48 5 0 012.267.08 24.117 26.92 0 01-4.48.65zM511.723 250.828c-.099-.09.52-1 1.532-1.87a4.22 4.71 0 012.024-1.15c.063.14-.779.75-1.791 1.57-1.013.82-1.667 1.55-1.765 1.45zM508.175 259.808a4.094 4.57 0 01.134-2.53 3.96 4.42 0 01.941-2.31 9.73 10.86 0 01-.493 2.43 8.627 9.63 0 01-.582 2.41zM509.922 269.498a4.354 4.86 0 01-1.084-2.22 4.229 4.72 0 01-.376-2.5 8.063 9 0 01.815 2.33 7.723 8.62 0 01.645 2.39zM515.781 276.938a4.48 5 0 01-1.926-1.34c-.95-.92-1.532-1.86-1.433-1.95.098-.09.824.66 1.738 1.56.913.9 1.693 1.61 1.621 1.73zM523.916 281.008a4.73 5.28 0 01-2.222-.47 4.533 5.06 0 01-2.016-1.15 7.006 7.82 0 012.16.66 6.63 7.4 0 012.078.96zM532.803 281.948a8.27 9.23 0 01-4.48-.11 7.078 7.9 0 012.24-.12 6.522 7.28 0 012.24.23zM541.628 280.128a8.386 9.36 0 01-4.337 1.24 6.388 7.13 0 012.124-.79 6.836 7.63 0 012.213-.45z" fill="#263238"/><path d="M549.69 275.978a5.617 6.27 0 01-1.872 1.4 5.555 6.2 0 01-2.087.94 10.912 12.18 0 013.96-2.34zM556.858 270.018c.09.11-.618.91-1.577 1.79a5.814 6.49 0 01-1.881 1.39c-.08-.12.636-.92 1.585-1.79a5.895 6.58 0 011.873-1.39zM562.995 262.708c.098.09-.475 1-1.281 2.07-.807 1.07-1.541 1.83-1.631 1.73-.09-.1.475-1 1.272-2.07.798-1.07 1.532-1.84 1.64-1.73zM567.913 254.368a5.5 6.14 0 01-.95 2.28c-.645 1.19-1.245 2.09-1.352 2a5.546 6.19 0 01.95-2.28c.635-1.17 1.236-2.07 1.352-2zM571.55 245.228a5.77 6.44 0 01-.6 2.43 5.07 5.66 0 01-1.057 2.22 6.397 7.14 0 01.618-2.41 5.635 6.29 0 011.04-2.24zM574.05 235.598a5.438 6.07 0 01-.331 2.48 5.608 6.26 0 01-.789 2.36 10.706 11.95 0 011.12-4.84zM575.618 225.798a5.375 6 0 01-.108 2.51 5.653 6.31 0 01-.564 2.43 5.375 6 0 01.107-2.51 5.716 6.38 0 01.565-2.43zM576.442 175.838a10.688 11.93 0 01-.331 5 5.796 6.47 0 01-.063-2.52 5.653 6.31 0 01.394-2.48zM576.729 165.848a5.375 6 0 01.188 2.5 5.375 6 0 01-.278 2.5 5.868 6.55 0 01-.188-2.51 5.725 6.39 0 01.278-2.49zM576.666 155.848a5.617 6.27 0 01.269 2.5 5.375 6 0 01-.206 2.5 5.653 6.31 0 01-.27-2.5 5.76 6.43 0 01.207-2.5zM576.567 149.698c.126 0 .242.25.251.57.01.32-.09.57-.224.58-.134.01-.242-.25-.242-.57 0-.32.054-.58.215-.58z" fill="#263238"/><path fill="#3e64ff" d="M535.268 127.389l60.894-7.384 4.46 45.82-60.894 7.384z"/><path d="M539.701 173.258l-4.479-45.84 60.92-7.38 4.48 45.85zm-4.407-45.82l4.48 45.77 60.848-7.38-4.48-45.77z" fill="#263238"/><path d="M596.411 120.598a4.193 4.68 0 01-.51.68l-1.532 1.87-5.725 6.78-19.073 22.22-.153.19-.197-.14-.466-.33-23.544-16.81-7.167-5.15-1.917-1.43a5.295 5.91 0 01-.654-.53 4.032 4.5 0 01.717.42l1.97 1.33 7.168 5 23.66 16.66.466.33h-.35l19.262-22.09 5.85-6.64 1.604-1.78a4.363 4.87 0 01.591-.58z" fill="#263238"/><path d="M539.97 173.758c-.125-.09 3.844-6.93 8.86-15.26 5.018-8.33 9.201-15 9.327-14.92.125.08-3.835 6.93-8.86 15.26-5.027 8.33-9.201 15.02-9.327 14.92zM578.36 140.598c.116-.12 5.25 5.57 11.467 12.7 6.217 7.13 11.171 13 11.064 13.13-.108.13-5.241-5.56-11.467-12.7-6.227-7.14-11.19-13.06-11.065-13.13z" fill="#263238"/><path d="M504.743 420.358a31.52 31.52 0 00-13.52-4.67c-2.21-.22-4.63-.16-6.41 1.18a1.35 1.35 0 00-.66 1.17 1.5 1.5 0 00.63.8 19.37 19.37 0 0020 1.52M504.393 419.968a66.07 66.07 0 01-8.75-7.7 22 22 0 01-5.48-10.14 4.09 4.09 0 01.43-3.4c7 5.45 12.45 12.5 13.8 21.24" fill="#3e64ff"/><path d="M504.673 420.298a31.41 31.41 0 01.16-11.48 15.51 15.51 0 016.12-9.48c1.2 2.81.69 6.06-.16 9a43.65 43.65 0 01-6.07 12.78M511.513 432.598c-4.16.51-7.77 2.7-10.87 5.5a20.54 20.54 0 00-6.21 10.67c4.07-.25 7.52-3.12 10-6.34 2.48-3.22 4.24-6.75 7-9.76M512.993 434.508a26.81 26.81 0 013.09-25.34c2.37 8.41 1.5 17.91-3.09 25.34M522.023 445.268a19.39 19.39 0 00-18.52 10.67 1.44 1.44 0 00-.13 1.45 1.38 1.38 0 001.23.36c3.65-.24 6.89-2.43 9.56-4.93 2.67-2.5 5-5.4 7.95-7.56M521.743 444.688a34.46 34.46 0 01-.35-19.28c.68-2.48 1.82-5.09 4.11-6.26a.84.84 0 01.63-.11.86.86 0 01.4.46 11.52 11.52 0 011 5.53 34.3 34.3 0 01-.86 5.6c-.73 3.42-1.11 7.1-3 10.05a20.42 20.42 0 00-1.19 2.21c-.36.75-.36 1-.68 1.61M545.653 448.248c-1.77-6.74.11-14.91 4.36-20.44.31-.4.72-.84 1.23-.79.79.07 1 1.11 1 1.9a36.88 36.88 0 01-6.54 19.33M547.813 449.718a29.73 29.73 0 0024.39-5 19.79 19.79 0 00-13.21-1.62c-4.41 1-8.44 3-11.18 6.58M549.623 445.228c4.59-7.47 13.38-12.35 22.14-12.8-1 3.57-3.94 6.34-7.24 8a40.4 40.4 0 01-10.63 3.17c-1.41.27-3.35.57-4.27 1.68M546.113 423.458a64.24 64.24 0 002.83-13 21.58 21.58 0 00-2.59-12.83c-4.28 8.29-4.71 18-.37 26.24M560.533 416.168c5-9.1 15.23-16.37 25.57-17.39-4 9.93-14.87 17.61-25.57 17.39M557.373 417.958c7.48 1.13 13.84 5.91 20.82 8.8a9.31 9.31 0 004.71.9 3.68 3.68 0 002.3-6.52 10 10 0 00-3.41-2.07c-7.61-3.17-15.76-3.25-23.77-1.33" fill="#3e64ff"/><path d="M553.053 423.198c1.69.48 2.27 1.36 3.61 2.5a38.88 38.88 0 0015.79 8.11c.6.15 1.39.2 1.69-.34.3-.54-.07-1.05-.41-1.48a21.84 21.84 0 00-9.53-6.47c-3.64-1.35-6.8-3-11.15-2.64M548.223 391.598a29.88 29.88 0 0022.91 7.79 1.54 1.54 0 001-.37c.58-.63-.12-1.6-.79-2.12-6.73-5.25-14.89-7.43-23.16-5.3" fill="#3e64ff"/><path d="M553.963 389.428a31.93 31.93 0 0128.58-4.71 22.73 22.73 0 01-13.62 6 43.15 43.15 0 01-15-1.27M551.663 374.888c-.66-6.72-.23-12-.7-18.78 0-.54-.15-1.19-.66-1.38-.7-.27-1.29.59-1.52 1.31a21.54 21.54 0 002.87 18.7" fill="#3e64ff"/><path d="M551.223 375.598a39.4 39.4 0 0011.13-10.82c2.2-3 4-6.61 3.55-10.3a10.65 10.65 0 00-8 4 22.33 22.33 0 00-4.09 8.23c-.89 3-1.52 6-2.56 8.9M562.113 372.598a89.74 89.74 0 0027.4-16.16c-3.27-1.32-7-.53-10.29.79a32.46 32.46 0 00-17.25 15.29M554.223 379.308a56.15 56.15 0 0015.21.08c4.94-.83 9.6-2.78 14.21-4.72a1.64 1.64 0 001-.74 1.11 1.11 0 00-.34-1.21 3 3 0 00-1.21-.57c-5-1.4-10.42-.74-15.35.92a71.35 71.35 0 00-13.52 6.24M525.373 391.778c-3.45-7-3.23-15.09-.25-22.27 2.1 3.19 2.36 7.27 2 11.07-.36 3.8-1.54 7.72-1.61 11.55M511.583 384.828a31 31 0 00-23.08 9.83 21.53 21.53 0 0012.64-2.34 64.16 64.16 0 0010.83-7.25M502.323 381.728c-4.22-.34-8.27-.87-12.33.38a14.78 14.78 0 00-9.39 8 22.27 22.27 0 0011.55-2.18 67.16 67.16 0 0010.17-6.16M516.043 381.868c-3.79-2.49-7.69-5-12.1-6-4.41-1-9.53-.27-12.61 3 3.57 2.1 7.91 2.35 12 2.35s9.23-.05 13.13 1.33" fill="#3e64ff"/><path d="M516.063 382.068c-6.48-6.37-8.94-17.8-6.33-26.5a40.38 40.38 0 016.33 26.5M533.893 364.028c1.22-2.84 2.08-5.82 3.17-8.71a25.15 25.15 0 014.54-8 11.91 11.91 0 018-4.16 32.36 32.36 0 01-15.59 21M530.663 367.788c-2-2.78-4.36-6.56-7.1-8.64-2.74-2.08-6.32-3.34-9.67-2.54a22.5 22.5 0 0016.77 11.18M531.313 364.268a47.58 47.58 0 01-3.2-10.36 16.14 16.14 0 011.62-10.53c3.56 6.73 4.7 14 1.76 21M533.923 343.378c2-6.67 8.12-11.58 14.71-13.83a5.59 5.59 0 012.58-.39 2.24 2.24 0 011.9 1.59c.24 1.13-.69 2.15-1.58 2.9a50.09 50.09 0 01-17.61 9.73M533.993 337.928c.26-4.3.53-8.66 1.92-12.74s4.1-7.89 8-9.67c.67 4.34-1.25 8.66-3.56 12.39-2.31 3.73-5.1 7.27-6.48 11.43M533.893 340.888c-1.67-4.86-1.84-11-4.75-15.27-2-3-5.29-5-7-8.11a12.4 12.4 0 00.41 9.21 26.64 26.64 0 005.39 7.7c2.15 2.3 4 4 6 6.47" fill="#3e64ff"/><path d="M533.923 483.988c-.13 0-.24-32.41-.25-72.39-.01-39.98.09-72.41.22-72.41s.24 32.41.25 72.41c.01 40-.09 72.39-.22 72.39z" fill="#263238"/><path d="M562.223 386.888a7.59 7.59 0 01-1.22.46l-3.36 1.13c-2.82 1-6.71 2.36-10.93 4.08-4.22 1.72-8.11 3.25-10.35 5.19a7.63 7.63 0 00-2.08 2.76c-.32.76-.38 1.22-.42 1.21-.04-.01 0-.11 0-.34a5.14 5.14 0 01.24-.94 7.25 7.25 0 012-2.93 18.11 18.11 0 014.49-2.8c1.8-.83 3.79-1.71 5.91-2.58 4.23-1.73 8.14-3.08 11-4 1.43-.44 2.6-.77 3.41-1a7 7 0 011.31-.24z" fill="#263238"/><path d="M571.533 364.078a1.66 1.66 0 01-.34.36l-1 1-3.88 3.53-12.93 11.51c-5 4.49-9.4 8.78-12.42 12-1.52 1.62-2.71 2.95-3.52 3.88l-.94 1.08a2.19 2.19 0 01-.35.35s.08-.15.28-.41.48-.65.87-1.13c.77-1 1.93-2.35 3.41-4a164.79 164.79 0 0112.36-12.14c5.06-4.48 9.67-8.51 13-11.41l4-3.42c.44-.36.81-.66 1.1-.91a2.15 2.15 0 01.36-.29z" fill="#263238"/><path d="M547.903 385.018c-.14-.05.92-2.49 2-5.57s1.56-5.67 1.69-5.65a19.18 19.18 0 01-1.25 5.8 37.55 37.55 0 01-1.57 3.9 6.36 6.36 0 01-.87 1.52zM533.953 404.648a6 6 0 01-.78-.91l-2-2.55c-1.67-2.16-4-5.15-6.58-8.42-2.58-3.27-5-6.19-6.7-8.31l-2-2.52a6.71 6.71 0 01-.7-1 5.66 5.66 0 01.84.84c.52.56 1.25 1.39 2.15 2.42 1.79 2.07 4.22 5 6.82 8.24 2.6 3.24 4.87 6.3 6.47 8.51.81 1.11 1.45 2 1.88 2.65a6.21 6.21 0 01.6 1.05z" fill="#263238"/><path d="M527.743 396.668a11.34 11.34 0 01-2.61-4.87 14.14 14.14 0 01-.59-4.91h.21c-.09.37-.16.57-.2.56-.04-.01 0-.21 0-.6h.2a22.94 22.94 0 00.83 4.78 35.43 35.43 0 002.16 5.04zM519.723 386.598a9.1 9.1 0 00-1.82-1.05 12.15 12.15 0 00-5-.4 30.8 30.8 0 00-5.08.82 16.37 16.37 0 01-2.09.5 6.91 6.91 0 012-.82 23.21 23.21 0 015.13-1 11 11 0 015.2.56 3.22 3.22 0 011.66 1.39zM517.823 384.138c0 .07-1.06-.42-2.79-1a28 28 0 00-14-1.07c-1.8.32-2.88.65-2.91.58a2.75 2.75 0 01.74-.32 18.36 18.36 0 012.1-.59 24.87 24.87 0 0114.21 1.08 17.36 17.36 0 012 .91 2.61 2.61 0 01.65.41zM533.893 373.798a55.31 55.31 0 01-2-7.05 56 56 0 01-1.58-7.17 57.85 57.85 0 012 7.06 58.24 58.24 0 011.58 7.16z" fill="#263238"/><path d="M534.023 373.798a35.77 35.77 0 00-2.25-4.22 18.87 18.87 0 00-3.32-3.42 3.14 3.14 0 011.28.66 10.29 10.29 0 012.42 2.49 9.49 9.49 0 011.87 4.49zM533.923 466.708c-.05 0-.15-.78-.51-2.15a30.45 30.45 0 00-2.17-5.62 77.71 77.71 0 00-11.49-16.19c-2.57-2.93-5.06-5.7-7.17-8.34a58.65 58.65 0 01-5.13-7.4 36.54 36.54 0 01-2.59-5.48c-.23-.68-.41-1.21-.5-1.57a3.11 3.11 0 01-.14-.56s.28.74.81 2.06a41.34 41.34 0 002.71 5.39 63.15 63.15 0 005.17 7.29c2.13 2.62 4.62 5.37 7.19 8.3 5.19 5.83 9.26 11.71 11.44 16.36a27.74 27.74 0 012 5.71 14.78 14.78 0 01.29 1.63 3 3 0 01.09.57zM559.523 437.798a14.86 14.86 0 01-1.3.8 29.74 29.74 0 00-3.48 2.3 39.35 39.35 0 00-4.57 4.17c-1.61 1.7-3.26 3.66-4.95 5.77-3.37 4.23-6.52 8-8.41 11-1 1.49-1.66 2.74-2.11 3.61a10.89 10.89 0 01-.74 1.35s0-.13.12-.38.24-.6.45-1.05a34.57 34.57 0 012-3.7 118.87 118.87 0 018.33-11.08c1.69-2.11 3.36-4.09 5-5.78a37.28 37.28 0 014.69-4.13 24.94 24.94 0 013.59-2.2c.45-.22.81-.36 1-.46.19-.1.37-.24.38-.22z" fill="#263238"/><path d="M560.023 447.178a19.18 19.18 0 01-2.8.42 37.53 37.53 0 00-6.72 1.33 19.85 19.85 0 00-6 3.16c-1.39 1.07-2.05 2-2.11 1.9a2.33 2.33 0 01.42-.65 10.08 10.08 0 011.48-1.51 18.16 18.16 0 016.08-3.35 30 30 0 016.84-1.21 15.4 15.4 0 012.81-.09z" fill="#263238"/><path d="M543.163 452.948c-.15-.08 1.13-2 2.12-4.66.99-2.66 1.15-5 1.31-4.94a4.5 4.5 0 010 1.52 17 17 0 01-.83 3.58 17.53 17.53 0 01-1.65 3.29c-.54.79-.89 1.25-.95 1.21zM567.813 412.598a3.54 3.54 0 01-.46.24l-1.33.6c-.58.25-1.29.57-2.09 1-.8.43-1.73.84-2.71 1.43l-1.55.88c-.53.3-1.06.67-1.63 1-1.14.7-2.28 1.55-3.5 2.42a65.38 65.38 0 00-7.32 6.43 66.94 66.94 0 00-6.18 7.52c-.83 1.25-1.64 2.42-2.29 3.59-.33.57-.68 1.12-1 1.66-.32.54-.56 1.08-.83 1.58-.55 1-.94 1.94-1.33 2.76-.39.82-.69 1.53-.92 2.12-.23.59-.41 1-.56 1.35a2.19 2.19 0 01-.22.46 1.75 1.75 0 01.14-.49c.12-.37.28-.82.47-1.39.19-.57.48-1.33.85-2.16.37-.83.74-1.79 1.27-2.8l.81-1.6c.28-.55.63-1.1 1-1.69.65-1.18 1.45-2.37 2.28-3.63a62.91 62.91 0 016.19-7.61 65.12 65.12 0 017.39-6.45c1.24-.87 2.4-1.71 3.55-2.39.58-.35 1.12-.71 1.66-1 .54-.29 1.07-.58 1.57-.86 1-.56 1.94-1 2.76-1.36a21.75 21.75 0 012.13-.92l1.37-.53a1.48 1.48 0 01.48-.16z" fill="#263238"/><path d="M547.553 426.188a3.25 3.25 0 011.11-1.66 7.07 7.07 0 014.49-1.72 12.37 12.37 0 014.72.92 6.89 6.89 0 011.79.87 10.27 10.27 0 01-1.89-.55 14.1 14.1 0 00-4.6-.77 7.27 7.27 0 00-4.29 1.5 13 13 0 00-1.33 1.41zM544.523 429.308a12 12 0 001-8.47 2.76 2.76 0 01.53 1.21 8.57 8.57 0 01.22 3.17 8.45 8.45 0 01-.95 3c-.41.76-.75 1.13-.8 1.09z" fill="#263238"/><path d="M511.533 471.358c.7 12.39 4.43 25 10.17 37.72h25c5.48-12.61 8.95-25.19 9.57-37.72z" fill="#455a64"/><path d="M552.223 491.398c0 .13-8.23.24-18.37.24s-18.36-.11-18.36-.24 8.22-.23 18.36-.23c10.14 0 18.37.11 18.37.23zM551.643 495.888c0 .13-7.71.24-17.22.24-9.51 0-17.21-.11-17.21-.24s7.71-.23 17.21-.23 17.22.1 17.22.23z" fill="#fafafa"/><path d="M329.693 298.948c.14 0 .35.51.47 1.19.12.68.09 1.25-.05 1.28-.14.03-.35-.51-.47-1.2s-.09-1.25.05-1.27zM328.093 289.188a6.2 6.2 0 01.65 2.4 6.11 6.11 0 01.14 2.48 5.94 5.94 0 01-.65-2.4 6.11 6.11 0 01-.14-2.48zM326.663 279.408a6 6 0 01.6 2.41 6.17 6.17 0 01.09 2.48 5.84 5.84 0 01-.6-2.41 6.17 6.17 0 01-.09-2.48zM325.543 269.598a6.22 6.22 0 01.52 2.43 5.88 5.88 0 010 2.48 6.12 6.12 0 01-.51-2.43 6 6 0 01-.01-2.48zM324.853 259.718a11.89 11.89 0 01.28 4.94 11.87 11.87 0 01-.28-4.94zM324.753 249.828a12.14 12.14 0 010 5 5.85 5.85 0 01-.25-2.47 6 6 0 01.25-2.53zM325.373 239.968a6.33 6.33 0 01.05 2.49 6.14 6.14 0 01-.46 2.44 5.93 5.93 0 01-.06-2.48 6.06 6.06 0 01.47-2.45zM326.853 230.198a5.84 5.84 0 01-.17 2.48 6 6 0 01-.69 2.39 12.16 12.16 0 01.86-4.87zM329.383 220.648a6.27 6.27 0 01-.46 2.44 6.34 6.34 0 01-.95 2.3 6 6 0 01.45-2.45 5.88 5.88 0 01.96-2.29zM346.345 183.778a6.06 6.06 0 01-.76 2.37 6.21 6.21 0 01-1.23 2.16 12 12 0 012-4.53zM353.893 172.858a6.17 6.17 0 01-1.05 2.25c-.7 1.16-1.37 2-1.5 2a6.18 6.18 0 011.06-2.25c.7-1.19 1.37-2.08 1.49-2zM359.823 164.948c.11.1-.49 1-1.34 2.09-.85 1.09-1.64 1.85-1.76 1.76a6.26 6.26 0 011.35-2.09c.86-1.06 1.65-1.85 1.75-1.76zM366.853 157.998c.09.12-.65.95-1.65 1.87-1 .92-1.9 1.57-2 1.47-.1-.1.64-.93 1.65-1.86 1.01-.93 1.91-1.59 2-1.48zM374.933 152.318c.07.13-.8.82-1.95 1.55a6.09 6.09 0 01-2.22 1.11c-.08-.11.79-.81 1.94-1.55a6.34 6.34 0 012.23-1.11zM383.933 148.268a6 6 0 01-2.21 1.14 6.05 6.05 0 01-2.39.66 6.08 6.08 0 012.21-1.14 6 6 0 012.39-.66zM391.153 146.488c0 .14-.5.36-1.17.49-.67.13-1.25.12-1.28 0-.03-.12.5-.36 1.18-.49.68-.13 1.25-.14 1.27 0z" fill="#263238"/><path fill="#3e64ff" d="M319.887 155.68l18.072-46.738 69.337 26.81-18.072 46.738z"/><path d="M389.223 182.528l-69.36-26.83 18.09-46.76 69.36 26.82zm-69.3-26.86l69.3 26.79 18.06-46.69-69.3-26.79z" fill="#263238"/><path d="M407.303 136.408a4.77 4.77 0 01-.88.37l-2.59.94-9.55 3.36-31.68 10.88-.26.09-.14-.24-.34-.58-17-29.37-5.09-8.94-1.35-2.45a5 5 0 01-.44-.88 5.53 5.53 0 01.55.81l1.47 2.39 5.22 8.81c4.44 7.54 10.5 17.87 17.19 29.27l.34.58-.4-.15 31.78-10.7 9.62-3.15 2.63-.83a4.38 4.38 0 01.92-.21z" fill="#263238"/><path d="M319.893 156.328c-.09-.16 7.6-4.55 17.18-9.8 9.58-5.25 17.41-9.38 17.5-9.22.09.16-7.6 4.55-17.18 9.81-9.58 5.26-17.41 9.37-17.5 9.21zM377.853 145.598c.18-.05 2.87 8.3 6 18.65 3.13 10.35 5.55 18.8 5.37 18.85-.18.05-2.87-8.29-6-18.65s-5.55-18.76-5.37-18.85zM300.573 309.888c.14 0 .21.58.16 1.27-.05.69-.22 1.24-.36 1.23-.14-.01-.22-.58-.16-1.27.06-.69.22-1.24.36-1.23zM300.823 299.718a6.33 6.33 0 01.26 2.55 6.55 6.55 0 01-.27 2.54 6.41 6.41 0 01-.25-2.54 6.63 6.63 0 01.26-2.55zM300.133 289.598a12.78 12.78 0 01.47 5.07 6.17 6.17 0 01-.49-2.51 6.61 6.61 0 01.02-2.56zM298.443 279.538a6.51 6.51 0 01.74 2.45 6.44 6.44 0 01.23 2.55 6.59 6.59 0 01-.74-2.45 6.22 6.22 0 01-.23-2.55zM295.673 269.748a12.48 12.48 0 011.55 4.85 6.42 6.42 0 01-1-2.35 6.35 6.35 0 01-.55-2.5zM291.783 260.358a6.32 6.32 0 011.28 2.21 6.54 6.54 0 01.81 2.43 6.57 6.57 0 01-1.28-2.21 6.43 6.43 0 01-.81-2.43zM286.733 251.528c.12-.08.84.82 1.6 2a6.65 6.65 0 011.08 2.33c-.13.07-.81-.85-1.53-2.06a6.45 6.45 0 01-1.15-2.27zM280.503 243.498c.11-.1.93.7 1.83 1.78a6.58 6.58 0 011.43 2.13c-.12.08-.93-.72-1.83-1.79a6.49 6.49 0 01-1.43-2.12zM273.223 236.418c.09-.11 1 .57 2.06 1.51 1.06.94 1.81 1.8 1.71 1.9a6.51 6.51 0 01-2.06-1.51c-1.06-.94-1.83-1.79-1.71-1.9zM264.953 230.478a6.34 6.34 0 012.26 1.19c1.17.78 2.06 1.51 2 1.63a6.62 6.62 0 01-2.26-1.2c-1.19-.77-2.08-1.5-2-1.62zM255.893 225.858a6.35 6.35 0 012.42.83 6.43 6.43 0 012.2 1.3 6.35 6.35 0 01-2.42-.83 6.56 6.56 0 01-2.2-1.3zM246.223 222.788a6.59 6.59 0 012.53.41 6.4 6.4 0 012.39.92 6.75 6.75 0 01-2.53-.41 6.6 6.6 0 01-2.39-.92zM236.113 221.498a10.39 10.39 0 015.07.41 15.84 15.84 0 01-5.07-.41zM225.973 222.198a12.53 12.53 0 015.06-.6 6.34 6.34 0 01-2.5.56 6.66 6.66 0 01-2.56.04zM216.153 224.818a6.32 6.32 0 012.35-1 6.25 6.25 0 012.5-.52 6.53 6.53 0 01-2.35 1 6.64 6.64 0 01-2.5.52zM206.993 229.228c-.07-.13.87-.77 2.12-1.44a6.32 6.32 0 012.36-1 12.86 12.86 0 01-4.48 2.43zM198.873 235.328c-.1-.1.7-.92 1.78-1.83a6.58 6.58 0 012.13-1.43c.08.12-.72.94-1.79 1.83a6.28 6.28 0 01-2.12 1.43zM192.223 243.008a5.73 5.73 0 011.29-2.22c.87-1.12 1.72-1.9 1.82-1.81.1.09-.55 1-1.41 2.13-.86 1.13-1.58 1.98-1.7 1.9zM188.513 249.598c-.13-.06 0-.61.31-1.24s.65-1.08.78-1c.13.08 0 .62-.31 1.24s-.65 1.07-.78 1zM124.973 308.598c0-.14.53-.32 1.21-.41.68-.09 1.25 0 1.27.11.02.11-.51.33-1.21.41-.7.08-1.26.06-1.27-.11zM115.073 307.498a7.91 7.91 0 012.48.37 7.73 7.73 0 012.42.66 8.57 8.57 0 01-4.9-1zM106.113 303.068a7.54 7.54 0 012.24 1.14c1.18.7 2.13 1.29 2.07 1.43a5.58 5.58 0 01-2.33-1c-1.2-.7-2.06-1.45-1.98-1.57zM98.673 296.388c.11-.09.93.67 1.9 1.65.97.98 1.72 1.81 1.63 1.92-.09.11-1-.56-2-1.55s-1.64-1.92-1.53-2.02zM92.793 288.288c.13-.07.84.8 1.59 2a6.42 6.42 0 011.16 2.23c-.12.09-.83-.79-1.59-1.95a6.18 6.18 0 01-1.16-2.28zM88.473 279.258a6.28 6.28 0 011.22 2.2 6.65 6.65 0 01.75 2.41 6.21 6.21 0 01-1.23-2.2 6.39 6.39 0 01-.74-2.41zM85.603 269.658a6.36 6.36 0 01.89 2.36 6.2 6.2 0 01.38 2.49 6.08 6.08 0 01-.89-2.36 6.22 6.22 0 01-.38-2.49zM83.863 259.788a6.54 6.54 0 01.63 2.44 6.29 6.29 0 01.12 2.52 6.19 6.19 0 01-.63-2.44 6.08 6.08 0 01-.12-2.52zM82.903 249.818a12.12 12.12 0 01.4 5 6.2 6.2 0 01-.46-2.47 6.1 6.1 0 01.06-2.53zM81.623 196.359c.15 0 .29.55.32 1.24.03.69-.06 1.25-.2 1.26-.14.01-.29-.55-.32-1.24-.03-.69.06-1.25.2-1.26z" fill="#263238"/><path fill="#3e64ff" d="M36.994 139.597l83.148-3.92 2.643 56.047-83.148 3.921z"/><path d="M39.603 195.668l-2.64-56.07 83.18-3.92 2.64 56.07zm-2.59-56.07l2.64 56 83.1-3.92-2.64-56z" fill="#263238"/><path d="M120.433 136.338a5.48 5.48 0 01-.74.78l-2.22 2.14-8.25 7.77-27.54 25.47-.23.21-.25-.18-.6-.44-30.73-22.38c-3.86-2.86-7-5.19-9.26-6.85l-2.49-1.9a5.48 5.48 0 01-.84-.7 6.86 6.86 0 01.93.58l2.58 1.76 9.4 6.66 30.85 22.2.61.44h-.48l27.68-25.3 8.42-7.59 2.32-2a5.14 5.14 0 01.84-.67z" fill="#263238"/><path d="M39.923 196.308c-.16-.13 5.73-8.11 13.16-17.82s13.59-17.48 13.75-17.36c.16.12-5.72 8.11-13.15 17.82-7.43 9.71-13.59 17.48-13.76 17.36zM94.443 159.128c.16-.14 6.7 7.2 14.6 16.38 7.9 9.18 14.19 16.74 14 16.88-.19.14-6.69-7.2-14.6-16.39-7.91-9.19-14.16-16.73-14-16.87z" fill="#263238"/><g><path d="M223.793 380.758a2.27 2.27 0 00-1.72-2.53l-2.23.15-8-2.77a2.39 2.39 0 00-3 2.17c0 2.29-1 8.53-2.81 6.57l-.14-.13c-2.63-2.93-5.67-4.35-6.84-4.18a1.34 1.34 0 00-.58 2.36 1.41 1.41 0 00.48.33c.08 0 .18.1.26.14a20.21 20.21 0 013.05 2.73 10.6 10.6 0 012 3c.53 1.24.95 2.32 1.28 3.25l.12 7.33-3.18 34.27s-21.1-22.16-20.61-22.37l1.23 34.52 12.78 10.57a16.07 16.07 0 0026.34-12.65l-.73-44.31.52-5.81zM105.333 429.478l-23.11 52.84-18.24 38.12-13.57 4.56s-10.74 3.12-10.74 5.34c0 2.22 2.83 1.72 2.83 1.72.52 3.32 5.12 1.44 8.34 0 3.22-1.44 10.38-1.84 10.38-1.84a2.91 2.91 0 00-.2 4.66c1.14.8 3.12-.17 4.46-1.6 1.34-1.43 4.8-2.09 8.65-3.47 3.85-1.38 4.48-6.54 4.48-6.54l46.21-77.87z" fill="#ffbe9d"/><path d="M181.973 448.668l5.81 7.67 12.59-27.93s-12.22-14.91-16.69-21.16c-4.47-6.25-7.75-7.28-7.75-7.28s-8.12-2.37-12.17-2.37l-20.06 1.2-20.37 8.89a28.22 28.22 0 00-12.27 10.33l-19.18 30.81 27.16 11.61 9.11 52.16c1.74 7.81 3.27 15.18 10.48 18.78l50.37-48.41-5.9-9.3z" fill="#3e64ff"/><path d="M133.813 439.118c.12.08-3 4.9-6.93 10.78-3.93 5.88-7.25 10.56-7.36 10.48-.11-.08 3-4.9 6.93-10.78 3.93-5.88 7.24-10.56 7.36-10.48zM176.043 488.598a9.38 9.38 0 01-1.34.8c-.87.48-2.15 1.16-3.74 2-3.19 1.65-7.61 3.86-12.56 6.19-4.95 2.33-9.47 4.34-12.77 5.74-1.65.7-3 1.26-3.92 1.63a9.79 9.79 0 01-1.47.52 8.81 8.81 0 011.39-.71l3.85-1.77c3.26-1.49 7.76-3.55 12.7-5.88 4.94-2.33 9.39-4.49 12.61-6l3.82-1.84a9.17 9.17 0 011.43-.68zM132.223 427.838a17.83 17.83 0 01-1.77-2.23 35.61 35.61 0 00-4.47-5.1 15.79 15.79 0 00-5.77-3.39c-1.65-.52-2.75-.5-2.75-.6a2 2 0 01.77-.06 9.88 9.88 0 012.08.3 14.71 14.71 0 016 3.36 28.75 28.75 0 014.42 5.28 14.31 14.31 0 011.49 2.44zM173.643 453.208a2.07 2.07 0 010 .56v1.58a36.9 36.9 0 01-.81 5.77 41.34 41.34 0 01-23.27 29 38 38 0 01-5.46 2c-.66.2-1.19.31-1.54.39a2.2 2.2 0 01-.54.1s.72-.25 2-.68a44.81 44.81 0 005.36-2.18 42.32 42.32 0 0023.08-28.77 46.33 46.33 0 001-5.71c.09-1.3.14-2.06.18-2.06z" fill="#263238"/><path d="M122.563 480.598c-.09-.5 6.46-34.36 6.46-34.36l-9.88 14.83" opacity=".3"/><path d="M180.683 416.168a2.45 2.45 0 01.07.58c0 .44.06 1 .11 1.68.07 1.52.18 3.6.31 6.15.25 5.26.6 12.41 1 20.3.4 7.89.68 15.12.83 20.32.08 2.6.13 4.71.15 6.16v1.68a2.17 2.17 0 010 .58 2.45 2.45 0 01-.07-.58c0-.44-.06-1-.11-1.67-.07-1.52-.18-3.61-.31-6.15-.25-5.26-.6-12.41-1-20.31-.4-7.9-.67-15.11-.83-20.32-.08-2.6-.13-4.7-.15-6.16v-1.67a2.23 2.23 0 010-.59z" fill="#263238"/><path d="M140.483 505.388c-1.62-1.34-1.25-4.08.18-5.62s3.56-2.17 5.56-2.85c9.57-3.1 19.19-7.48 25.5-15.32a15.45 15.45 0 012.83-3 3.91 3.91 0 013.93-.54c1.93 1 2 3.8 1.19 5.83a11.18 11.18 0 01-5.27 5.76M186.483 454.618l-4.36-5.75-1.23-26.69z" opacity=".2"/><path d="M234.073 507.388l-9.45 32.42 40.27 12c.91-3.92-17.63-17.83-17.63-17.83l6.96-20.56z" fill="#3e64ff"/><path d="M235.333 528.498a1.71 1.71 0 00-1.7 1.53 1.66 1.66 0 001.51 1.7 1.82 1.82 0 001.79-1.64 1.71 1.71 0 00-1.77-1.59M224.623 539.808l1.08-3.23 38.21 12.68s1.56 1.31 1 2.51z" fill="#fff" opacity=".6"/><path d="M247.973 533.928c-.06.19-1.07 0-2.23.34s-1.91 1-2.07.88c-.16-.12.47-1.18 1.88-1.57 1.41-.39 2.52.18 2.42.35zM251.683 536.928c0 .21-1 .29-1.88.92-.88.63-1.37 1.46-1.56 1.39-.19-.07 0-1.22 1.16-2s2.33-.5 2.28-.31zM252.583 542.698c-.2 0-.18-1.08.65-2 .83-.92 1.87-1.08 1.9-.9.03.18-.7.6-1.37 1.37-.67.77-.98 1.57-1.18 1.53zM249.033 529.078c-.14.15-1-.39-2.09-.64-1.09-.25-2.11-.16-2.16-.36-.05-.2 1-.65 2.32-.34 1.32.31 2.12 1.21 1.93 1.34zM249.493 524.018a4 4 0 01-2-.61 9.14 9.14 0 01-1.92-1.28 9.78 9.78 0 01-1-1 2.47 2.47 0 01-.46-.65.9.9 0 01.22-1.08 1.13 1.13 0 011-.19 2.91 2.91 0 01.73.33 8 8 0 011.12.8 7.35 7.35 0 011.5 1.78 3.47 3.47 0 01.7 2c-.11 0-.38-.72-1.12-1.71a8 8 0 00-1.5-1.55 7.37 7.37 0 00-1.05-.7c-.39-.24-.75-.35-.92-.19-.17.16-.07.08 0 .23a1.86 1.86 0 00.34.48 11.34 11.34 0 00.89.93 12.56 12.56 0 001.72 1.33c1.04.66 1.79.97 1.75 1.08z" fill="#263238"/><path d="M249.153 524.218a3.31 3.31 0 01.05-2.1 6.55 6.55 0 01.93-2.13 6.17 6.17 0 01.88-1.07 1.73 1.73 0 011.59-.64 1 1 0 01.67.81 3 3 0 010 .8 4.7 4.7 0 01-.4 1.36 5 5 0 01-1.48 1.83c-1.1.81-2 .8-2 .73 0-.07.76-.29 1.66-1.12a4.74 4.74 0 001.2-1.7 4.1 4.1 0 00.31-1.18c.07-.45 0-.84-.16-.84s-.64.16-.91.45a7.88 7.88 0 00-.82.94 7.56 7.56 0 00-1 1.9c-.39 1.16-.4 1.96-.52 1.96z" fill="#263238"/><path d="M275.423 459.118c1 7.48-1.54 15.91-4.25 23l-17.66 41.48-19.55-3s-4.07 4.54-9.28 6.28c-2.33.77-10 2.28-16.31-2.26 0 0-8.93 12.44-23 16.2s-35.32 5.84-45.62-10.6l49-47.24c1 .24 42.23-27.56 64.5-33.89.04 0 20.29-3.72 22.17 10.03z" fill="#263238"/><path d="M232.513 520.438s.08-.06.26-.16l.8-.42c.71-.38 1.75-.91 3.07-1.64a49.88 49.88 0 004.68-2.88 24.65 24.65 0 005.29-4.91 17 17 0 003.43-7.94 26.38 26.38 0 00-.42-10 16.15 16.15 0 00-5.39-9.39 20.41 20.41 0 00-11-3.92 33.91 33.91 0 00-6.05.05 45.45 45.45 0 00-5.81 1 69.19 69.19 0 00-10.55 3.65c-6.53 2.86-12.2 5.94-17.18 8.07a61.15 61.15 0 01-12.15 4.05c-.74.17-1.41.28-2 .36-.59.08-1.06.17-1.46.2l-.9.09h-.31l.31-.07.89-.13c.39-.06.88-.13 1.45-.25s1.23-.22 2-.4a64.21 64.21 0 0012-4.2c4.94-2.16 10.59-5.27 17.14-8.17a69 69 0 0110.62-3.7 46.41 46.41 0 015.87-1 35.05 35.05 0 016.15-.05 20.82 20.82 0 0111.32 4.05 14.24 14.24 0 013.67 4.46 20.3 20.3 0 011.87 5.22 27.06 27.06 0 01.38 10.17 17.49 17.49 0 01-3.57 8.09 24.36 24.36 0 01-5.42 4.92 49.2 49.2 0 01-4.74 2.82c-1.34.7-2.4 1.21-3.12 1.55l-.83.38a1.27 1.27 0 01-.3.1z" fill="#455a64"/><path d="M244.773 465.948a57.67 57.67 0 01-4.1 6.69 60.53 60.53 0 01-4.53 6.4 59.41 59.41 0 014.1-6.69 60.53 60.53 0 014.53-6.4zM230.673 517.138a34.55 34.55 0 01-3.55.92c-2.19.54-5.2 1.37-8.46 2.51a95.732 95.732 0 00-8.18 3.31c-2.05.94-3.31 1.57-3.35 1.5a4 4 0 01.82-.55c.55-.33 1.36-.77 2.37-1.28a68.25 68.25 0 0116.72-5.85c1.11-.23 2-.39 2.65-.47a4 4 0 01.98-.09zM253.163 520.878c-.09 0-.32-.88-1.15-2.1a8.47 8.47 0 00-10.06-3.27c-1.39.5-2.12 1.11-2.18 1-.06-.11.14-.2.48-.47a7.08 7.08 0 011.56-.9 8.33 8.33 0 0110.51 3.46 6.89 6.89 0 01.73 1.65c.17.35.17.63.11.63zM168.583 505.388a2.69 2.69 0 01.26.93 15.17 15.17 0 01.22 2.63 16.28 16.28 0 01-2.3 8.36 12.8 12.8 0 01-6.7 5.44 9.62 9.62 0 01-2.6.5 2.68 2.68 0 01-1 0 18.68 18.68 0 003.45-.8 13 13 0 006.38-5.37 17.1 17.1 0 002.38-8.08c.12-2.25-.18-3.6-.09-3.61zM146.533 527.818c-.11.09-.63-.36-1.12-1-.49-.64-.75-1.33-.62-1.4.13-.07.57.43 1.05 1.09.48.66.8 1.22.69 1.31zM150.643 532.168c-.09.11-.65-.28-1.25-.86s-1-1.13-.9-1.22c.1-.09.67.28 1.26.85s.99 1.12.89 1.23zM155.503 535.678c-.07.12-.7-.14-1.4-.6-.7-.46-1.2-.92-1.12-1 .08-.08.72.16 1.4.6.68.44 1.19.92 1.12 1zM161.003 538.038c0 .14-.71 0-1.5-.26s-1.38-.62-1.32-.76c.06-.14.73 0 1.49.27s1.37.61 1.33.75zM166.913 538.968c0 .14-.68.2-1.52.12-.84-.08-1.49-.25-1.47-.39.02-.14.71-.2 1.52-.12.81.08 1.47.25 1.47.39zM172.893 538.648c0 .14-.65.3-1.48.36a6.7 6.7 0 01-1.12 0c-.25 0-.4-.06-.41-.13-.01-.07.13-.14.37-.21a6.37 6.37 0 011.1-.16c.87-.08 1.52-.01 1.54.14zM178.783 537.598c0 .14-.59.39-1.41.57-.82.18-1.49.2-1.51.06-.02-.14.6-.4 1.41-.57.81-.17 1.48-.22 1.51-.06zM184.523 535.828c0 .14-.55.46-1.34.73-.79.27-1.47.36-1.51.23-.04-.13.56-.46 1.34-.73.78-.27 1.46-.36 1.51-.23zM190.033 533.488c.07.13-.5.52-1.25.86-.75.34-1.42.52-1.48.39-.06-.13.51-.52 1.26-.86.75-.34 1.41-.52 1.47-.39zM195.293 530.598c.07.12-.45.56-1.17 1-.72.44-1.36.65-1.42.53-.06-.12.45-.57 1.16-1 .71-.43 1.36-.64 1.43-.53zM200.223 527.228c.09.12-.39.6-1.07 1.09-.68.49-1.29.78-1.37.66-.08-.12.4-.61 1.07-1.09.67-.48 1.3-.77 1.37-.66zM204.863 523.408c.1.11-.34.64-1 1.18-.66.54-1.22.9-1.31.79-.09-.11.34-.64 1-1.18.66-.54 1.21-.89 1.31-.79zM209.223 519.288c.1.11-.31.66-.91 1.22-.6.56-1.18.94-1.27.84-.09-.1.3-.64.91-1.22.61-.58 1.18-.94 1.27-.84zM213.963 515.598c.08.12-.39.61-1.06 1.09-.67.48-1.28.78-1.37.67-.09-.11.39-.6 1.06-1.09.67-.49 1.29-.78 1.37-.67zM219.223 512.708c.06.13-.5.53-1.23.9s-1.39.56-1.46.43c-.07-.13.48-.53 1.23-.9s1.4-.54 1.46-.43zM224.943 510.928c0 .14-.6.42-1.39.61-.79.19-1.48.25-1.52.12-.04-.13.58-.42 1.39-.62.81-.2 1.5-.25 1.52-.11zM230.923 510.598c0 .15-.69.2-1.51.18-.82-.02-1.48-.09-1.49-.23-.01-.14.66-.3 1.5-.29.84.01 1.51.22 1.5.34zM236.703 512.138c-.07.13-.71-.06-1.47-.33s-1.39-.54-1.36-.68c.03-.14.73-.1 1.53.19.8.29 1.36.69 1.3.82zM235.433 516.488c-.09-.12.36-.61.89-1.21s1-1.1 1.09-1c.09.1-.12.73-.7 1.37-.58.64-1.19.95-1.28.84zM230.143 519.238c0-.14.53-.5 1.28-.81.75-.31 1.42-.46 1.49-.33.07.13-.51.49-1.29.81-.78.32-1.4.47-1.48.33zM224.423 521.078c0-.14.55-.46 1.34-.73.79-.27 1.46-.37 1.51-.23.05.14-.56.46-1.34.72-.78.26-1.46.37-1.51.24zM218.823 523.208c-.06-.13.52-.48 1.3-.79.78-.31 1.44-.44 1.49-.31.05.13-.53.49-1.3.8-.77.31-1.44.44-1.49.3zM213.293 525.598c-.06-.13.51-.51 1.27-.83.76-.32 1.43-.49 1.48-.36.05.13-.51.51-1.27.83-.76.32-1.43.44-1.48.36zM202.113 354.068s6.54-2 15.23-11.65c8.69-9.65 12.19-22 13.34-22 1.15 0 6-2.72 17 17.26s7.66 25.07 5.77 25.17c-1.89.1-15-2.52-23-1s-18 6.46-18 6.46z" fill="#455a64"/><path d="M188.823 366.398l2.59 4.15 1.16 1.85a5.65 5.65 0 007.53 1.95l13.88-6-9.71-18.33-13.68 8.58a5.65 5.65 0 00-1.77 7.8z" fill="#263238"/><path d="M197.553 372.698l5.21 8.56 2.22-.8 15.73 11 3.51-8.46s-9-3.13-10.9-6.13c-1.9-3 0-3.85 0-3.85l-4.47-4.42zM246.973 338.118c5.89 10.83 8.74 20.66 6.36 22-2.38 1.34-9.08-6.43-15-17.26-5.92-10.83-8.74-20.66-6.36-22 2.38-1.34 9.1 6.42 15 17.26z" fill="#263238"/><path fill="#455a64" d="M186.353 368.868l1.71 3.85 3.78-1.5-2.73-4.36zM200.493 377.528l-1.48-2.44 11.37-4.95z"/><path fill="#455a64" d="M188.783 367.098l.33-.24 2.73 4.36-.78.31zM191.853 367.708a21.52 21.52 0 004.18-2 21.53 21.53 0 003.94-2.43 21.83 21.83 0 00-4.18 2 21.53 21.53 0 00-3.94 2.43zM190.463 365.088a18.27 18.27 0 003.77-1.93 19 19 0 003.53-2.36 35.8 35.8 0 00-7.3 4.29zM193.563 370.438a3.33 3.33 0 001.19-.36l1.25-.52c.46-.21.94-.49 1.45-.77a16.5 16.5 0 003.52-2.33 20.42 20.42 0 00-3.76 1.89c-.51.28-1 .58-1.42.8-.42.22-.85.43-1.19.61-.66.36-1.07.61-1.04.68zM236.463 336.388s5.52-4 9.26 3.56c3.74 7.56-2.24 9.31-2.24 9.31a52.11 52.11 0 01-7.02-12.87z"/><path d="M229.633 327.538a7.34 7.34 0 00.33 1.48c.26.94.62 2.3 1.12 4 .3.82.64 1.71 1 2.67l.56 1.49c.1.25.19.51.29.78.1.27.24.51.36.77l1.56 3.27c.13.29.27.57.41.86.14.29.31.56.47.84l1 1.71 1 1.71c.17.27.32.56.5.82.18.26.37.53.54.79l2.08 3c.17.23.32.47.49.69l.54.65 1 1.22 1.83 2.2c1.21 1.26 2.21 2.24 2.9 2.93a8 8 0 001.12 1 10.49 10.49 0 00-1-1.15l-2.78-3-1.73-2.29-1-1.23-.52-.65c-.17-.22-.32-.46-.48-.69l-2-3-.53-.78c-.19-.26-.33-.55-.5-.82l-1-1.7c-.33-.57-.66-1.14-1-1.69-.15-.28-.33-.55-.47-.84-.14-.29-.27-.57-.41-.85l-1.57-3.23c-.12-.26-.26-.51-.36-.77-.1-.26-.21-.52-.31-.77-.2-.51-.39-1-.58-1.47l-1.05-2.64c-.53-1.63-.95-3-1.26-3.91a10.21 10.21 0 00-.55-1.4z" fill="#263238"/><path d="M214.763 373.038a1.69 1.69 0 011.17 2.05c-.43 1.7-1.13 4.37-1.69 6a4.49 4.49 0 01-.75 1.48 1.4 1.4 0 01-2.55-.72 4.46 4.46 0 01.15-1.74c.35-1.59 1-4 1.56-5.91a1.69 1.69 0 012.11-1.16z" fill="#ffbe9d"/><path d="M217.473 375.798a1.69 1.69 0 011.17 2.05c-.43 1.7-1.13 4.37-1.7 6a4.31 4.31 0 01-.75 1.48 1.53 1.53 0 01-1.48.56 1.57 1.57 0 01-1.06-1.29 4.67 4.67 0 01.14-1.74c.36-1.58 1-4 1.56-5.91a1.71 1.71 0 012.12-1.16z" fill="#ffbe9d"/><path d="M220.083 377.458a1.48 1.48 0 011 1.78c-.37 1.47-1 3.78-1.47 5.19a3.83 3.83 0 01-.65 1.29 1.21 1.21 0 01-2.2-.63 3.87 3.87 0 01.12-1.51c.31-1.37.87-3.43 1.35-5.12a1.48 1.48 0 011.83-1z" fill="#ffbe9d"/><path d="M223.053 377.788a1.48 1.48 0 011 1.79c-.37 1.48-1 3.8-1.48 5.22a3.74 3.74 0 01-.65 1.29 1.21 1.21 0 01-2.21-.63 3.92 3.92 0 01.12-1.52c.31-1.37.87-3.45 1.36-5.14a1.48 1.48 0 011.84-1z" fill="#ffbe9d"/><path d="M213.823 382.598a10.36 10.36 0 01.73-3.2 10.57 10.57 0 011.24-3.05 10.21 10.21 0 01-.74 3.2 10.73 10.73 0 01-1.23 3.05zM219.453 384.868a41 41 0 011.87-6.27 13.93 13.93 0 01-1.87 6.28zM216.663 384.508a41.54 41.54 0 011.87-6.29 13.92 13.92 0 01-1.87 6.29z" fill="#eb996e"/><path d="M267.473 299.948c.11.08-4 5.65-9.16 12.43-5.16 6.78-9.46 12.21-9.57 12.12-.11-.09 4-5.65 9.15-12.43 5.15-6.78 9.46-12.21 9.58-12.12zM294.303 315.818c.06.13-8.56 4.26-19.26 9.22-10.7 4.96-19.41 8.88-19.47 8.75-.06-.13 8.56-4.26 19.25-9.22 10.69-4.96 19.4-8.88 19.48-8.75zM290.303 348.838c0 .14-6.16-.33-13.72-1.06-7.56-.73-13.69-1.44-13.68-1.58.01-.14 6.16.33 13.73 1.06s13.69 1.44 13.67 1.58z" fill="#263238"/><path d="M132.643 367.358l6.79 38.6a12.7 12.7 0 0014.3 10.28 12.56 12.56 0 0010.8-14.44l-1.1-6.64s9.5-2.58 8.51-12.12c-.48-4.6-2.24-14-3.94-22.46a18.21 18.21 0 00-20.78-14.23 17.76 17.76 0 00-14.58 21.01z" fill="#ffbe9d"/><path d="M163.453 395.178a22.93 22.93 0 01-13-2.11s3.77 6.53 13.31 4.53z" fill="#eb996e"/><path d="M165.933 367.018a1.37 1.37 0 01-1.17 1.52 1.32 1.32 0 01-1.56-1.06 1.37 1.37 0 011.17-1.53 1.32 1.32 0 011.56 1.07zM166.223 364.708c-.15.2-1.29-.45-2.77-.27s-2.49 1-2.67.86c-.18-.14 0-.41.48-.8a3.94 3.94 0 012.11-.92 3.68 3.68 0 012.24.45c.52.29.72.57.61.68zM151.963 368.698a1.38 1.38 0 01-1.17 1.53 1.33 1.33 0 01-1.57-1.07 1.37 1.37 0 011.17-1.52 1.33 1.33 0 011.57 1.06zM151.893 366.598c-.15.19-1.28-.45-2.77-.28-1.49.17-2.49 1-2.67.87-.18-.13.05-.41.49-.81a3.8 3.8 0 012.11-.91 3.74 3.74 0 012.23.44c.5.33.69.69.61.69zM158.553 377.758a10.52 10.52 0 012.37-.7c.37-.08.72-.2.76-.46a1.93 1.93 0 00-.39-1.08l-1.45-2.72c-2-3.87-3.55-7.08-3.39-7.16.16-.08 1.94 3 4 6.88.49.95 1 1.86 1.4 2.74a2.1 2.1 0 01.37 1.44.94.94 0 01-.56.62 2.53 2.53 0 01-.63.16 10.06 10.06 0 01-2.48.28zM154.303 379.268c.24 0 .43 1.54 1.94 2.52s3.21.6 3.24.82c.03.22-.34.35-1.07.45a4.09 4.09 0 01-2.7-.59 3.48 3.48 0 01-1.52-2.13c-.14-.66.03-1.07.11-1.07zM151.613 361.738c-.1.41-1.61.39-3.33.79s-3.07 1-3.34.71c-.13-.16.07-.57.6-1a6.09 6.09 0 015.08-1.14c.67.16 1.03.44.99.64zM165.433 361.418c-.22.36-1.29.13-2.52.25s-2.25.48-2.53.16c-.12-.15 0-.51.42-.87a3.47 3.47 0 012-.78 3.58 3.58 0 012.09.44c.45.3.63.62.54.8z" fill="#263238"/><path d="M168.053 344.278a3.37 3.37 0 00-4.39.27 3 3 0 00-.85-4 5.16 5.16 0 00-4.37-.63 14.83 14.83 0 00-4.09 2 1.54 1.54 0 00-.67-1.56 3.7 3.7 0 00-1.72-.54 13.11 13.11 0 00-7.21 1.62 45 45 0 00-6.67 4.53 31.87 31.87 0 00-6.1 6.52l-.08.07c-1.41 1.26-2.6 5.06-2.39 6.92.79 6.87 3.07 10.84 4.35 17.34a2.28 2.28 0 00.49 1.21c.79.82 2.21.12 3-.74a12.28 12.28 0 002.54-7.73c.09-2.76-.31-5.51-.24-8.27v-.2a15.5 15.5 0 01.2-2.1c.12-.45 1.29-4.39 5.08-5 4-.68 11.95 3.22 15.88 2.6 3.93-.62 4.14-3.39 4.14-3.39l2.31 4.7a14.23 14.23 0 00.37-5.87 6.67 6.67 0 002-3.43 4.41 4.41 0 00-1.58-4.32z" fill="#263238"/><path d="M136.413 371.458c-.17-.05-6.87-1.18-5.9 5.31.97 6.49 7.39 4.19 7.37 4-.02-.19-1.47-9.31-1.47-9.31z" fill="#ffbe9d"/><path d="M135.503 378.598s-.1.1-.28.21a1.19 1.19 0 01-.86.15 2.85 2.85 0 01-1.69-2.32 3.86 3.86 0 01.08-1.67 1.31 1.31 0 01.74-1 .6.6 0 01.72.21c.11.17.09.31.13.31.04 0 .12-.13 0-.39a.83.83 0 00-.32-.37.92.92 0 00-.66-.07 1.64 1.64 0 00-1 1.18 3.87 3.87 0 00-.12 1.87 3 3 0 002.09 2.56 1.25 1.25 0 001-.33c.18-.18.19-.34.17-.34z" fill="#eb996e"/><path d="M121.623 418.448a1.2 1.2 0 01.57-.09 2.24 2.24 0 011.48.74 3.22 3.22 0 01.86 2.46 14.31 14.31 0 01-.76 3.36 4.58 4.58 0 00.23 3.85c.71 1.24 2.16 2.19 2.75 3.92a4.61 4.61 0 01-1.45 5 4.68 4.68 0 01-2.7 1.05 9.88 9.88 0 01-2.89-.47 5.24 5.24 0 00-2.7-.17 3.92 3.92 0 00-2 1.62 13.82 13.82 0 01-1.7 2.13 3.4 3.4 0 01-2.53.93 5 5 0 01-4-2.65 9.78 9.78 0 01-1-4.08c-.07-1.28 0-2.43 0-3.43a17.18 17.18 0 00-.22-2.55 13.07 13.07 0 00-.61-2.1 2.07 2.07 0 01.28.5 6.65 6.65 0 01.52 1.56 14.26 14.26 0 01.32 2.58c0 1 0 2.16.13 3.42a9.33 9.33 0 001 3.89 4.61 4.61 0 003.63 2.38 2.89 2.89 0 002.17-.82 13.33 13.33 0 001.63-2.06 4.43 4.43 0 012.26-1.82 5.6 5.6 0 013 .17 10.05 10.05 0 002.74.45 4.18 4.18 0 002.41-.93 4.13 4.13 0 001.32-4.47c-.49-1.53-1.9-2.5-2.68-3.85a4.06 4.06 0 01-.57-2.17 8.26 8.26 0 01.36-2 14.47 14.47 0 00.83-3.28 3 3 0 00-.72-2.31 2.24 2.24 0 00-1.34-.76c-.42-.03-.62.03-.62 0zM124.373 488.438s.07.24.3.62a2.61 2.61 0 001.55 1.08 3.15 3.15 0 002.86-.6 6 6 0 001.91-3.5c.32-1.49.26-3.19.55-5a8 8 0 01.92-2.73 4.56 4.56 0 012.3-2.06 6.48 6.48 0 013.21-.29c1.09.11 2.16.36 3.24.5a7.85 7.85 0 003.27-.16 7.47 7.47 0 002.92-1.62 6.35 6.35 0 001.8-2.79 5.34 5.34 0 00-.06-3.19 5.49 5.49 0 00-4.35-3.87c-2-.22-3.8.75-5.69.79a5.4 5.4 0 01-2.64-.6 12.46 12.46 0 01-2.07-1.33 12.65 12.65 0 00-3.5-2.14 3.6 3.6 0 00-3 .2 2.72 2.72 0 00-1.28 1.39 6.4 6.4 0 00-.16.67 1.57 1.57 0 01.06-.7 2.74 2.74 0 011.28-1.54 3.86 3.86 0 011.4-.48 4.26 4.26 0 011.74.19 12.54 12.54 0 013.64 2.12 7.12 7.12 0 004.47 1.79 13.88 13.88 0 002.73-.51 8.42 8.42 0 013-.32 5.94 5.94 0 014.77 4.18 5.72 5.72 0 01.07 3.5 6.87 6.87 0 01-1.94 3 7.89 7.89 0 01-3.13 1.74 8.17 8.17 0 01-3.47.16c-1.12-.15-2.19-.39-3.23-.51a6.05 6.05 0 00-3 .25 4 4 0 00-2.08 1.84 7.89 7.89 0 00-.9 2.57c-.29 1.77-.26 3.49-.61 5a6.29 6.29 0 01-2.09 3.65 3.34 3.34 0 01-3.09.56 2.61 2.61 0 01-1.59-1.22 1.46 1.46 0 01-.11-.64zM158.343 427.848a3.69 3.69 0 01.69-.93 5.34 5.34 0 013-1.5 5.13 5.13 0 014.78 1.9 5.49 5.49 0 011.21 3.09 8.2 8.2 0 00.76 3.48 2.7 2.7 0 001.46 1.09 7.88 7.88 0 002 .31c.7 0 1.42 0 2.17.1a4.08 4.08 0 012.19.78 2.69 2.69 0 01.76 1 2.66 2.66 0 01.2 1.25 4.17 4.17 0 01-1 2.26 6.39 6.39 0 01-2 1.57c-.75.38-1.54.69-2.31 1.05a8.14 8.14 0 00-2.13 1.31 4.13 4.13 0 00-1.25 2.13c-.41 1.68 0 3.5-.12 5.4a7 7 0 01-.76 2.8 3.33 3.33 0 01-2.38 1.79 3.69 3.69 0 01-2.87-1 8.75 8.75 0 01-1.91-2.33 24.83 24.83 0 00-1.54-2.45 4.52 4.52 0 00-2.13-1.66 3.83 3.83 0 00-2.62.17 15.5 15.5 0 00-2.44 1.3 13.88 13.88 0 01-2.48 1.29 7.68 7.68 0 01-2.75.46 8.66 8.66 0 01-5-1.76 7.1 7.1 0 01-2.74-4.23 4.9 4.9 0 011.19-4.57 4.78 4.78 0 012.06-1.06 17 17 0 012.15-.37 7 7 0 003.68-1.25 7.32 7.32 0 002-3c.43-1.07.71-2.13 1.08-3.1a9.08 9.08 0 011.35-2.55 11.79 11.79 0 011.74-1.68 6.16 6.16 0 013-1.45 1.39 1.39 0 011.11.31 1.78 1.78 0 00-1.1-.2 6.14 6.14 0 00-2.87 1.5 11.1 11.1 0 00-1.68 1.68 9.24 9.24 0 00-1.27 2.49c-.35 1-.62 2-1 3.12a7.56 7.56 0 01-2 3.13 7.23 7.23 0 01-3.87 1.36c-1.37.21-2.9.36-4 1.36a4.45 4.45 0 00-1 4.16 6.72 6.72 0 002.58 3.94 8.24 8.24 0 004.73 1.64 7 7 0 002.56-.43 13.79 13.79 0 002.4-1.26 15.79 15.79 0 012.25-1.29 4.32 4.32 0 013-.18 5 5 0 012.38 1.83 23.47 23.47 0 011.58 2.51 8.67 8.67 0 001.79 2.19 3.13 3.13 0 002.46.83 2.75 2.75 0 002-1.52 6.57 6.57 0 00.7-2.58c.1-1.79-.3-3.66.15-5.49a4.64 4.64 0 011.4-2.37 8.36 8.36 0 012.26-1.39c.79-.36 1.57-.66 2.3-1a5.87 5.87 0 001.85-1.45 3.73 3.73 0 001-2 2.24 2.24 0 00-.16-1 2.34 2.34 0 00-.64-.82 3.68 3.68 0 00-2-.69c-.71-.08-1.43-.08-2.14-.12a8.16 8.16 0 01-2.09-.35 3.12 3.12 0 01-1.64-1.25 8.34 8.34 0 01-.78-3.64 5.24 5.24 0 00-1.1-3 5 5 0 00-4.52-1.91 5.37 5.37 0 00-2.91 1.37 9.74 9.74 0 00-.77.88zM141.513 410.968a3.48 3.48 0 01-2.08 1 6.51 6.51 0 01-2.54 0 4.44 4.44 0 01-2.73-1.57 5.85 5.85 0 01-1-3 8 8 0 01.17-2.53 3.39 3.39 0 011.07-2 9 9 0 00-.7 2.12 8.57 8.57 0 00-.07 2.41 5.79 5.79 0 00.93 2.71 4 4 0 002.41 1.41 7 7 0 002.38.09 10.22 10.22 0 002.16-.64zM184.563 408.418s0 .1-.07.27a2.76 2.76 0 01-.39.72 4.49 4.49 0 01-2.49 1.66 4.64 4.64 0 01-2.11 0 5.6 5.6 0 01-2.13-1.14 6.85 6.85 0 00-2.1-1.29 1.91 1.91 0 00-2.13.84 18 18 0 00-1.23 2.44 5 5 0 01-1.77 2 4.72 4.72 0 01-6.67-1.44 2 2 0 01-.41-1s.17.35.57.9a5 5 0 002.26 1.69 4.54 4.54 0 005.56-2.38 19 19 0 011.26-2.51 2.69 2.69 0 011.19-1 2.34 2.34 0 011.5-.06 7.17 7.17 0 012.27 1.4 5.21 5.21 0 001.93 1.1 4.34 4.34 0 001.93 0 4.45 4.45 0 002.41-1.42c.44-.43.58-.8.62-.78zM191.693 447.678a5.3 5.3 0 01-1.11-.72 22.78 22.78 0 01-2.73-2.38 13 13 0 01-1.59-2 6.65 6.65 0 01-1-2.76 5.39 5.39 0 01.51-3.21 4 4 0 011.13-1.34 12.16 12.16 0 011.47-.94 6.38 6.38 0 001.33-1 3.15 3.15 0 00.77-1.32 7.74 7.74 0 00.1-3 15 15 0 01-.21-2.88 3.52 3.52 0 01.93-2.39 5.31 5.31 0 013.37-1.35 1.44 1.44 0 011.24.46 2.36 2.36 0 00-1.23-.26 5.32 5.32 0 00-3.12 1.41 3.16 3.16 0 00-.76 2.16 16.68 16.68 0 00.25 2.79 7.86 7.86 0 01-.08 3.23 3.58 3.58 0 01-.89 1.54 6.4 6.4 0 01-1.44 1.05 5.38 5.38 0 00-2.41 2.13 5.06 5.06 0 00-.49 2.92 8 8 0 002.38 4.51c2.11 2.2 3.64 3.27 3.58 3.35zM170.783 467.518a1.38 1.38 0 01.46 0 10.92 10.92 0 011.34.08 12.92 12.92 0 014.74 1.38 8.63 8.63 0 014.48 5.67 6 6 0 01-.62 4.33 5.86 5.86 0 01-3.76 2.81 5.35 5.35 0 01-2.43-.13 3.3 3.3 0 00-2.08 0 4 4 0 00-1.62 1.25 11.57 11.57 0 00-1.07 1.69 6.71 6.71 0 01-2.61 3 4.93 4.93 0 01-3.43.41 4.32 4.32 0 01-2.39-1.56 4.78 4.78 0 01-.92-1.94 4.11 4.11 0 01-.07-1.35 1.54 1.54 0 01.1-.46 7.2 7.2 0 00.17 1.76 4.67 4.67 0 00.95 1.81 4 4 0 002.2 1.33 4.6 4.6 0 003.15-.43 6.38 6.38 0 002.39-2.83 6.45 6.45 0 013-3.22 3.8 3.8 0 012.38 0 4.74 4.74 0 002.21.13 5.38 5.38 0 003.42-2.56 5.57 5.57 0 00.59-4 8.34 8.34 0 00-4.19-5.45 13.64 13.64 0 00-4.58-1.5c-1.17-.14-1.82-.14-1.81-.22zM152.053 500.598a6.81 6.81 0 00-.93-2.06 5.07 5.07 0 00-1.87-1.51 4 4 0 00-5.16 1.38 5 5 0 00-.87 2.19 6.75 6.75 0 00.22 2.25s-.17-.17-.33-.55a4.05 4.05 0 01-.26-1.74 5.18 5.18 0 01.83-2.48 4.31 4.31 0 015.77-1.54 5.1 5.1 0 012 1.73 4 4 0 01.64 1.63c.02.42-.01.7-.04.7zM155.223 515.098s-.09-.47-.45-1.23a5.25 5.25 0 00-2.4-2.46 5 5 0 00-4.87.37 7.65 7.65 0 00-2 2.28 7.23 7.23 0 01-1.14 1.3 2.74 2.74 0 01-1.75.65 4.36 4.36 0 01-3-1.81 10 10 0 00-2.12-2.21 3.74 3.74 0 00-2.59-.47 5.27 5.27 0 00-2.19.91 8.92 8.92 0 00-2.3 2.65 9.1 9.1 0 01-.69 1.13 4.57 4.57 0 01.51-1.22 8.39 8.39 0 012.26-2.85 5.34 5.34 0 012.34-1 4.15 4.15 0 012.92.48 10.19 10.19 0 012.25 2.29 3.9 3.9 0 002.62 1.62c1.07 0 1.85-.87 2.46-1.73a8.25 8.25 0 012.17-2.38 5.18 5.18 0 017.73 2.41 4.11 4.11 0 01.25 1c.05.15.05.27-.01.27zM162.933 478.818a11.45 11.45 0 00-2.88-1.27 9.08 9.08 0 00-3.36-.18 8.11 8.11 0 00-3.8 1.48 7 7 0 00-2.4 3.25 7.2 7.2 0 00-.36 3.32 9.43 9.43 0 001.06 2.94s-.25-.2-.56-.67a6.07 6.07 0 01-.87-2.22 7.29 7.29 0 012.82-7 8.25 8.25 0 014-1.53 8.7 8.7 0 013.52.3 6.86 6.86 0 012.14 1c.5.36.71.56.69.58z" fill="#fafafa"/></g><path d="M342.107 190.922a6.06 6.06 0 01-.76 2.37 6.21 6.21 0 01-1.23 2.16 12 12 0 012-4.53zM338.167 199.155a6.06 6.06 0 01-.76 2.37 6.21 6.21 0 01-1.23 2.16 12 12 0 012-4.53zM335.143 206.402a6.06 6.06 0 01-.76 2.37 6.21 6.21 0 01-1.23 2.16 12 12 0 012-4.53zM332.245 213.283a6.06 6.06 0 01-.76 2.37 6.21 6.21 0 01-1.23 2.16 12 12 0 012-4.53zM349.806 178.323a6.06 6.06 0 01-.76 2.37 6.21 6.21 0 01-1.23 2.16 12 12 0 012-4.53zM82.176 241.272a12.12 12.12 0 01.4 5 6.2 6.2 0 01-.46-2.47 6.1 6.1 0 01.06-2.53zM81.782 232.279a12.12 12.12 0 01.03 5.016 6.2 6.2 0 01-.277-2.497 6.1 6.1 0 01.247-2.52zM81.721 222.404a12.12 12.12 0 01.03 5.016 6.2 6.2 0 01-.276-2.497 6.1 6.1 0 01.246-2.519zM81.902 212.322a12.12 12.12 0 01.03 5.016 6.2 6.2 0 01-.276-2.497 6.1 6.1 0 01.246-2.52zM81.8 203.56a12.12 12.12 0 01.03 5.015 6.2 6.2 0 01-.276-2.497 6.1 6.1 0 01.246-2.518zM576.674 214.406a6.44 5.77 77.204 01-.047 2.503 5.66 5.07 77.204 01-.54 2.399 7.14 6.397 77.204 01.07-2.487 6.29 5.635 77.204 01.517-2.415zM576.773 202.945a6.07 5.438 77.204 01.226 2.492 6.26 5.608 77.204 01-.246 2.476 11.95 10.706 77.204 01.02-4.968zM576.131 193.041a6 5.375 77.204 01.451 2.472 6.31 5.653 77.204 01-.012 2.495 6 5.375 77.204 01-.451-2.472 6.38 5.716 77.204 01.012-2.495zM575.754 184.516a11.93 10.688 85.372 01.073 5.01 6.47 5.796 85.372 01-.266-2.506 6.31 5.653 85.372 01.193-2.504z" fill="#263238"/></svg>