<svg xmlns="http://www.w3.org/2000/svg" height="586.253" width="605.067"><path d="M66.233 223.123h166.953V111.336H66.233z" fill="#fff"/><path d="M233.187 223.123s-.016-.7-.026-2.035l-.026-5.897-.06-22.483c-.031-19.421-.075-47.339-.127-81.372l.239.239-166.941.06h-.013l.299-.299-.025 111.785-.274-.273 120.28.135 34.364.074c3.987.014 7.055.026 9.14.032l2.36.018c.532.005.81.016.81.016s-.256.01-.778.016l-2.329.016-9.085.033-34.303.073-120.46.135h-.273v-.275l-.026-111.785v-.3h.313c62.9.024 120.937.044 166.94.06h.24v.24l-.126 81.52-.06 22.429-.027 5.855c-.009 1.317-.026 1.982-.026 1.982" fill="#e3e3e2"/><path d="M66.233 121.312c0-.165 37.346-.3 83.404-.3 46.074 0 83.412.135 83.412.3 0 .165-37.338.299-83.412.299-46.058 0-83.404-.134-83.404-.299" fill="#e3e3e2"/><path d="M71.482 117.617a1.338 1.338 0 11-.001-2.675 1.338 1.338 0 010 2.675M76.067 117.617a1.338 1.338 0 110-2.676 1.338 1.338 0 010 2.676M80.586 117.617a1.338 1.338 0 11-.001-2.675 1.338 1.338 0 01.001 2.675" fill="#f9f9f9"/><path d="M125.12 177.504H80.587v-44.535h44.535v44.535M210.292 145.557c0 .166-17.37.3-38.79.3-21.429 0-38.795-.134-38.795-.3 0-.165 17.366-.3 38.794-.3 21.422 0 38.791.135 38.791.3M210.292 153.833c0 .166-17.37.299-38.79.299-21.429 0-38.795-.133-38.795-.299 0-.165 17.366-.3 38.794-.3 21.422 0 38.791.135 38.791.3M210.292 162.11c0 .165-17.37.298-38.79.298-21.429 0-38.795-.133-38.795-.299 0-.165 17.366-.3 38.794-.3 21.422 0 38.791.135 38.791.3M178.561 170.385c0 .042-.641.08-1.801.116-1.268.026-2.921.058-4.913.095-4.15.055-9.882.088-16.211.088-6.333 0-12.064-.033-16.213-.088-1.994-.037-3.647-.07-4.914-.095-1.16-.036-1.802-.074-1.802-.116 0-.041.642-.081 1.802-.117l4.914-.095c4.149-.054 9.88-.086 16.213-.086 6.33 0 12.061.032 16.21.086l4.914.095c1.16.036 1.801.076 1.801.117M104.302 213.448h-20.93V192.52h20.93v20.928M142.257 213.448H121.33V192.52h20.928v20.928M180.215 213.448h-20.931V192.52h20.93v20.928M218.17 213.448H197.24V192.52h20.928v20.928M537.407 139.625s-.164.747-.914 1.888c-.734 1.116-2.205 2.632-4.577 3.352-1.172.348-2.55.5-3.977.234-1.415-.271-2.9-.88-4.127-1.967a8.169 8.169 0 01-1.635-1.89 8.185 8.185 0 01-1.058-2.38c-.491-1.713-.4-3.643.264-5.411.693-1.756 1.922-3.25 3.436-4.19a8.153 8.153 0 012.384-1.056 8.126 8.126 0 012.478-.302c1.64.017 3.15.562 4.382 1.31 1.236.762 2.154 1.799 2.79 2.843 1.275 2.125 1.347 4.236 1.143 5.557-.21 1.348-.59 2.012-.59 2.012-.057-.017.254-.71.403-2.034a8.447 8.447 0 00-1.249-5.356c-.627-.99-1.52-1.968-2.71-2.679-1.182-.699-2.623-1.204-4.178-1.207a7.725 7.725 0 00-2.345.304c-.783.21-1.551.547-2.252 1.01-1.428.893-2.582 2.304-3.239 3.962-.625 1.671-.717 3.49-.257 5.111.209.815.55 1.579.99 2.259a7.745 7.745 0 001.536 1.798c1.155 1.042 2.562 1.634 3.907 1.91 1.359.272 2.676.146 3.808-.167a8.429 8.429 0 004.519-3.132c.778-1.081 1.013-1.804 1.068-1.779" fill="#e3e3e2"/><path d="M545.373 147.67c-.003-.008.096 0 .296.025l.896.112 3.536.474-.084.048 2.796-7.378.046.146c-1.202-.8-2.539-1.688-3.971-2.638l-.07-.047.008-.087a19.35 19.35 0 00-.145-5.102l-.016-.095.079-.059 3.816-2.86-.055.208-3.216-7.204.21.11c-1.446.289-3.04.608-4.675.933l-.12.024-.076-.095a19.193 19.193 0 00-3.691-3.504l-.104-.075.019-.126c.21-1.462.445-3.075.682-4.718l.136.234-7.366-2.828.269-.086-2.65 3.962-.08.116-.137-.015a19.249 19.249 0 00-5.081.132l-.14.023-.085-.115-2.852-3.823.286.075-7.21 3.204.14-.268c.29 1.478.606 3.074.922 4.68l.028.143-.113.093a19.093 19.093 0 00-3.5 3.675h-.001v.002l-.233.099-.004-.001-.011-.001-.019-.003-.036-.005-.074-.011-.15-.021-.297-.043-.592-.088-1.184-.172c-.785-.116-1.57-.23-2.35-.346l.26-.152-2.84 7.363-.089-.287 3.958 2.656.12.082-.015.142c-.187 1.71-.14 3.423.124 5.08l.023.142-.115.085c-1.295.963-2.568 1.91-3.825 2.847l.073-.28c1.09 2.462 2.153 4.87 3.19 7.214l-.246-.128 4.68-.917.13-.025.082.102a19.145 19.145 0 003.679 3.514l.102.076-.017.125c-.24 1.617-.472 3.184-.697 4.715l-.127-.218 7.356 2.854-.221.07 2.664-3.953.06-.088.104.012c1.81.2 3.51.132 5.098-.115l.096-.014.058.077c1.03 1.393 1.958 2.648 2.837 3.833l-.173-.045 7.226-3.168-.062.12c-.358-1.87-.65-3.405-.894-4.684l-.009-.047.036-.029a20.004 20.004 0 002.783-2.683l.61-.738c.135-.172.202-.25.205-.243.003.005-.056.097-.172.267-.124.173-.311.432-.58.765a18.691 18.691 0 01-2.746 2.753l.027-.076.953 4.674.018.085-.08.035-7.2 3.232-.103.046-.07-.092c-.885-1.18-1.82-2.429-2.862-3.814l.153.063a19.59 19.59 0 01-5.186.145l.162-.077-2.644 3.966-.082.124-.14-.053-7.368-2.824-.15-.057.023-.16.68-4.719.085.201a19.554 19.554 0 01-3.77-3.582l.21.077-4.677.93-.176.034-.073-.164-3.206-7.208-.074-.17.148-.11 3.82-2.852-.09.225a19.512 19.512 0 01-.133-5.205l.103.223-3.96-2.652-.16-.107.069-.18c.93-2.42 1.876-4.876 2.834-7.364l.071-.18.19.027 2.353.344 1.184.173.592.087.297.042.15.022.074.012.036.005h.019l.01.004h.005c-.464.196-.128.054-.231.097v-.002a19.59 19.59 0 013.59-3.768l-.085.236c-.317-1.607-.63-3.203-.923-4.68l-.037-.19.176-.078 7.215-3.196.174-.077.114.153 2.845 3.827-.225-.092a19.61 19.61 0 015.205-.127l-.216.1 2.659-3.956.1-.15.168.065 7.36 2.846.161.063-.025.17-.696 4.717-.084-.2a19.524 19.524 0 013.758 3.592l-.194-.071 4.681-.915.15-.029.06.14 3.185 7.219.056.126-.111.083-3.833 2.839.061-.154c.284 1.814.296 3.567.113 5.184l-.061-.133c1.423.961 2.752 1.861 3.948 2.67l.083.055-.035.091-2.881 7.347-.023.058-.061-.009c-1.515-.238-2.683-.424-3.492-.552l-.903-.15a2.32 2.32 0 01-.31-.063" fill="#e3e3e2"/><path d="M580.72 118.55a7.02 7.02 0 00-4.027-9.078 7.023 7.023 0 104.027 9.077zm6.61 6.673a15.958 15.958 0 01-2.943 3.09l.766 3.883-5.985 2.653-2.363-3.172c-1.396.223-2.829.264-4.266.107l-2.204 3.287-6.108-2.356.572-3.912a16.037 16.037 0 01-3.09-2.944l-3.882.765-2.655-5.983 3.172-2.364a16.067 16.067 0 01-.107-4.266l-3.285-2.203 2.355-6.11 3.913.573a16.036 16.036 0 012.943-3.091l-.766-3.883 5.984-2.653 2.364 3.172a16.064 16.064 0 014.267-.107l2.203-3.284 6.108 2.354-.572 3.913a16.005 16.005 0 013.09 2.944l3.883-.767 2.655 5.984-3.174 2.364c.223 1.395.264 2.828.107 4.267l3.285 2.203-2.354 6.108-3.914-.572M551.181 78.29c2.187-5.675-.638-12.05-6.314-14.237-5.676-2.188-12.05.64-14.238 6.315-2.188 5.676.642 12.05 6.315 14.237 5.676 2.187 12.05-.64 14.237-6.316zm10.364 10.465a25.169 25.169 0 01-4.614 4.846l1.201 6.087-9.384 4.163-3.707-4.976a25.11 25.11 0 01-6.692.169l-3.454 5.152-9.578-3.693.896-6.136a25.098 25.098 0 01-4.846-4.616l-6.088 1.201-4.163-9.383 4.976-3.709a25.153 25.153 0 01-.168-6.69l-5.153-3.453 3.693-9.581 6.137.899a25.14 25.14 0 014.615-4.848l-1.201-6.088 9.384-4.163 3.706 4.977a25.167 25.167 0 016.692-.169l3.454-5.15 9.578 3.69-.896 6.139a25.054 25.054 0 014.847 4.614l6.088-1.201 4.163 9.384-4.976 3.707c.349 2.188.413 4.436.168 6.69l5.152 3.455-3.692 9.577-6.138-.894" fill="#e3e3e2" fill-rule="evenodd"/><path d="M467.421 37.928c-.022-.024.228-.305.698-.793l2.026-2.036a560.868 560.868 0 016.804-6.586l.062-.057.003.344a573.072 573.072 0 01-6.852-6.459l-2.038-1.993c-.473-.479-.725-.755-.702-.779.02-.024.314.207.826.644l2.139 1.884c1.792 1.607 4.25 3.851 6.945 6.356l.184.171-.181.173-.061.059a573.618 573.618 0 01-6.899 6.485l-2.13 1.927c-.509.447-.802.683-.823.66M446.61 19.57c.023.023-.227.305-.698.793l-2.025 2.036a572.736 572.736 0 01-6.806 6.585l-.06.057-.003-.342a575.158 575.158 0 016.852 6.456l2.038 1.994c.473.479.725.755.702.779-.021.023-.314-.208-.826-.644l-2.139-1.884a556.284 556.284 0 01-6.945-6.356l-.186-.17.183-.174.061-.059a572.37 572.37 0 016.9-6.485l2.128-1.927c.51-.448.803-.682.824-.66M451.952 42.252c-.121-.047 2.063-6.187 4.877-13.713 2.818-7.528 5.199-13.592 5.32-13.547.122.045-2.062 6.184-4.878 13.713-2.816 7.527-5.198 13.592-5.319 13.547" fill="#e3e3e2"/><path d="M491.07 55.39s-.015-.358-.022-1.027l-.023-2.954-.05-11.186c-.026-9.631-.06-23.395-.102-39.99l.196.196-67.686.04h-.005l.234-.236-.024 55.156-.21-.21 48.88.105 13.853.056 3.677.025c.41.004.723.01.951.012.215.004.33.012.33.012s-.098.008-.305.012l-.929.012-3.635.026c-3.21.012-7.882.03-13.808.056l-49.014.105h-.211v-.21L423.143.232v-.236h.24l67.686.039h.198l-.001.197-.103 40.112c-.02 4.796-.039 8.56-.05 11.143l-.022 2.916c-.007.657-.021.985-.021.985" fill="#e3e3e2"/><path d="M491.6 8.417c0 .131-15.28.236-34.124.236-18.852 0-34.128-.105-34.128-.236 0-.13 15.276-.236 34.128-.236 18.844 0 34.124.106 34.124.236M428.901 4.392a.914.914 0 01-.91.916.915.915 0 010-1.83c.502 0 .91.409.91.914M432.223 4.392a.913.913 0 01-.91.916.914.914 0 01-.912-.916.912.912 0 111.821 0M435.547 4.392a.914.914 0 01-.912.916.914.914 0 01-.912-.916.913.913 0 111.824 0" fill="#e3e3e2"/><path d="M203.704 90.41h156.51V26.835h-156.51z" fill="#fff"/><path d="M360.215 90.41s-.011-.391-.018-1.135l-.018-3.3c-.011-2.9-.024-7.162-.043-12.651-.023-10.972-.055-26.844-.093-46.487l.172.174-156.5.073h-.011l.248-.247-.01 63.572-.238-.237 112.216.112 32.552.065 8.713.031 2.255.015c.51.005.775.014.775.014s-.246.011-.744.015l-2.228.015-8.664.03-32.498.066-112.377.112h-.237v-.238c-.003-19.82-.005-41.31-.01-63.572v-.248h.257l156.5.074h.176v.174l-.094 46.592c-.02 5.472-.033 9.722-.042 12.612-.01 1.431-.016 2.522-.02 3.267-.007.735-.02 1.101-.02 1.101" fill="#e3e3e2"/><path d="M203.861 35.41c0-.137 34.983-.247 78.128-.247 43.159 0 78.135.11 78.135.248 0 .136-34.976.248-78.135.248-43.145 0-78.128-.112-78.128-.248" fill="#e3e3e2"/><path d="M209.277 32.712a1.137 1.137 0 11.002-2.274 1.137 1.137 0 01-.002 2.274M213.17 32.712a1.137 1.137 0 11.001-2.274 1.137 1.137 0 01-.002 2.274M217.005 32.712a1.137 1.137 0 11.002-2.274 1.137 1.137 0 01-.002 2.274" fill="#fbfcfc"/><path d="M254.81 83.547h-37.805V45.743h37.804v37.804M349.387 55.873c0 .138-19.454.25-43.446.25-23.998 0-43.448-.112-43.448-.25 0-.136 19.45-.248 43.448-.248 23.992 0 43.446.112 43.446.248M349.387 63.575c0 .137-19.454.248-43.446.248-23.998 0-43.448-.111-43.448-.248 0-.136 19.45-.248 43.448-.248 23.992 0 43.446.112 43.446.248M318.43 71.276c0 .017-.195.035-.567.05l-1.631.047-5.993.079c-5.122.017-12.083.044-19.776.072-7.695-.028-14.658-.055-19.778-.072l-5.994-.079c-.664-.02-1.203-.034-1.63-.046-.373-.016-.568-.034-.568-.051 0-.017.195-.033.568-.05.427-.011.966-.027 1.63-.046l5.994-.079c5.12-.02 12.083-.045 19.778-.072 7.693.027 14.654.052 19.776.072l5.993.079 1.63.047c.373.016.569.032.569.049" fill="#e3e3e2"/><path d="M605.07 549.564c0 .19-133.047.347-297.134.347-164.144 0-297.164-.157-297.164-.347 0-.192 133.02-.348 297.164-.348 164.087 0 297.135.156 297.135.348" fill="#1d2a30"/><path d="M554.807 288.87H367.968V136.656h186.839V288.87" fill="#e3e3e2"/><path d="M541.521 298.545H354.683V146.333H541.52v152.212" fill="#eee"/><path d="M528.203 313.201H336.379V156.928h191.824v156.273" fill="#fff"/><path d="M528.203 313.203s-.022-.991-.032-2.882l-.034-8.344c-.017-7.308-.041-18.014-.074-31.665l-.15-113.383.29.29-191.808.057h-.016l.346-.347c-.012 56.51-.025 109.87-.037 156.272l-.31-.308 138.614.155 39.223.083c4.538.014 8.025.028 10.392.036l2.677.018c.603.005.919.018.919.018s-.292.012-.883.017l-2.644.019-10.33.036c-9.071.02-22.333.046-39.154.082l-138.813.156h-.311v-.312l-.036-156.272v-.348h.363l191.808.058h.29v.29l-.15 113.564c-.032 13.623-.059 24.308-.075 31.601l-.033 8.29c-.011 1.869-.032 2.818-.032 2.818" fill="#1d2a30"/><path d="M359.759 179.51l-2.059.755 2.059.748v.774l-2.943-1.119v-.804l2.943-1.12v.767M364.616 178.101v4.33h-1.003v-1.775h-1.965v1.775h-1.003v-4.33h1.003v1.707h1.965v-1.707h1.003M366.535 178.917h-1.386v-.816h3.774v.816h-1.386v3.514h-1.002v-3.514M373.396 182.43l-.007-2.597-1.273 2.14h-.452l-1.268-2.084v2.542h-.94v-4.33h.829l1.62 2.69 1.596-2.69h.823l.012 4.33h-.94M375.356 178.101h1.003v3.512h2.17v.818h-3.173v-4.33M381.901 179.864v.804l-2.942 1.119v-.774l2.058-.748-2.058-.754v-.767l2.942 1.12M358.01 298.02l-2.06.753 2.06.75v.773l-2.945-1.12v-.804l2.946-1.12v.768M360.22 295.73h.86l-2.04 5.827h-.861l2.041-5.826M365.29 296.61v4.329h-1.003v-1.775h-1.966v1.775h-1.002v-4.33h1.002v1.707h1.966v-1.707h1.002M367.208 297.425h-1.385v-.816h3.772v.816h-1.386v3.514h-1.001v-3.514M374.07 300.939l-.008-2.598-1.273 2.139h-.452l-1.268-2.083v2.542h-.94v-4.33h.83l1.62 2.691 1.595-2.69h.823l.012 4.329h-.94M376.03 296.61h1.003v3.513h2.171v.816h-3.173v-4.33M382.576 298.372v.804l-2.943 1.12v-.773l2.059-.75-2.059-.753v-.768l2.943 1.12" fill="#f03658"/><path d="M373.343 191.363l-2.195.846 2.195.848v.514l-2.771-1.095v-.532l2.77-1.095v.514M378.127 190.045v4.33h-.619v-1.93h-2.485v1.93h-.619v-4.33h.619v1.862h2.485v-1.862h.619M382.563 193.836v.539h-3.142v-4.33h3.055v.538h-2.436v1.33h2.17v.526h-2.17v1.397h2.523M386.103 192.797l-.935-2.121-.933 2.121zm.216.495h-2.302l-.474 1.083h-.639l1.961-4.33h.612l1.967 4.33h-.65l-.475-1.083M389.87 193.836c1.069 0 1.755-.656 1.755-1.627 0-.97-.686-1.626-1.754-1.626h-1.17v3.253zm-1.787-3.79h1.824c1.392 0 2.338.877 2.338 2.163 0 1.287-.946 2.166-2.338 2.166h-1.824v-4.33M395.721 191.944v.532l-2.77 1.095v-.514l2.202-.848-2.202-.846v-.514l2.77 1.095M373.343 206.19l-2.195.849 2.195.848v.512l-2.771-1.095v-.53l2.77-1.097v.514M375.264 205.412h-1.485v-.539h3.581v.539h-1.484v3.79h-.612v-3.79M378.03 204.873h.62v4.33h-.62v-4.33M380.805 205.412h-1.484v-.539h3.58v.539h-1.484v3.79h-.612v-3.79M383.572 204.873h.619v3.792h2.344v.538h-2.963v-4.33M390.384 208.665v.538h-3.141v-4.33h3.054v.539h-2.436v1.33h2.171v.526h-2.17v1.397h2.522M393.917 206.773v.531l-2.77 1.095v-.512l2.201-.848-2.201-.848v-.514l2.77 1.096M396.64 204.873h.619v3.792h2.344v.538h-2.963v-4.33M402.685 207.564c0-.699-.47-1.15-1.101-1.15-.63 0-1.107.451-1.107 1.15 0 .699.476 1.157 1.107 1.157.63 0 1.101-.458 1.101-1.157zm-2.806 0c0-.977.722-1.67 1.705-1.67.984 0 1.701.693 1.701 1.67s-.717 1.676-1.701 1.676c-.983 0-1.705-.699-1.705-1.676M405.867 205.893v.576l-.138-.007c-.636 0-1.032.391-1.032 1.108v1.632h-.593v-3.277h.568v.55c.21-.383.619-.582 1.195-.582M406.852 207.336h2.104c-.063-.552-.476-.941-1.052-.941-.57 0-.99.384-1.052.941zm2.66.427h-2.66c.076.574.539.958 1.188.958.384 0 .705-.13.947-.396l.328.383c-.298.347-.75.532-1.294.532-1.057 0-1.762-.699-1.762-1.676 0-.97.698-1.67 1.645-1.67.947 0 1.62.68 1.62 1.689l-.012.18M415.785 207.317v1.886h-.593v-1.818c0-.644-.31-.958-.848-.958-.593 0-.983.377-.983 1.088v1.688h-.593v-1.818c0-.644-.31-.958-.848-.958-.593 0-.983.377-.983 1.088v1.688h-.594v-3.278h.569v.488c.236-.333.637-.52 1.133-.52.5 0 .92.199 1.138.608.248-.372.704-.608 1.26-.608.798 0 1.342.459 1.342 1.424M418.536 205.925h.593v3.278h-.593zm-.105-1.014a.39.39 0 01.401-.39c.23 0 .403.167.403.378a.389.389 0 01-.403.396.387.387 0 01-.401-.384M423.055 207.564c0-.692-.476-1.15-1.107-1.15-.624 0-1.101.458-1.101 1.15 0 .699.477 1.157 1.101 1.157.63 0 1.107-.458 1.107-1.157zm.601 0c0 1.008-.7 1.676-1.659 1.676-.462 0-.872-.18-1.144-.532v1.695h-.593v-4.478h.568v.52c.267-.365.688-.552 1.17-.552.958 0 1.658.668 1.658 1.671M424.059 208.857l.248-.47c.278.198.724.34 1.149.34.55 0 .78-.167.78-.446 0-.736-2.072-.098-2.072-1.404 0-.588.527-.984 1.368-.984.425 0 .908.112 1.192.298l-.252.47a1.713 1.713 0 00-.947-.26c-.52 0-.773.192-.773.452 0 .772 2.077.143 2.077 1.416 0 .594-.544.971-1.416.971-.544 0-1.082-.167-1.354-.383M430.625 205.925v3.278h-.562v-.495c-.242.341-.65.532-1.115.532-.845 0-1.408-.463-1.408-1.428v-1.887h.593v1.819c0 .643.32.964.884.964.619 0 1.015-.383 1.015-1.088v-1.695h.593M437.195 207.317v1.886h-.594v-1.818c0-.644-.309-.958-.848-.958-.593 0-.982.377-.982 1.088v1.688h-.595v-1.818c0-.644-.308-.958-.848-.958-.593 0-.983.377-.983 1.088v1.688h-.593v-3.278h.57v.488c.234-.333.637-.52 1.131-.52.5 0 .922.199 1.139.608.247-.372.704-.608 1.26-.608.799 0 1.343.459 1.343 1.424M442.567 206.19l-2.195.849 2.195.848v.512l-2.771-1.095v-.53l2.77-1.097v.514M444.847 203.996h.537l-2.041 5.825h-.538l2.042-5.825M446.847 205.412h-1.484v-.539h3.58v.539h-1.484v3.79h-.612v-3.79M449.615 204.873h.618v4.33h-.618v-4.33M452.39 205.412h-1.485v-.539h3.582v.539H453v3.79h-.612v-3.79M455.157 204.873h.618v3.792h2.344v.538h-2.962v-4.33M461.97 208.665v.538h-3.143v-4.33h3.054v.539h-2.436v1.33h2.171v.526h-2.17v1.397h2.523M465.501 206.773v.531l-2.77 1.095v-.512l2.202-.848-2.202-.848v-.514l2.77 1.096M373.343 221.019l-2.195.848 2.195.848v.512l-2.771-1.095v-.53l2.77-1.097v.514M375.623 218.824h.537l-2.041 5.825h-.538l2.042-5.825M380.301 219.701v4.33h-.618v-1.93h-2.486v1.93h-.618v-4.33h.618v1.862h2.486V219.7h.618M384.737 223.493v.538h-3.141v-4.33h3.055v.539h-2.436v1.33h2.169v.526h-2.17v1.397h2.523M388.276 222.453l-.933-2.12-.934 2.12zm.217.495h-2.301l-.476 1.083h-.637l1.961-4.33h.612l1.967 4.33h-.65l-.476-1.083M392.045 223.493c1.07 0 1.758-.656 1.758-1.626 0-.972-.688-1.627-1.758-1.627h-1.168v3.253zm-1.786-3.792h1.824c1.392 0 2.337.879 2.337 2.166 0 1.286-.945 2.164-2.337 2.164h-1.824v-4.33M397.896 221.601v.531l-2.77 1.095v-.512l2.2-.848-2.2-.848v-.514l2.77 1.096M361.857 233.89l-2.196.846 2.196.847v.513l-2.77-1.093v-.534l2.77-1.094v.514M366.016 235.681c0-.5-.37-.722-1.057-.722h-1.422v1.44h1.422c.688 0 1.057-.216 1.057-.718zm-2.479-2.609v1.385h1.268c.631 0 .99-.234.99-.692 0-.458-.359-.693-.99-.693zm3.104 2.659c0 .742-.562 1.169-1.657 1.169h-2.065v-4.33h1.941c.996 0 1.552.422 1.552 1.12 0 .471-.241.798-.581.966.489.135.81.5.81 1.075M371.225 234.736c0-.959-.717-1.664-1.676-1.664-.97 0-1.688.705-1.688 1.664s.718 1.663 1.688 1.663c.959 0 1.676-.704 1.676-1.663zm-3.982 0c0-1.268.976-2.215 2.306-2.215 1.319 0 2.295.94 2.295 2.215 0 1.273-.976 2.213-2.295 2.213-1.33 0-2.306-.946-2.306-2.213M374.573 236.363c1.07 0 1.755-.656 1.755-1.627 0-.97-.685-1.627-1.755-1.627h-1.169v3.254zm-1.788-3.792h1.824c1.392 0 2.339.878 2.339 2.165s-.947 2.164-2.339 2.164h-1.824v-4.33M379.361 235.404v1.496h-.613v-1.508l-1.719-2.821h.662l1.385 2.282 1.392-2.282h.612l-1.719 2.833M384.236 234.47v.533l-2.77 1.093v-.513l2.2-.847-2.2-.847v-.514l2.77 1.094M361.857 248.717l-2.196.847 2.196.848v.513l-2.77-1.094v-.532l2.77-1.095v.513M366.641 247.4v4.33h-.618v-1.93h-2.486v1.93h-.618v-4.33h.618v1.861h2.486V247.4h.618M368.925 247.4v4.33h-.612v-3.791h-.978v-.539h1.59M372.756 249.299v.532l-2.77 1.094v-.513l2.2-.848-2.2-.847v-.513l2.77 1.095M375.535 247.4h.457v3.933h2.424v.396h-2.881V247.4M381.567 250.103c0-.762-.515-1.268-1.207-1.268-.693 0-1.21.506-1.21 1.268 0 .761.517 1.268 1.21 1.268.692 0 1.207-.507 1.207-1.268zm-2.863 0c0-.966.704-1.652 1.656-1.652.953 0 1.652.686 1.652 1.652 0 .964-.699 1.657-1.652 1.657-.952 0-1.656-.693-1.656-1.657M384.544 248.45v.429l-.107-.007c-.678 0-1.093.433-1.093 1.2v1.657h-.44v-3.253h.421v.637c.204-.433.618-.663 1.219-.663M385.415 249.91h2.306c-.056-.635-.52-1.08-1.157-1.08-.63 0-1.095.445-1.15 1.08zm2.721.329h-2.721c.049.68.569 1.132 1.28 1.132.396 0 .748-.143.996-.427l.246.284c-.29.347-.741.532-1.254.532-1.016 0-1.708-.693-1.708-1.657 0-.966.674-1.652 1.589-1.652.916 0 1.577.674 1.577 1.652l-.005.136M394.403 249.843v1.886h-.439v-1.842c0-.687-.347-1.04-.933-1.04-.668 0-1.09.433-1.09 1.176v1.706h-.438v-1.842c0-.687-.346-1.04-.94-1.04-.663 0-1.088.433-1.088 1.176v1.706h-.44v-3.253h.42v.593c.229-.389.649-.618 1.194-.618.538 0 .958.229 1.156.686.236-.42.699-.686 1.287-.686.79 0 1.31.458 1.31 1.392M397.208 248.476h.439v3.253h-.439zm-.1-1.027c0-.168.143-.309.323-.309a.312.312 0 110 .625.319.319 0 01-.323-.316M401.728 250.103c0-.755-.525-1.268-1.212-1.268-.692 0-1.212.513-1.212 1.268 0 .761.52 1.268 1.212 1.268.687 0 1.212-.507 1.212-1.268zm.439 0c0 .989-.692 1.657-1.619 1.657-.521 0-.967-.223-1.237-.644v1.813h-.44v-4.453h.42v.643c.266-.432.717-.668 1.257-.668.927 0 1.619.668 1.619 1.652M402.607 251.359l.198-.347c.26.204.699.365 1.158.365.618 0 .87-.21.87-.533 0-.847-2.108-.179-2.108-1.465 0-.532.458-.928 1.287-.928.421 0 .877.117 1.15.304l-.191.352a1.674 1.674 0 00-.959-.278c-.587 0-.848.228-.848.538 0 .878 2.11.216 2.11 1.466 0 .562-.495.927-1.342.927-.539 0-1.057-.173-1.325-.401M409.012 248.476v3.253h-.42v-.593c-.23.395-.65.624-1.17.624-.827 0-1.373-.464-1.373-1.397v-1.887h.44v1.843c0 .693.358 1.045.976 1.045.682 0 1.108-.439 1.108-1.181v-1.707h.439M415.607 249.843v1.886h-.439v-1.842c0-.687-.345-1.04-.933-1.04-.668 0-1.088.433-1.088 1.176v1.706h-.44v-1.842c0-.687-.347-1.04-.94-1.04-.663 0-1.09.433-1.09 1.176v1.706h-.438v-3.253h.421v.593c.228-.389.65-.618 1.193-.618.538 0 .959.229 1.156.686.236-.42.7-.686 1.287-.686.792 0 1.31.458 1.31 1.392M420.948 250.103c0-.762-.519-1.268-1.205-1.268-.694 0-1.214.506-1.214 1.268 0 .761.52 1.268 1.214 1.268.686 0 1.205-.507 1.205-1.268zm.433-2.963v4.59h-.421v-.645c-.265.44-.717.675-1.255.675-.929 0-1.621-.675-1.621-1.657 0-.984.692-1.652 1.621-1.652.519 0 .964.222 1.236.644v-1.955h.44M425.139 250.103c0-.762-.514-1.268-1.206-1.268-.693 0-1.214.506-1.214 1.268 0 .761.521 1.268 1.214 1.268.692 0 1.206-.507 1.206-1.268zm-2.866 0c0-.966.707-1.652 1.66-1.652.951 0 1.651.686 1.651 1.652 0 .964-.7 1.657-1.65 1.657-.954 0-1.66-.693-1.66-1.657M426.476 247.14h.439v4.59h-.439v-4.59M430.673 250.103c0-.762-.513-1.268-1.206-1.268-.694 0-1.211.506-1.211 1.268 0 .761.517 1.268 1.21 1.268.694 0 1.207-.507 1.207-1.268zm-2.862 0c0-.966.704-1.652 1.656-1.652.953 0 1.652.686 1.652 1.652 0 .964-.699 1.657-1.652 1.657-.952 0-1.656-.693-1.656-1.657M433.65 248.45v.429l-.105-.007c-.68 0-1.094.433-1.094 1.2v1.657h-.44v-3.253h.421v.637c.204-.433.617-.663 1.219-.663M435.657 251.359l.198-.347c.258.204.697.365 1.156.365.618 0 .872-.21.872-.533 0-.847-2.11-.179-2.11-1.465 0-.532.458-.928 1.287-.928.421 0 .877.117 1.15.304l-.191.352a1.671 1.671 0 00-.959-.278c-.588 0-.847.228-.847.538 0 .878 2.11.216 2.11 1.466 0 .562-.496.927-1.343.927-.539 0-1.057-.173-1.323-.401M439.13 248.476h.438v3.253h-.439zm-.1-1.027c0-.168.142-.309.322-.309.18 0 .321.136.321.304a.315.315 0 01-.321.321.318.318 0 01-.321-.316M442.504 251.53c-.173.155-.433.23-.685.23-.612 0-.954-.347-.954-.947v-1.966h-.581v-.371h.581v-.71h.44v.71h.99v.37h-.99v1.943c0 .383.198.594.563.594a.72.72 0 00.481-.167l.155.315M446.936 250.752v-.532h-1.021c-.631 0-.835.248-.835.581 0 .378.303.612.821.612.495 0 .862-.234 1.035-.661zm.439-1.039v2.016h-.422v-.506c-.197.333-.58.537-1.12.537-.734 0-1.186-.383-1.186-.947 0-.5.321-.921 1.254-.921h1.035v-.197c0-.558-.316-.86-.923-.86-.42 0-.816.148-1.081.384l-.199-.328c.327-.279.811-.44 1.323-.44.841 0 1.319.421 1.319 1.262M453.932 249.843v1.886h-.439v-1.842c0-.687-.346-1.04-.934-1.04-.668 0-1.088.433-1.088 1.176v1.706h-.439v-1.842c0-.687-.347-1.04-.94-1.04-.663 0-1.09.433-1.09 1.176v1.706h-.44v-3.253h.422v.593c.23-.389.65-.618 1.193-.618.538 0 .959.229 1.156.686.236-.42.7-.686 1.287-.686.792 0 1.312.458 1.312 1.392M455.243 249.91h2.306c-.056-.635-.52-1.08-1.157-1.08-.63 0-1.095.445-1.15 1.08zm2.721.329h-2.721c.049.68.569 1.132 1.28 1.132.396 0 .748-.143.996-.427l.248.284c-.292.347-.743.532-1.256.532-1.016 0-1.708-.693-1.708-1.657 0-.966.674-1.652 1.589-1.652.916 0 1.577.674 1.577 1.652l-.005.136M460.576 251.53c-.173.155-.432.23-.687.23-.613 0-.952-.347-.952-.947v-1.966h-.581v-.371h.581v-.71h.439v.71h.99v.37h-.99v1.943c0 .383.197.594.563.594a.726.726 0 00.482-.167l.155.315M461.81 251.42c0 .105-.025.185-.086.359l-.26.853h-.297l.212-.897c-.131-.036-.224-.154-.224-.315 0-.192.142-.335.328-.335.192 0 .328.15.328.335M464.035 250.103c0-.971.705-1.652 1.677-1.652.55 0 1.013.217 1.273.644l-.328.222c-.221-.328-.568-.482-.945-.482-.712 0-1.232.506-1.232 1.268 0 .766.52 1.268 1.232 1.268.377 0 .724-.148.945-.478l.328.223c-.26.421-.724.644-1.273.644-.972 0-1.677-.687-1.677-1.657M470.321 250.103c0-.762-.513-1.268-1.206-1.268-.692 0-1.214.506-1.214 1.268 0 .761.522 1.268 1.214 1.268.693 0 1.206-.507 1.206-1.268zm-2.865 0c0-.966.705-1.652 1.659-1.652.952 0 1.652.686 1.652 1.652 0 .964-.7 1.657-1.652 1.657-.954 0-1.659-.693-1.659-1.657M474.653 249.843v1.886h-.438v-1.842c0-.687-.36-1.04-.978-1.04-.698 0-1.137.433-1.137 1.176v1.706h-.44v-3.253h.42v.6c.236-.396.675-.625 1.237-.625.791 0 1.336.458 1.336 1.392M475.39 251.359l.2-.347c.258.204.697.365 1.155.365.619 0 .872-.21.872-.533 0-.847-2.109-.179-2.109-1.465 0-.532.457-.928 1.287-.928.42 0 .877.117 1.149.304l-.19.352a1.671 1.671 0 00-.96-.278c-.587 0-.847.228-.847.538 0 .878 2.109.216 2.109 1.466 0 .562-.495.927-1.341.927-.539 0-1.058-.173-1.324-.401M478.975 249.91h2.306c-.056-.635-.52-1.08-1.157-1.08-.63 0-1.095.445-1.15 1.08zm2.721.329h-2.721c.049.68.569 1.132 1.28 1.132.396 0 .748-.143.996-.427l.246.284c-.29.347-.741.532-1.254.532-1.016 0-1.708-.693-1.708-1.657 0-.966.674-1.652 1.589-1.652.916 0 1.577.674 1.577 1.652l-.005.136M482.267 250.103c0-.971.705-1.652 1.676-1.652.55 0 1.014.217 1.273.644l-.328.222c-.221-.328-.567-.482-.945-.482-.711 0-1.231.506-1.231 1.268 0 .766.52 1.268 1.23 1.268.38 0 .725-.148.946-.478l.328.223c-.259.421-.723.644-1.273.644-.971 0-1.676-.687-1.676-1.657M487.824 251.53c-.173.155-.433.23-.687.23-.613 0-.953-.347-.953-.947v-1.966h-.58v-.371h.58v-.71h.439v.71h.989v.37h-.99v1.943c0 .383.2.594.565.594a.72.72 0 00.481-.167l.156.315M488.613 249.91h2.307c-.055-.635-.519-1.08-1.156-1.08-.63 0-1.095.445-1.15 1.08zm2.722.329h-2.722c.05.68.57 1.132 1.28 1.132.396 0 .75-.143.996-.427l.248.284c-.29.347-.742.532-1.256.532-1.013 0-1.706-.693-1.706-1.657 0-.966.673-1.652 1.589-1.652.915 0 1.577.674 1.577 1.652l-.007.136M493.947 251.53c-.174.155-.434.23-.686.23-.612 0-.953-.347-.953-.947v-1.966h-.581v-.371h.581v-.71h.44v.71h.99v.37h-.99v1.943c0 .383.197.594.563.594a.72.72 0 00.481-.167l.155.315M497.673 248.476v3.253h-.42v-.593c-.229.395-.649.624-1.169.624-.828 0-1.372-.464-1.372-1.397v-1.887h.439v1.843c0 .693.357 1.045.976 1.045.681 0 1.108-.439 1.108-1.181v-1.707h.438M499.01 249.91h2.309c-.056-.635-.522-1.08-1.159-1.08-.63 0-1.095.445-1.15 1.08zm2.722.329h-2.721c.049.68.569 1.132 1.28 1.132.396 0 .749-.143.996-.427l.248.284c-.292.347-.743.532-1.256.532-1.015 0-1.708-.693-1.708-1.657 0-.966.674-1.652 1.589-1.652.916 0 1.577.674 1.577 1.652l-.005.136M504.27 248.45v.429l-.105-.007c-.678 0-1.094.433-1.094 1.2v1.657h-.439v-3.253h.42v.637c.205-.433.619-.663 1.219-.663M361.301 258.167v-.532h-1.021c-.63 0-.835.246-.835.581 0 .377.303.612.824.612.495 0 .859-.235 1.032-.661zm.439-1.04v2.016h-.42v-.507c-.199.335-.583.537-1.12.537-.736 0-1.188-.382-1.188-.945 0-.501.321-.921 1.257-.921h1.032v-.198c0-.557-.316-.86-.921-.86-.421 0-.817.148-1.083.383l-.197-.328c.328-.277.81-.439 1.323-.439.841 0 1.317.42 1.317 1.262M365.479 257.516c0-.76-.52-1.267-1.208-1.267-.692 0-1.211.507-1.211 1.267 0 .761.519 1.268 1.21 1.268.689 0 1.209-.507 1.209-1.268zm.432-2.961v4.588h-.42v-.643c-.267.44-.719.673-1.256.673-.927 0-1.62-.673-1.62-1.657 0-.983.693-1.65 1.62-1.65.52 0 .965.222 1.237.642v-1.953h.439M367.13 255.89h.44v3.253h-.44zm-.098-1.026c0-.168.143-.31.321-.31.18 0 .322.137.322.303a.315.315 0 01-.322.322.318.318 0 01-.321-.315M371.652 257.516c0-.753-.527-1.267-1.213-1.267-.692 0-1.212.514-1.212 1.267 0 .761.52 1.268 1.212 1.268.686 0 1.213-.507 1.213-1.268zm.439 0c0 .99-.694 1.657-1.622 1.657-.518 0-.964-.222-1.237-.642v1.812h-.439v-4.452h.422v.642c.265-.433.717-.668 1.254-.668.928 0 1.622.668 1.622 1.651M372.983 255.89h.44v3.253h-.44zm-.1-1.026c0-.168.144-.31.322-.31.179 0 .322.137.322.303a.316.316 0 01-.322.322.32.32 0 01-.322-.315M374.193 258.772l.198-.347c.26.204.698.366 1.157.366.617 0 .872-.211.872-.532 0-.847-2.11-.179-2.11-1.466 0-.532.458-.928 1.287-.928.42 0 .878.118 1.15.304l-.192.352a1.658 1.658 0 00-.958-.278c-.589 0-.848.229-.848.537 0 .879 2.11.217 2.11 1.467 0 .562-.495.926-1.343.926-.537 0-1.057-.172-1.323-.401M377.339 257.516c0-.97.705-1.65 1.676-1.65.55 0 1.014.215 1.273.642l-.327.223c-.224-.328-.57-.482-.946-.482-.712 0-1.231.507-1.231 1.267 0 .767.519 1.268 1.23 1.268.377 0 .723-.148.947-.476l.327.223c-.259.42-.723.642-1.273.642-.971 0-1.676-.685-1.676-1.657M381.144 255.89h.44v3.253h-.44zm-.099-1.026c0-.168.143-.31.322-.31.18 0 .321.137.321.303a.316.316 0 01-.321.322.318.318 0 01-.322-.315M385.8 257.257v1.886h-.439V257.3c0-.687-.358-1.039-.978-1.039-.698 0-1.138.434-1.138 1.175v1.707h-.438v-3.252h.42v.6c.236-.396.674-.626 1.237-.626.792 0 1.336.458 1.336 1.392M389.587 257.436c0-.705-.52-1.187-1.238-1.187-.717 0-1.232.482-1.232 1.187 0 .705.515 1.193 1.232 1.193.718 0 1.238-.488 1.238-1.193zm.426-1.545v2.857c0 1.119-.55 1.627-1.628 1.627-.593 0-1.173-.18-1.514-.502l.224-.334c.308.278.778.445 1.28.445.821 0 1.198-.376 1.198-1.181v-.414c-.272.414-.736.631-1.268.631-.926 0-1.633-.65-1.633-1.584 0-.933.707-1.57 1.633-1.57.544 0 1.016.222 1.287.649v-.624h.421M392.97 257.325h2.306c-.055-.637-.517-1.082-1.156-1.082-.63 0-1.093.445-1.15 1.082zm2.722.328h-2.721c.049.68.569 1.131 1.28 1.131.396 0 .748-.141.996-.427l.246.286c-.289.346-.741.53-1.256.53-1.013 0-1.705-.692-1.705-1.657 0-.964.673-1.65 1.588-1.65.916 0 1.579.674 1.579 1.65l-.007.137M396.59 254.555h.44v4.588h-.44v-4.588M398.252 255.89h.439v3.253h-.439zm-.099-1.026c0-.168.142-.31.322-.31.18 0 .321.137.321.303a.316.316 0 01-.321.322.318.318 0 01-.322-.315M401.628 258.945c-.173.155-.432.228-.687.228-.613 0-.952-.345-.952-.945v-1.967h-.581v-.37h.581v-.712h.439v.712h.99v.37h-.99v1.942c0 .384.197.594.564.594a.725.725 0 00.481-.168l.155.316M402.861 258.835c0 .105-.025.185-.088.358l-.258.854h-.298l.211-.898c-.13-.036-.221-.154-.221-.314 0-.192.141-.335.326-.335.191 0 .328.148.328.335M404.961 258.772l.199-.347c.26.204.699.366 1.157.366.619 0 .871-.211.871-.532 0-.847-2.108-.179-2.108-1.466 0-.532.457-.928 1.287-.928.42 0 .877.118 1.149.304l-.19.352a1.665 1.665 0 00-.96-.278c-.587 0-.847.229-.847.537 0 .879 2.109.217 2.109 1.467 0 .562-.495.926-1.343.926-.537 0-1.057-.172-1.324-.401M408.547 257.325h2.305c-.055-.637-.519-1.082-1.156-1.082-.63 0-1.093.445-1.15 1.082zm2.721.328h-2.721c.049.68.568 1.131 1.28 1.131.394 0 .748-.141.996-.427l.246.286c-.29.346-.742.53-1.256.53-1.013 0-1.706-.692-1.706-1.657 0-.964.673-1.65 1.589-1.65.915 0 1.577.674 1.577 1.65l-.005.137M414.703 257.516c0-.76-.52-1.267-1.208-1.267-.692 0-1.211.507-1.211 1.267 0 .761.519 1.268 1.21 1.268.689 0 1.209-.507 1.209-1.268zm.432-2.961v4.588h-.42v-.643c-.267.44-.719.673-1.256.673-.927 0-1.62-.673-1.62-1.657 0-.983.693-1.65 1.62-1.65.52 0 .965.222 1.237.642v-1.953h.439M420.51 257.516c0-.76-.52-1.267-1.207-1.267-.694 0-1.211.507-1.211 1.267 0 .761.517 1.268 1.21 1.268.689 0 1.207-.507 1.207-1.268zm.431-2.961v4.588h-.42v-.643c-.265.44-.717.673-1.254.673-.928 0-1.62-.673-1.62-1.657 0-.983.692-1.65 1.62-1.65.518 0 .964.222 1.236.642v-1.953h.438M422.161 255.89h.442v3.253h-.442zm-.098-1.026c0-.168.144-.31.32-.31.18 0 .324.137.324.303a.316.316 0 01-.323.322.32.32 0 01-.321-.315M425.841 258.167v-.532h-1.02c-.63 0-.834.246-.834.581 0 .377.302.612.821.612.495 0 .86-.235 1.033-.661zm.439-1.04v2.016h-.42v-.507c-.199.335-.581.537-1.12.537-.736 0-1.188-.382-1.188-.945 0-.501.323-.921 1.256-.921h1.033v-.198c0-.557-.314-.86-.921-.86-.421 0-.816.148-1.083.383l-.197-.328c.327-.277.81-.439 1.323-.439.841 0 1.317.42 1.317 1.262M432.839 257.257v1.886h-.439V257.3c0-.687-.347-1.039-.933-1.039-.668 0-1.088.434-1.088 1.175v1.707h-.442V257.3c0-.687-.345-1.039-.94-1.039-.661 0-1.088.434-1.088 1.175v1.707h-.438v-3.252h.42v.593c.229-.39.65-.619 1.194-.619.538 0 .959.23 1.156.687.236-.421.699-.687 1.287-.687.792 0 1.31.458 1.31 1.392M436.599 256.13l-2.196.849 2.196.848v.512l-2.772-1.095v-.53l2.772-1.097v.514M438.879 253.936h.537l-2.041 5.825h-.539l2.043-5.825M443.556 254.813v4.33h-.619v-1.93h-2.485v1.93h-.619v-4.33h.619v1.862h2.485v-1.862h.619M445.84 254.813v4.33h-.613v-3.791h-.976v-.539h1.589M449.672 256.713v.531l-2.77 1.095v-.512l2.202-.848-2.203-.848v-.514l2.771 1.096M361.857 270.96l-2.196.848 2.196.847v.513l-2.77-1.095v-.532l2.77-1.094v.513M365.795 271.152c0-.619-.415-.972-1.207-.972h-1.05v1.943h1.05c.792 0 1.207-.352 1.207-.971zm.617 0c0 .94-.68 1.51-1.805 1.51h-1.07v1.31h-.618v-4.33h1.688c1.125 0 1.805.57 1.805 1.51M369.915 271.541v.532l-2.771 1.095v-.513l2.201-.847-2.201-.848v-.513l2.77 1.094M375.172 270.96l-2.195.848 2.195.847v.513l-2.77-1.095v-.532l2.77-1.094v.513M376.232 269.643h.619v4.329h-.619v-4.33M382.161 273.972l-.005-3.155-1.565 2.63h-.285l-1.564-2.611v3.136h-.594v-4.33h.507l1.805 3.043 1.782-3.042h.508l.007 4.329h-.595M387.048 271.783h.593v1.688c-.432.365-1.033.55-1.638.55-1.331 0-2.307-.933-2.307-2.213 0-1.281.976-2.215 2.319-2.215.686 0 1.268.23 1.664.668l-.384.383a1.714 1.714 0 00-1.255-.5c-1.001 0-1.725.699-1.725 1.664 0 .952.724 1.663 1.72 1.663.364 0 .704-.08 1.013-.278v-1.41M390.084 273.477l.23-.482c.32.29.87.501 1.427.501.75 0 1.07-.29 1.07-.668 0-1.057-2.623-.39-2.623-1.997 0-.668.521-1.238 1.659-1.238.506 0 1.033.136 1.39.383l-.202.496a2.228 2.228 0 00-1.188-.353c-.738 0-1.052.309-1.052.686 0 1.058 2.622.396 2.622 1.986 0 .661-.532 1.23-1.676 1.23-.662 0-1.31-.222-1.657-.544M397.193 271.152c0-.619-.416-.972-1.206-.972h-1.051v1.95h1.05c.791 0 1.207-.36 1.207-.978zm.019 2.82l-.936-1.33-.27.013h-1.07v1.317h-.619v-4.33h1.688c1.126 0 1.806.57 1.806 1.51 0 .668-.347 1.15-.952 1.367l1.026 1.453h-.673M398.456 271.808c0-1.281.977-2.215 2.295-2.215.668 0 1.249.23 1.645.675l-.403.39c-.333-.354-.741-.514-1.218-.514-.976 0-1.7.704-1.7 1.664 0 .959.724 1.663 1.7 1.663.477 0 .885-.167 1.218-.52l.403.39c-.396.446-.977.68-1.65.68-1.313 0-2.29-.933-2.29-2.213M403.04 272.296h2.77v.488h-2.77zm0-1.465h2.77v.488h-2.77v-.488M409.392 269.643h.52l-.043 1.669h-.438zm-1.12 0h.52l-.043 1.669h-.438l-.04-1.67M410.95 269.643h.618v3.792h2.344v.537h-2.963v-4.33M416.993 272.333c0-.698-.469-1.15-1.1-1.15-.63 0-1.108.452-1.108 1.15 0 .699.478 1.156 1.108 1.156.631 0 1.1-.457 1.1-1.156zm-2.808 0c0-.977.724-1.669 1.708-1.669s1.702.692 1.702 1.67c0 .977-.718 1.675-1.702 1.675s-1.708-.698-1.708-1.676M420.175 270.664v.575l-.135-.007c-.639 0-1.035.389-1.035 1.106v1.634h-.593v-3.278h.57v.55c.21-.383.618-.58 1.193-.58M421.161 272.104h2.106c-.063-.55-.478-.94-1.052-.94-.57 0-.991.384-1.054.94zm2.662.427h-2.662c.076.576.54.958 1.188.958.384 0 .706-.129.947-.396l.328.384c-.297.347-.748.532-1.293.532-1.058 0-1.763-.698-1.763-1.676 0-.97.7-1.669 1.647-1.669.945 0 1.618.679 1.618 1.688l-.01.179M430.096 272.085v1.887h-.595v-1.819c0-.642-.308-.958-.846-.958-.595 0-.984.377-.984 1.088v1.689h-.594v-1.819c0-.642-.308-.958-.848-.958-.593 0-.982.377-.982 1.088v1.689h-.594v-3.277h.568v.488c.236-.335.639-.519 1.134-.519.5 0 .92.197 1.138.605.247-.372.704-.605 1.26-.605.798 0 1.343.456 1.343 1.421M432.845 270.695h.594v3.277h-.594zm-.105-1.015c0-.217.175-.39.403-.39.229 0 .402.167.402.378a.388.388 0 01-.402.395c-.228 0-.403-.167-.403-.383M437.365 272.333c0-.693-.477-1.15-1.106-1.15-.626 0-1.102.457-1.102 1.15 0 .699.476 1.156 1.102 1.156.629 0 1.106-.457 1.106-1.156zm.6 0c0 1.008-.698 1.676-1.657 1.676-.464 0-.872-.178-1.145-.532v1.695h-.594v-4.477h.57v.518c.265-.365.688-.549 1.169-.549.959 0 1.657.668 1.657 1.67M438.37 273.625l.246-.469c.279.197.724.34 1.15.34.551 0 .78-.167.78-.445 0-.736-2.071-.1-2.071-1.404 0-.588.525-.983 1.366-.983.427 0 .91.11 1.194.296l-.254.47a1.708 1.708 0 00-.946-.26c-.519 0-.774.193-.774.451 0 .774 2.079.143 2.079 1.418 0 .593-.544.97-1.417.97-.544 0-1.082-.168-1.354-.384M444.935 270.695v3.277h-.564v-.495c-.242.34-.65.532-1.112.532-.848 0-1.412-.464-1.412-1.429v-1.885h.593v1.817c0 .644.324.965.887.965.617 0 1.013-.384 1.013-1.088v-1.694h.595M451.504 272.085v1.887h-.593v-1.819c0-.642-.308-.958-.848-.958-.594 0-.983.377-.983 1.088v1.689h-.593v-1.819c0-.642-.31-.958-.848-.958-.594 0-.983.377-.983 1.088v1.689h-.595v-3.277h.57v.488c.236-.335.638-.519 1.133-.519.5 0 .92.197 1.137.605.248-.372.704-.605 1.26-.605.799 0 1.343.456 1.343 1.421M453.539 269.643h.518l-.042 1.669h-.44zm-1.12 0h.518l-.042 1.669h-.44l-.036-1.67M457.63 271.541v.532l-2.771 1.095v-.513l2.201-.847-2.201-.848v-.513l2.77 1.094M461.225 270.96l-2.194.848 2.194.847v.513l-2.77-1.095v-.532l2.77-1.094v.513M463.505 268.764h.539l-2.043 5.827h-.537l2.041-5.827M467.336 271.152c0-.619-.413-.972-1.205-.972h-1.051v1.943h1.05c.793 0 1.206-.352 1.206-.971zm.62 0c0 .94-.681 1.51-1.807 1.51h-1.069v1.31h-.619v-4.33h1.688c1.126 0 1.807.57 1.807 1.51M471.457 271.541v.532l-2.77 1.095v-.513l2.201-.847-2.201-.848v-.513l2.77 1.094M361.857 285.788l-2.196.848 2.196.848v.513l-2.77-1.096v-.53l2.77-1.095v.512M364.136 283.593h.539l-2.042 5.826h-.537l2.04-5.826M368.19 287.583c0-.502-.369-.724-1.057-.724h-1.421v1.441h1.421c.688 0 1.058-.216 1.058-.717zm-2.478-2.611v1.385h1.268c.63 0 .99-.234.99-.692 0-.457-.36-.693-.99-.693zm3.104 2.66c0 .743-.563 1.17-1.657 1.17h-2.066v-4.33h1.942c.996 0 1.552.42 1.552 1.119 0 .469-.242.798-.582.965.488.136.811.501.811 1.076M373.4 286.636c0-.959-.717-1.664-1.676-1.664-.97 0-1.688.705-1.688 1.664s.717 1.664 1.688 1.664c.959 0 1.676-.705 1.676-1.664zm-3.983 0c0-1.268.976-2.215 2.307-2.215 1.319 0 2.295.942 2.295 2.215 0 1.275-.976 2.215-2.295 2.215-1.33 0-2.307-.947-2.307-2.215M376.748 288.263c1.07 0 1.755-.655 1.755-1.627 0-.97-.686-1.627-1.755-1.627h-1.17v3.254zm-1.788-3.791h1.824c1.392 0 2.339.877 2.339 2.164 0 1.287-.947 2.165-2.339 2.165h-1.824v-4.329M381.536 287.304v1.497h-.613v-1.509l-1.719-2.82h.661l1.386 2.281 1.392-2.281h.612l-1.719 2.832M386.41 286.37v.531l-2.77 1.096v-.513l2.201-.848-2.201-.848v-.512l2.77 1.095" fill="#100f0d"/><path d="M528.203 169.93c0 .191-42.791.347-95.564.347-52.792 0-95.575-.156-95.575-.348 0-.19 42.783-.346 95.575-.346 52.773 0 95.564.156 95.564.346M342.79 163.105a1.23 1.23 0 11-2.457.001 1.23 1.23 0 012.458 0M347.515 163.105a1.23 1.23 0 11-2.457.001 1.23 1.23 0 012.457 0M352.239 163.105a1.23 1.23 0 11-2.457.001 1.23 1.23 0 012.457 0" fill="#1d2a30"/><path d="M349.203 314.492c-.192 0-.348-32.44-.348-72.448 0-40.023.156-72.456.348-72.456.19 0 .346 32.433.346 72.456 0 40.008-.156 72.448-.346 72.448" fill="#e3e3e2"/><path d="M96.273 281.316H43.625v-37.53h52.648v37.53" fill="#3e64ff"/><path d="M96.685 249.355c0 .092-11.884.166-26.54.166-14.661 0-26.543-.074-26.543-.166 0-.091 11.882-.166 26.543-.166 14.656 0 26.54.075 26.54.166M47.922 246.616c0 .344-.318.623-.71.623-.39 0-.708-.279-.708-.623s.317-.623.709-.623c.391 0 .709.279.709.623M50.505 246.616c0 .344-.317.623-.708.623-.392 0-.71-.279-.71-.623s.318-.623.71-.623c.391 0 .708.279.708.623M53.09 246.616c0 .344-.318.623-.71.623-.39 0-.708-.279-.708-.623s.317-.623.708-.623c.392 0 .71.279.71.623" fill="#fff"/><path d="M171.767 318.712L206.6 436.291a12.292 12.292 0 0011.787 8.801l141.328.39c7.501.02 13.481-6.266 13.084-13.757-.368-6.937-6.1-12.373-13.048-12.373h-54.047l-43.281-120.596h-75.756c-10.388 0-17.852 9.996-14.9 19.956" fill="#365462"/><path d="M291.336 429.007c0 .276-14.41.498-32.181.498-17.779 0-32.186-.222-32.186-.498 0-.275 14.407-.498 32.186-.498 17.77 0 32.181.223 32.181.498M182.159 302.49c.261-.086 9.884 28.066 21.492 62.873 11.612 34.817 20.81 63.104 20.549 63.19-.261.088-9.883-28.058-21.493-62.876-11.608-34.806-20.808-63.098-20.548-63.186" fill="#1d2a30"/><path d="M285.459 549.564l-8.614-.203V445.092h8.614v104.472" fill="#365462"/><path d="M241.064 549.087h80.176l-36.321-12.622h-8.612l-35.243 12.622" fill="#365462"/><path d="M220.787 271.796l13.265 66.277-2.368 49.67 89.172-14.831-3.5-43.495-.067-35.99 21.867 42.374 17.024-32.884-31.172-56.465-.003.007c-5.71-5.925-12.395-10.31-20.393-13.203-3.886-1.405-8.01-2.246-12.782-2.448-10.29 3.18-20.578 3.187-30.868.019-1.253.156-2.993.321-5.184.58l-.401.048c-18.923 2.304-33.367 18.041-34.412 37.075l-.179 3.266" fill="#3e64ff"/><path d="M255.779 231.407s-36.639.278-41.178 38.974l-.616 28.375 31.555-.273 10.239-67.076" fill="#3e64ff"/><path d="M343.312 281.185c0 .276-28.832.499-64.388.499-35.57 0-64.395-.223-64.395-.499 0-.274 28.826-.497 64.395-.497 35.556 0 64.388.223 64.388.497M343.312 287.321c0 .275-28.832.498-64.388.498-35.57 0-64.395-.223-64.395-.498 0-.274 28.826-.498 64.395-.498 35.556 0 64.388.224 64.388.498M341.248 276.103c0 .274-28.37.498-63.356.498-35 0-63.363-.224-63.363-.498 0-.275 28.363-.498 63.363-.498 34.987 0 63.356.223 63.356.498" fill="#fcfdfd"/><path d="M316.812 335.801c-.275-.007-.152-15.689.273-35.025.426-19.343.994-35.012 1.268-35.005.275.005.152 15.685-.272 35.028-.425 19.336-.994 35.009-1.269 35.002" fill="#1d2a30"/><path d="M304.285 310.365s17.332 1.24 20.452 5.823c3.122 4.58 7.874 17.648 6.074 17.743-1.802.096-3.112-.983-3.112-.983l-4.751-8.417s.765 8.132-2.076 8.293c-2.84.161-16.912 2.977-16.912 2.977l.325-25.436" fill="#f9ad95"/><path d="M213.996 291.203l-.064 44.68c.563 10.442 10.345 17.896 20.563 15.666l69.878-14.396-.149-28.652-60.292 11.571-.803-30.327-29.133 1.458" fill="#3e64ff"/><path d="M253.864 347.972c-.005-.025.31-.11.921-.257.684-.155 1.582-.355 2.71-.611 2.458-.519 5.918-1.252 10.27-2.173l36.372-7.435-.357.436-.05-29.43.587.483c-3.936.759-8.076 1.554-12.284 2.363l-48.021 9.14-.521.099.018-.522 1.104-32.22c.16-3.814.287-6.84.376-8.998.055-.98.1-1.762.132-2.366.038-.534.067-.81.09-.809.022.001.036.279.042.816 0 .605-.004 1.39-.005 2.372-.033 2.16-.082 5.188-.142 9.005l-.75 32.215-.502-.424c13.857-2.68 30.34-5.87 47.992-9.287 4.208-.804 8.35-1.598 12.286-2.352l.587-.112v.596l-.049 29.431v.367l-.358.068-36.443 7.082-10.319 1.93-2.736.476c-.62.1-.945.14-.949.117M293.947 231.407c.032-.011.129.214.286.654.175.438.354 1.104.54 1.976.35 1.736.544 4.407-.326 7.522-.839 3.104-2.874 6.54-6.066 9.358-3.134 2.884-7.768 4.85-12.718 4.803-4.947.048-9.626-1.97-12.575-5.107-2.987-3.125-4.301-6.949-4.677-10.116-.347-3.213.224-5.821.88-7.476.333-.83.634-1.452.897-1.845.24-.401.38-.603.41-.585.1.053-.425.89-.94 2.557-.53 1.65-.969 4.185-.55 7.26.45 3.032 1.785 6.655 4.639 9.567 2.806 2.912 7.214 4.793 11.917 4.75 4.71.04 9.09-1.786 12.11-4.497 3.105-2.676 5.107-5.917 5.998-8.87a16.96 16.96 0 00.619-7.258c-.23-1.732-.543-2.664-.444-2.693" fill="#1d2a30"/><path d="M297.321 339.523c-.142-.014-.089-1.698.014-4.41.104-2.712.234-6.456.26-10.59.022-4.138-.063-7.882-.135-10.596-.072-2.714-.105-4.396.037-4.408.132-.012.414 1.652.666 4.366.252 2.715.45 6.48.428 10.644-.026 4.16-.268 7.923-.554 10.634-.284 2.71-.585 4.373-.716 4.36M293.715 340.253c-.142-.008-.156-1.681-.127-4.377l.113-10.527-.01-10.529c-.003-2.696.028-4.368.169-4.376.133-.007.352 1.655.535 4.352.184 2.697.321 6.432.302 10.559-.021 4.124-.194 7.857-.405 10.552-.21 2.696-.444 4.354-.577 4.346" fill="#fcfdfd"/><path d="M363.69 517.777l13.205 36.37 18.741 25.754a3.964 3.964 0 01-1.096 5.69 3.942 3.942 0 01-3.616.31c-7.557-3.136-35.3-14.81-36.116-17.525-.947-3.144-18.856-42.259-18.856-42.259l27.737-8.34" fill="#3e64ff"/><path d="M392.347 586.253c-.52 0-1.042-.101-1.532-.307-20.979-8.816-30.302-13.582-33.639-15.382a5.946 5.946 0 01-1.735-1.419c4.29 3.675 28.5 13.859 35.483 16.756.485.202.997.3 1.507.3a3.97 3.97 0 002.109-.61 3.958 3.958 0 01-2.193.662M354.64 567.9a6.16 6.16 0 01-.186-.428l-.422-1.081c.264.63.47 1.141.608 1.51" fill="#fff"/><path d="M392.43 586.201c-.509 0-1.02-.098-1.506-.3-6.983-2.897-31.193-13.081-35.483-16.756a6.083 6.083 0 01-.8-1.245 47.71 47.71 0 00-.608-1.51l-.173-.446 40.68 19.647a3.97 3.97 0 01-2.11.61M356.255 555.913c-.139 0-.279-.014-.416-.045-1.151-.252-2.191-1.726-1.838-2.848.284-.903 1.332-1.672 2.282-1.672.233 0 .46.047.668.148 1.03.371 1.741 1.534 1.53 2.616-.2 1.018-1.205 1.801-2.226 1.801m.698-4.416" fill="#ccd6ff"/><path d="M380.165 573.044c.243.021.322-2.184 2.07-4.035 1.694-1.903 3.884-2.17 3.842-2.41-.003-.1-.568-.203-1.458.007-.884.202-2.059.794-3.011 1.829-.948 1.037-1.437 2.257-1.561 3.155-.134.905.017 1.46.118 1.454M384.612 576.872c.233.09.935-1.532 2.592-2.792 1.628-1.297 3.373-1.579 3.344-1.826.032-.224-2-.314-3.867 1.155-1.88 1.447-2.294 3.44-2.069 3.463M372.976 568.716c.236.106 1.3-2.396 3.705-4.581 2.372-2.223 4.951-3.086 4.866-3.329-.018-.215-2.891.328-5.442 2.705-2.572 2.35-3.342 5.172-3.129 5.205M368.037 557.996c.18.179 1.848-1.43 4.403-2.532 2.543-1.139 4.853-1.279 4.844-1.534.03-.215-2.452-.46-5.184.757-2.744 1.19-4.243 3.185-4.063 3.309M363.89 547.417c.193.166 1.727-1.817 4.514-2.757 2.765-1.003 5.2-.41 5.25-.66.029-.099-.542-.397-1.56-.555-1.011-.16-2.475-.108-3.97.414-1.493.525-2.67 1.396-3.361 2.153-.699.757-.958 1.348-.874 1.405M367.556 542.67c.048-.017-.061-.533-.481-1.382a10.14 10.14 0 00-2.474-3.15c-.652-.52-1.392-1.222-2.584-1.306-.593-.044-1.302.339-1.544.981-.244.631-.146 1.275.063 1.85.93 2.276 3.755 3.725 6.457 3.052 2.696-.723 4.463-3.111 4.718-5.485.024-.598-.064-1.286-.583-1.786-.513-.51-1.341-.468-1.824-.179-1.008.578-1.444 1.458-1.895 2.16a11.346 11.346 0 00-1.369 3.759c-.157.933-.119 1.457-.07 1.461.163.047.222-2.125 1.953-4.908.453-.66.956-1.47 1.697-1.841.363-.184.744-.16.995.09.252.238.352.72.314 1.198-.236 1.955-1.857 4.13-4.145 4.707-2.27.59-4.753-.688-5.517-2.511-.179-.441-.234-.933-.1-1.29.133-.349.46-.56.845-.554.812.01 1.577.586 2.207 1.065 2.55 2.057 3.192 4.167 3.337 4.07" fill="#1d2a30"/><path d="M419.444 508.263l-1.141 29.559s29.661 11.089 29.981 16.571l-57.39-.156-.111-46.129 28.661.155" fill="#3e64ff"/><path d="M401.103 539.65c-.979 0-1.947-.723-2.168-1.693-.238-1.052.425-2.215 1.425-2.604.213-.112.45-.162.693-.162.914 0 1.927.71 2.224 1.566.38 1.088-.593 2.555-1.709 2.836-.153.039-.31.058-.465.058" fill="#ccd6ff"/><path d="M448.284 554.393l-57.39-.156 57.39.156c-.045-.792-.705-1.701-1.799-2.678.72.42 2.014 1.369 1.799 2.678" fill="#fff"/><path d="M448.284 554.393l-57.39-.156-.011-4.6 55.144 1.839s.189.083.458.239c1.094.977 1.754 1.886 1.799 2.678" fill="#ccd6ff"/><path d="M419.233 537.532c-.009.28-1.41.404-2.792 1.302-1.405.86-2.118 2.072-2.377 1.96-.257-.054.164-1.729 1.857-2.786 1.682-1.072 3.375-.732 3.312-.476M425.247 540.037c.064.273-1.151.747-2.107 1.93-.99 1.155-1.233 2.434-1.512 2.422-.264.043-.453-1.598.761-3.046 1.204-1.459 2.852-1.572 2.858-1.306M428.647 547.252c-.256.059-.642-1.341.081-2.875.713-1.538 2.037-2.14 2.155-1.905.158.23-.695 1.052-1.271 2.319-.604 1.253-.687 2.434-.965 2.46M418.747 530.767c-.119.256-1.403-.133-2.987-.03-1.587.07-2.821.598-2.967.358-.161-.204 1.046-1.238 2.914-1.334 1.865-.11 3.178.787 3.04 1.006" fill="#1d2a30"/><path d="M390.81 519.052l-.025-4.747.012-.002.012 4.748" fill="#b2b1b0"/><path d="M419.015 519.385l-28.206-.333-.012-4.748 28.415-.187-.197 5.268" fill="#bc283b"/><path d="M418.868 524.8c.003.116-1.105.285-2.875-.023a12.86 12.86 0 01-3.004-.932 13.6 13.6 0 01-1.649-.88c-.264-.17-.576-.342-.865-.678-.311-.294-.484-1.036-.126-1.491.296-.44.815-.629 1.231-.639.421-.012.764.075 1.077.153a10.117 10.117 0 014.43 2.365c1.329 1.237 1.781 2.285 1.684 2.338-.126.093-.772-.786-2.124-1.81a11.533 11.533 0 00-2.56-1.45 10.773 10.773 0 00-1.65-.513c-.606-.16-1.122-.167-1.28.104-.056.103-.064.143.062.321.132.164.377.326.637.495.507.333 1.017.623 1.516.872 1 .5 1.956.841 2.776 1.073 1.643.463 2.725.543 2.72.695" fill="#1d2a30"/><path d="M418.501 525.2c-.1.044-.653-.961-.75-2.778a9.318 9.318 0 011.137-4.888c.337-.566.75-1.325 1.837-1.447.568-.02 1.039.425 1.199.805.188.39.225.723.29 1.055.106.67.091 1.328 0 1.936a6.602 6.602 0 01-1.236 2.965c-1.127 1.484-2.296 1.816-2.319 1.721-.095-.141.885-.68 1.747-2.105a6.646 6.646 0 00.917-2.7c.057-.53.05-1.095-.05-1.66-.087-.61-.315-1.103-.543-1.041-.286-.005-.772.453-1.008.938a9.632 9.632 0 00-.718 1.556 10.416 10.416 0 00-.564 2.867c-.082 1.684.215 2.733.062 2.776" fill="#1d2a30"/><path d="M390.839 366.57c-33.902 3.507-78.85 8.113-78.85 8.113l6.131 55.184s66.035-17.451 65.563-16.036c-.471 1.416 3.058 117.42 3.058 117.42h39.767l.748-131.374c.272-19.765-16.755-35.342-36.417-33.308" fill="#1d2a30"/><path d="M230.861 388.832v17.113c0 11.648 13.268 24.003 24.918 24.003h9.008c7.097 0 18.217-5.168 23.949-9.356l3.443-2.516 41.405 128.279s47.381-8.494 47.381-9.99c0-1.494-32.086-105.065-46.898-153.137-6.047-19.628-27.075-31.04-46.503-24.377-.663.228-1.325.472-1.988.737-21.225 8.49-54.715 29.244-54.715 29.244" fill="#1d2a30"/><path d="M380.965 536.365c-.016.007-.086-.148-.209-.454-.14-.364-.312-.816-.524-1.374-.452-1.21-1.104-3-1.879-5.325-1.59-4.637-3.764-11.39-6.412-19.747-5.282-16.714-12.362-39.872-20.073-65.478l-10.81-36.124-4.689-15.772c-.734-2.467-1.445-4.851-2.129-7.144-.684-2.296-1.315-4.491-2.155-6.49-1.621-4.034-4.173-7.117-6.689-9.472-2.545-2.34-4.973-4.102-7.007-5.454a114.52 114.52 0 00-4.746-3.035c-.507-.316-.916-.572-1.247-.777-.277-.182-.415-.28-.407-.296.008-.014.164.056.458.208l1.296.69c1.138.612 2.789 1.564 4.861 2.884a54.027 54.027 0 017.17 5.372c2.586 2.343 5.257 5.487 6.96 9.608.88 2.036 1.54 4.256 2.242 6.538l2.184 7.132 4.777 15.744c3.347 11.102 7.024 23.297 10.886 36.1l19.792 65.557 6.106 19.835c.72 2.278 1.288 4.077 1.702 5.381l.428 1.404c.092.319.132.485.114.49M390.959 397.281c.246.171-2.008 3.556-3.896 8.152-1.92 4.584-2.726 8.57-3.018 8.518-.252-.024.127-4.186 2.099-8.899 1.943-4.724 4.623-7.932 4.815-7.77M398.556 402.615c.117.277-3.304 1.774-6.863 4.596-3.585 2.79-5.848 5.761-6.089 5.581-.219-.123 1.755-3.463 5.475-6.364 3.697-2.927 7.41-4.055 7.477-3.813M334.03 546.355c-.26.082-11.447-34.245-24.982-76.666-13.539-42.434-24.299-76.89-24.036-76.976.261-.082 11.445 34.239 24.984 76.674 13.535 42.42 24.296 76.884 24.035 76.968M283.215 346.237l135.537 1.303 25.273-71.437-98.584.666-22.88 64.242-39.346.588v4.638" fill="#365462"/><path d="M385.975 317.976a5.488 5.488 0 01-4.668-6.203 5.49 5.49 0 114.668 6.203" fill="#fff"/><path d="M272.155 152.868c1.28-4.753 4.856-7.093 9.514-8.681 4.659-1.59 10.083-.708 14 2.272 2.62 1.994 4.671 4.892 7.78 5.973 5.122 1.78 11.122-2.053 16.032.244 2.904 1.36 4.595 4.907 3.82 8.02-.773 3.113-3.925 5.456-7.13 5.297 3.341 1.22 4.38 5.987 2.428 8.96-1.952 2.975-5.962 4.098-9.459 3.446-3.497-.654-6.545-2.775-9.192-5.152-2.645-2.378-5.017-5.068-7.844-7.228s-6.255-3.795-9.807-3.603c-4.809.259-8.937 3.885-11.08 8.199-2.142 4.312-2.638 9.238-2.906 14.046-.267 4.81-.352 9.698-1.778 14.299-.166.54-.421 1.144-.962 1.31-.78.24-1.444-.589-1.832-1.307a70.71 70.71 0 01-8.076-26.279c-.544-5.33-.403-10.376 2.526-14.86 2.931-4.484 10.334-7.788 13.966-4.956" fill="#1d2a30"/><path d="M262.855 175.184l-2.46 53.948c-.419 9.175.841 22.736 15.376 22.736 12.61-.95 16.338-12.736 16.721-21.297.18-4.062.34-7.448.387-7.864 0 0 13.792-.666 15.402-14.214.779-6.546 1.286-20.162 1.6-32.485.339-13.233-9.558-24.504-22.722-25.904l-1.31-.14c-14.201-.677-22.71 11.005-22.994 25.22" fill="#f9ad95"/><path d="M292.921 222.513s-8.648-.216-17.15-6.908c0 0 3.141 10.207 16.808 10.426l.342-3.518" fill="#f6865e"/><path d="M304.963 184.673c-.072 1.027-1.002 1.812-2.076 1.756-1.072-.056-1.884-.932-1.811-1.958.072-1.027 1.001-1.814 2.073-1.758 1.075.056 1.887.934 1.814 1.96M306.259 182.356c-.267.227-1.619-1.016-3.706-1.232-2.078-.245-3.722.664-3.921.384-.1-.124.193-.555.912-.968.707-.413 1.875-.764 3.173-.621 1.298.146 2.339.74 2.915 1.296.588.561.757 1.04.627 1.141M284.441 183.205c-.072 1.027-1.002 1.812-2.076 1.756-1.07-.056-1.884-.932-1.81-1.958.073-1.028 1.002-1.814 2.074-1.758 1.074.056 1.886.934 1.812 1.96M285.727 180.564c-.268.227-1.623-1.016-3.706-1.232-2.08-.247-3.724.664-3.922.384-.099-.125.192-.555.912-.968.706-.413 1.874-.764 3.173-.621 1.297.146 2.339.74 2.916 1.296.587.56.756 1.04.627 1.141M291.647 196.83c.003-.12 1.321-.207 3.45-.251.538 0 1.054-.051 1.182-.404.166-.372.005-.97-.188-1.616l-1.143-4.222c-1.572-6.004-2.65-10.917-2.407-10.978.243-.062 1.714 4.754 3.286 10.758.374 1.48.733 2.89 1.073 4.239.137.627.41 1.35.055 2.119-.186.382-.608.63-.959.685-.352.068-.652.041-.917.03-2.126-.111-3.438-.242-3.432-.36M285.357 197.617c.342.018.106 2.28 1.871 4.092 1.763 1.818 4.201 1.82 4.185 2.139.016.145-.584.381-1.605.301-1.003-.072-2.427-.548-3.507-1.656-1.077-1.112-1.445-2.48-1.422-3.416.013-.956.325-1.489.478-1.46M287.133 172.45c-.265.546-2.318.055-4.794.09-2.479-.015-4.527.49-4.798-.052-.118-.259.283-.755 1.138-1.219.849-.464 2.165-.849 3.65-.857 1.486-.004 2.806.372 3.658.83.86.455 1.264.95 1.146 1.209M306.135 176.241c-.418.434-1.802-.21-3.526-.417-1.717-.267-3.222-.021-3.506-.552-.123-.256.158-.707.845-1.087.677-.378 1.77-.632 2.952-.469 1.183.164 2.165.703 2.713 1.25.559.553.708 1.062.522 1.275" fill="#1d2a30"/><path d="M262.893 185.345c-.221-.124-9.028-3.748-9.718 5.558-.691 9.305 8.794 8.08 8.83 7.814.036-.266.888-13.372.888-13.372" fill="#f9ad95"/><path d="M259.424 194.98c-.039-.033-.17.103-.453.207a1.619 1.619 0 01-1.214-.066c-.957-.433-1.669-2.056-1.589-3.736.039-.849.276-1.641.627-2.286.334-.66.809-1.103 1.31-1.155a.827.827 0 01.924.516c.106.27.034.45.08.47.026.025.212-.14.166-.531a1.039 1.039 0 00-.323-.611c-.21-.197-.53-.313-.879-.303-.721-.004-1.416.608-1.801 1.318a5.53 5.53 0 00-.753 2.552c-.08 1.88.749 3.705 2.065 4.194.643.219 1.204.063 1.501-.136.306-.209.371-.413.339-.433" fill="#f6865e"/><path d="M313.053 173.497c-6.144.955-12.697-1.272-16.986-5.773-3.003-3.15-5.122-7.443-9.12-9.156-2.694-1.152-5.85-.88-8.55.256-2.7 1.137-4.993 3.068-7.013 5.192 1.888 7.173-.692 14.681-3.239 21.647-.281.77-.608 1.597-1.306 2.025-1.187.727-2.76-.107-3.61-1.21-1.36-1.765-1.713-4.091-1.873-6.314-.361-5.064.061-10.227 1.692-15.035 1.63-4.808 4.512-9.25 8.532-12.349 5.024-3.875 11.657-5.455 17.955-4.687 6.296.77 12.228 3.795 16.857 8.132 2.15 2.012 4.073 4.374 4.997 7.167" fill="#1d2a30"/><path d="M52.345 460.215c4.753-2.452 10.35-2.771 15.627-1.9 2.835.47 5.791 1.319 7.72 3.448 1.929 2.129 2.294 5.877.08 7.706-1.319 1.09-3.158 1.255-4.868 1.235-4.131-.048-8.714-.776-12.015 1.71-1.883 1.418-3.136 3.777-5.387 4.473-2.203.682-4.688-.618-5.856-2.604-1.167-1.988-1.206-4.473-.662-6.714 0 0 .573-4.882 5.36-7.354M41.456 439.193c2.906 4.151 8.555 2.778 11.174.243 2.619-2.533 3.726-6.205 4.734-9.708 2.303-8.001 4.623-16.396 2.912-24.543-.512-2.436-1.423-4.866-3.135-6.673-1.711-1.808-4.344-2.883-6.75-2.247-2.849.752-4.62 3.543-5.898 6.196a58.5 58.5 0 00-5.782 25.108c-.014 4.044.462 8.286 2.745 11.624M33.474 445.15c3.155-3.746 3.755-9.209 2.35-13.9-1.404-4.693-4.577-8.683-8.233-11.942a44.3 44.3 0 00-14.742-8.699c-2.132-.749-4.38-1.341-6.63-1.126-2.25.214-4.515 1.365-5.564 3.366-1.552 2.959-.064 6.548 1.544 9.476a112.413 112.413 0 009.684 14.746c2.902 3.741 6.226 7.432 10.65 9.124 4.423 1.69 9.018 1.492 11.362-1.576" fill="#3e64ff"/><path d="M41.258 501.812c.055.004.143-.67.263-1.885l.502-5.148c.239-2.166.556-4.744 1.157-7.551.6-2.8 1.539-5.835 2.745-8.912 1.248-3.06 2.77-5.84 4.55-8.064 1.767-2.234 3.822-3.85 5.754-4.781a16.087 16.087 0 014.845-1.51c1.204-.124 1.878-.219 1.878-.272 0-.053-.675-.062-1.911-.03-1.225.082-3.023.392-5.052 1.316-2.036.9-4.216 2.543-6.07 4.824-1.868 2.27-3.446 5.113-4.717 8.226-1.227 3.131-2.151 6.197-2.724 9.058-.572 2.856-.833 5.461-1.004 7.646a101.629 101.629 0 00-.255 5.179c-.028 1.224-.013 1.902.04 1.904" fill="#1d2a30"/><path d="M41.613 497.852c.027-.001.044-.303.051-.876l-.007-2.501c-.006-2.172-.005-5.318.112-9.199.192-7.763.86-16.117 2.151-27.896 1.222-11.076 2.864-23.965 4.596-32.347.37-1.905.745-3.621 1.097-5.122.335-1.506.622-2.804.898-3.854l.586-2.433c.125-.559.178-.856.153-.864-.026-.008-.13.275-.304.821l-.727 2.398c-.323 1.041-.653 2.33-1.03 3.829a113.383 113.383 0 00-1.212 5.11c-1.713 7.594-3.528 18.207-4.83 30.014-1.295 11.805-1.877 22.55-1.93 30.335-.045 3.89.038 7.041.137 9.214l.153 2.502c.043.57.08.87.106.869" fill="#1d2a30"/><path d="M41.665 477.124c.054-.003.044-.93-.018-2.614-.096-1.682-.328-4.11-.8-7.086-.503-2.967-1.203-6.49-2.305-10.32-.477-1.75-1.599-5.944-4.315-12.212-3.58-8.492-8.443-15.435-12.674-19.735-.993-1.141-2.098-1.964-2.982-2.772-.458-.386-.862-.772-1.274-1.077l-1.156-.797c-1.393-.952-2.173-1.455-2.201-1.41-.126.17 3.118 2.079 7.214 6.436 4.08 4.35 8.807 11.244 12.358 19.664a96.464 96.464 0 014.34 12.1c1.132 3.792 1.883 7.282 2.451 10.219.54 2.944.853 5.348 1.042 7.012.155 1.668.267 2.593.32 2.592M21.63 513.69l2.077 28.454h36.557l2.077-28.455H21.63M18.098 502.473v11.216h48.605v-11.216H18.098" fill="#1d2a30"/><path d="M18.098 541.056v3.11h47.801v-3.11H18.098" fill="#365462"/><path d="M22.62 549.637l-2.238-5.472h43.777l-2.612 5.472H22.62" fill="#365462"/><path d="M61.662 522.99c.008.006-.05.095-.17.26l-.547.725-2.13 2.725-.094.122-.092-.126c-1.338-1.852-3.126-4.327-5.232-7.237h.301l-5.15 7.293-.162.228-.181-.215-6.109-7.268.352-.004-.335.422-5.464 6.847-.182.23-.168-.24-5.153-7.29.3.014c-2.54 2.893-4.694 5.348-6.348 7.23l-.113.13-.086-.145-1.986-3.338-.51-.89c-.113-.203-.166-.312-.157-.317.01-.005.083.09.213.281l.565.857 2.086 3.278-.198-.017 6.245-7.319.157-.185.143.2 5.2 7.259-.35-.011 5.45-6.857c.114-.146.229-.29.335-.423l.174-.219.179.215 6.092 7.283-.342.013 5.202-7.256.152-.215.15.215c2.06 2.943 3.81 5.443 5.121 7.313l-.186-.005 2.215-2.656.594-.687c.136-.153.21-.229.219-.22" fill="#e3e3e2"/><path d="M62.85 513.501c0 .126-9.16.228-20.458.228-11.3 0-20.458-.102-20.458-.228s9.158-.228 20.458-.228c11.298 0 20.457.102 20.457.228" fill="#365462"/><path d="M64.696 544.472c0 .125-9.955.227-22.232.227-12.282 0-22.235-.102-22.235-.227s9.953-.227 22.235-.227c12.277 0 22.232.102 22.232.227M496.864 216.865l-25.395 106.219h7.103l25.017-106.219h-6.725" fill="#1d2a30"/><path d="M487.112 286.823c-.459 1.946 11.5 59.844 11.5 59.844h-5.756l-9.032-45.882 3.288-13.962" fill="#1d2a30"/><path d="M571.687 549.337h-118.97V423.216h118.97v126.121" fill="#3e64ff"/><path d="M577.53 447.487h-5.843v-5.842h5.842v5.842M577.53 466.034h-5.843v-5.84h5.842v5.84M577.53 484.583h-5.843v-5.843h5.842v5.843M577.53 503.13h-5.843v-5.843h5.842v5.842" fill="#1d2a30"/><path d="M577.743 480.447c-.007-.046.63-.192 1.797-.394 1.165-.19 2.865-.468 5.004-.473 2.116.002 4.77.363 7.23 1.903 1.211.769 2.35 1.856 3.091 3.268.744 1.405 1.056 3.077.924 4.738a10.04 10.04 0 01-1.518 4.575c-.836 1.33-1.924 2.41-3.075 3.252-2.324 1.69-4.857 2.437-6.957 2.75-2.116.315-3.848.246-5.028.17-1.183-.092-1.83-.212-1.826-.256.005-.052.66-.023 1.835-.015 1.173-.005 2.884-.013 4.939-.385 2.041-.365 4.46-1.14 6.657-2.777 2.177-1.602 4.067-4.221 4.281-7.367.122-1.545-.162-3.084-.834-4.369-.667-1.292-1.707-2.31-2.835-3.044-2.296-1.48-4.825-1.891-6.893-1.952-2.088-.058-3.787.141-4.959.25-1.175.119-1.827.175-1.833.126" fill="#1d2a30"/><path d="M576.288 462.012c-.009-.02.179-.143.557-.339.38-.193.956-.45 1.731-.698a13.673 13.673 0 016.833-.382c.72.156 1.479.399 2.178.867a3.79 3.79 0 011.538 2.075c.502 1.769-.074 3.79-1.336 5.32-.632.765-1.456 1.438-2.462 1.813-.986.384-2.226.39-3.223-.173-.979-.516-1.85-1.539-1.85-2.8-.003-1.251.831-2.34 1.89-2.891 1.084-.557 2.31-.58 3.404-.357 1.108.224 2.123.74 2.967 1.416 1.69 1.354 2.752 3.318 2.966 5.298.234 2-.485 3.898-1.522 5.282-1.042 1.408-2.36 2.406-3.658 3.089-2.636 1.333-5.036 1.576-6.629 1.728-.804.065-1.432.087-1.856.09-.425.004-.65-.008-.65-.033-.003-.054.887-.118 2.478-.325 1.57-.23 3.924-.555 6.424-1.893 1.228-.68 2.468-1.66 3.425-2.994.955-1.318 1.582-3.06 1.352-4.87-.209-1.803-1.204-3.612-2.752-4.84-.773-.612-1.69-1.073-2.684-1.27-.986-.202-2.058-.164-2.944.295-.87.448-1.532 1.35-1.521 2.273-.012.924.663 1.768 1.483 2.203.826.468 1.805.47 2.673.148.868-.315 1.616-.908 2.199-1.6 1.162-1.372 1.69-3.227 1.274-4.747-.416-1.562-1.932-2.337-3.272-2.624a14.05 14.05 0 00-6.649.16c-1.543.415-2.336.84-2.364.78" fill="#1d2a30"/><path d="M576.348 443.91c-.007-.034.445-.185 1.297-.24.848-.058 2.107.018 3.57.5 1.446.494 3.108 1.425 4.445 2.994 1.353 1.55 2.228 3.768 2.308 6.136.067 2.367-.672 4.634-1.927 6.265-1.241 1.647-2.84 2.679-4.254 3.26-1.431.572-2.683.724-3.532.719-.854-.004-1.314-.126-1.31-.159-.016-.155 1.935.2 4.648-1.01 1.323-.611 2.803-1.631 3.932-3.19 1.142-1.538 1.808-3.649 1.748-5.865-.074-2.215-.87-4.28-2.104-5.745-1.222-1.487-2.761-2.414-4.121-2.943-2.78-1.043-4.708-.568-4.7-.723" fill="#1d2a30"/><path d="M488.044 356.207s.472.757 1.001 2.354c.531 1.595 1.102 4.014 1.578 7.164.492 3.148.908 7.026 1.32 11.527.429 4.5.794 9.639 1.517 15.27.185 1.407.41 2.843.699 4.294.297 1.443.644 2.933 1.284 4.295.681 1.298 1.8 2.5 2.918 3.602a22.828 22.828 0 003.848 2.97c2.81 1.728 6.104 2.917 9.604 3.268 3.482.358 7.215-.136 10.508-1.818 3.294-1.632 5.97-4.754 6.788-8.525.406-1.863.326-3.872-.398-5.668-.719-1.804-2.058-3.344-3.696-4.464-1.655-1.096-3.61-1.787-5.627-1.876-2.001-.073-4.07.448-5.695 1.677-.808.606-1.501 1.375-1.929 2.276a4.698 4.698 0 00-.375 2.912c.388 1.992 1.855 3.716 3.69 4.69 1.852 1.006 3.973 1.417 6.077 1.681 2.112.28 4.227.4 6.33.439 4.207.076 8.355-.264 12.417-.7 8.117-.908 15.949-2.211 23.516-2.294 7.529-.124 14.846.971 20.937 3.956 3.03 1.484 5.73 3.435 7.793 5.82 2.095 2.36 3.42 5.188 4.046 7.995 1.221 5.67-.09 11.06-2.312 15.004-2.256 3.984-5.284 6.652-7.907 8.44a29.52 29.52 0 01-6.535 3.333c-1.581.564-2.448.74-2.448.74s.204-.088.611-.225c.408-.13 1.007-.35 1.79-.645a30.908 30.908 0 006.429-3.426c2.574-1.804 5.536-4.472 7.721-8.406 2.15-3.888 3.393-9.187 2.17-14.707-.625-2.733-1.92-5.461-3.969-7.75-2.018-2.313-4.664-4.211-7.641-5.655-5.99-2.908-13.21-3.975-20.676-3.834-7.504.099-15.305 1.408-23.45 2.33-4.077.442-8.251.789-12.503.714-2.124-.038-4.267-.157-6.408-.441-2.13-.27-4.338-.683-6.322-1.76-1.976-1.055-3.594-2.917-4.037-5.17a5.407 5.407 0 01.43-3.338c.489-1.025 1.262-1.872 2.14-2.532 1.767-1.335 4-1.892 6.14-1.808 2.154.096 4.222.832 5.978 1.996 1.736 1.19 3.165 2.833 3.939 4.779.777 1.942.854 4.085.424 6.06-.87 3.981-3.711 7.261-7.147 8.95-3.433 1.743-7.281 2.235-10.861 1.856-3.598-.369-6.971-1.604-9.846-3.385a23.37 23.37 0 01-3.93-3.057c-1.158-1.164-2.25-2.315-3.012-3.768-.676-1.458-1.011-2.964-1.308-4.43a66.263 66.263 0 01-.68-4.33c-.698-5.66-1.028-10.798-1.419-15.3-.375-4.503-.75-8.376-1.2-11.523-.435-3.147-.96-5.563-1.445-7.161-.24-.798-.456-1.4-.63-1.791-.168-.393-.237-.605-.237-.605" fill="#1d2a30"/><path d="M564.92 544.063s-.01-.194-.017-.558l-.018-1.612-.034-6.252c-.02-5.476-.046-13.468-.08-23.624l-.155-83.845.304.304-107.539.043h-.009l.346-.347-.051 115.89-.295-.295 77.93.151 21.848.077c2.513.016 4.445.028 5.769.035 1.31.01 2.001.033 2.001.033s-.648.022-1.936.033l-5.713.034c-5.043.018-12.405.045-21.78.076l-78.119.154h-.297v-.297c-.016-33.472-.032-73.286-.05-115.891v-.348h.357c39.206.016 76.054.032 107.538.043h.304v.305c-.064 34.693-.117 63.692-.153 84.04-.035 10.127-.063 18.096-.08 23.555l-.036 6.193-.018 1.58c-.005.352-.017.523-.017.523" fill="#1d2a30"/><path d="M534.632 442.425a.553.553 0 11-1.106.001.553.553 0 011.106 0M537.67 442.425a.553.553 0 11-1.108.001.553.553 0 011.109 0M540.71 442.425a.554.554 0 11-1.107 0 .554.554 0 011.108 0M543.748 442.425a.553.553 0 11-1.106.001.553.553 0 011.106 0M546.787 442.425a.553.553 0 11-1.108.001.553.553 0 011.108 0M549.827 442.425a.554.554 0 11-1.108 0 .554.554 0 011.108 0M552.864 442.425a.553.553 0 11-1.106.001.553.553 0 011.106 0M551.463 444.468a.553.553 0 11-1.107 0 .553.553 0 011.107 0M548.355 444.468a.554.554 0 11-1.108 0 .554.554 0 011.108 0M545.245 444.468a.554.554 0 11-1.107 0 .554.554 0 011.107 0M542.136 444.468a.553.553 0 11-1.107 0 .553.553 0 011.107 0M539.028 444.468a.555.555 0 01-1.107 0 .553.553 0 111.107 0M535.919 444.468a.554.554 0 11-1.108 0 .554.554 0 011.108 0M534.632 446.779a.553.553 0 11-1.106 0 .553.553 0 011.106 0M537.67 446.779a.553.553 0 11-1.108.001.553.553 0 011.109-.001M540.71 446.779a.554.554 0 11-1.107-.001.554.554 0 011.108 0M543.748 446.779a.553.553 0 11-1.106 0 .553.553 0 011.106 0M546.787 446.779a.553.553 0 11-1.108.001.553.553 0 011.108-.001M549.827 446.779a.554.554 0 11-1.108-.002.554.554 0 011.108.002M552.864 446.779a.553.553 0 11-1.106 0 .553.553 0 011.106 0M551.463 448.82a.553.553 0 11-1.105.002.553.553 0 011.105-.002M548.355 448.82a.553.553 0 11-1.106.001.553.553 0 011.106-.001M545.245 448.82a.553.553 0 11-1.105.001.553.553 0 011.105-.001M542.136 448.82a.553.553 0 11-1.105.002.553.553 0 011.105-.002M539.028 448.82a.554.554 0 11-1.107 0 .554.554 0 011.107 0M535.919 448.82a.553.553 0 11-1.106.001.553.553 0 011.106-.001M534.632 451.132a.554.554 0 11-1.107 0 .554.554 0 011.107 0M537.67 451.132a.553.553 0 11-1.105.001.553.553 0 011.106-.001M540.71 451.132a.555.555 0 11-1.108-.002.555.555 0 011.109.002M543.748 451.132a.554.554 0 11-1.107 0 .554.554 0 011.107 0M546.787 451.132a.553.553 0 11-1.106.001.553.553 0 011.106-.001M549.827 451.132a.555.555 0 01-1.108 0 .553.553 0 111.108 0M552.864 451.132a.554.554 0 11-1.107 0 .554.554 0 011.107 0M551.463 453.173a.553.553 0 11-1.107 0 .553.553 0 011.107 0M548.355 453.173a.554.554 0 11-1.108 0 .554.554 0 011.108 0M545.245 453.173a.554.554 0 11-1.107 0 .554.554 0 011.107 0M542.136 453.173a.553.553 0 11-1.107 0 .553.553 0 011.107 0M539.028 453.173a.553.553 0 11-1.108.002.553.553 0 011.108-.002M535.919 453.173a.554.554 0 11-1.108 0 .554.554 0 011.108 0" fill="#1d2a30"/><path d="M492.583 317.839s.776-.051 2.166.377c1.375.419 3.367 1.404 5.254 3.436 1.905 2.013 3.49 5.081 4.646 8.799a86.233 86.233 0 012.927 12.885c1.484 9.7 1.699 21.41.85 34.335-.323 3.212-1.014 6.636-2.987 9.524-.97 1.429-2.222 2.721-3.758 3.637-1.518.919-3.366 1.439-5.201 1.236-1.816-.185-3.619-.945-4.94-2.299a6.1 6.1 0 01-1.46-2.42c-.293-.929-.287-1.938-.039-2.87.502-1.848 1.84-3.512 3.722-4.192a4.404 4.404 0 012.948.008c.942.346 1.748.993 2.349 1.773 1.225 1.572 1.581 3.655 1.295 5.528-.266 1.899-1.026 3.637-1.92 5.245a20.632 20.632 0 01-7.595 7.655c-6.224 3.648-13.999 3.436-19.741.276-2.896-1.561-5.298-3.77-7.2-6.205-1.911-2.439-3.334-5.12-4.371-7.824-2.067-5.435-2.664-10.863-2.92-15.739-.267-4.896.008-9.33-.477-13.165-.243-1.912-.638-3.674-1.24-5.207a14.717 14.717 0 00-2.23-3.892c-1.694-2.13-3.608-3.207-4.946-3.66-1.356-.461-2.13-.46-2.122-.51 0 0 .775-.047 2.166.377 1.374.417 3.352 1.477 5.113 3.622a14.895 14.895 0 012.328 3.942c.63 1.557 1.052 3.345 1.316 5.278.528 3.884.285 8.326.583 13.188.284 4.85.909 10.222 2.966 15.558 1.032 2.653 2.438 5.277 4.315 7.656 1.868 2.374 4.213 4.513 7.02 6.018 5.564 3.044 13.101 3.23 19.099-.3a19.97 19.97 0 007.333-7.408c.868-1.553 1.592-3.233 1.836-4.998.264-1.752-.067-3.607-1.159-5.012-.534-.692-1.237-1.25-2.038-1.546a3.7 3.7 0 00-2.478-.004c-1.613.571-2.849 2.078-3.284 3.715-.485 1.655.131 3.432 1.324 4.636 1.183 1.217 2.844 1.928 4.515 2.099 1.681.188 3.36-.282 4.79-1.136 1.435-.854 2.625-2.071 3.551-3.434 1.886-2.741 2.574-6.046 2.899-9.213.88-12.85.719-24.55-.697-34.199a87.576 87.576 0 00-2.812-12.842c-1.112-3.7-2.638-6.73-4.475-8.732-1.821-2.024-3.756-3.031-5.099-3.486-1.356-.466-2.132-.461-2.122-.51" fill="#e3e3e2"/><path d="M482.119 345.568h-44.295v-8.439h44.295v8.439" fill="#e3e3e2"/><path d="M162.396 548.74H104.62V424.376h57.776V548.74" fill="#1d2a30"/><path d="M157.427 535.643s-.015-.19-.02-.54l-.022-1.544c-.009-1.378-.024-3.374-.04-5.951l-.092-22.217-.157-76.71.33.331c-15 .005-31.347.01-48.332.017h-.007l.347-.348-.095 106.96-.252-.25c14.88.055 26.933.102 35.292.134l9.645.063 2.524.028c.572.008.88.027.88.027s-.273.016-.828.025l-2.478.028c-2.219.013-5.447.034-9.591.061-8.395.032-20.499.08-35.444.136h-.251v-.252l-.096-106.96v-.346h.354l48.331.017h.33v.33l-.157 76.931-.09 22.142-.042 5.884-.02 1.505c-.008.336-.02.499-.02.499" fill="#365462"/><path d="M154.441 437.735c-.018-.02-.037-.467-.065-1.298l-.087-3.604.152.152c-7.476.116-23.5.196-42.03.196h-.002c.155-.154-.347.347.347-.348v2.492l-.003 2.41-.345-.346c11.757.007 22.204.079 29.764.148l8.944.103c1.008.018 1.818.034 2.444.048.564.014.866.03.881.046.016.016-.255.031-.79.047l-2.366.047c-2.161.026-5.164.06-8.864.102-7.543.071-18.113.142-30.013.15h-.345v-.346c0-.782 0-1.589-.002-2.409v-2.492l.348-.348c18.53 0 34.556.08 42.032.196l.156.003-.003.15c-.038 1.557-.066 2.782-.087 3.693-.028.82-.047 1.227-.067 1.208M116.64 441.255c0 .192-.868.346-1.938.346-1.07 0-1.938-.154-1.938-.346 0-.191.867-.347 1.938-.347 1.07 0 1.938.156 1.938.347M153.319 447.672c0 .192-8.947.348-19.98.348-11.038 0-19.982-.156-19.982-.348 0-.192 8.944-.348 19.982-.348 11.033 0 19.98.156 19.98.348M153.49 455.423c0 .192-8.791.348-19.635.348-10.847 0-19.637-.156-19.637-.348 0-.191 8.79-.346 19.637-.346 10.844 0 19.636.155 19.636.346" fill="#365462"/><path d="M136.517 473.534a3.18 3.18 0 11-6.358 0 3.18 3.18 0 016.358 0" fill="#3e64ff"/><path d="M124.377 473.388c0 .192-1.903.348-4.25.348-2.348 0-4.251-.156-4.251-.348 0-.19 1.903-.348 4.25-.348 2.348 0 4.25.157 4.25.348M150.187 472.57c0 .19-1.811.346-4.046.346-2.234 0-4.045-.156-4.045-.347 0-.193 1.81-.347 4.045-.347s4.046.154 4.046.347" fill="#365462"/><path d="M106.604 486.787s-.762-.036-2.163-.398c-1.392-.369-3.435-1.1-5.72-2.648-2.285-1.524-4.788-3.89-6.896-7.19-2.121-3.29-3.827-7.462-5.03-12.216-1.213-4.747-2.008-10.146-1.594-15.934.389-5.75 2.161-11.964 6.065-17.245 1.924-2.636 4.358-5.023 7.244-6.881a24.883 24.883 0 014.65-2.31c1.654-.589 3.384-.99 5.145-1.228 3.525-.489 7.128-.422 10.735-.633 3.587-.203 7.271-.779 10.552-2.432 3.275-1.604 5.853-4.547 6.55-8.05.794-3.453-.102-7.18-2.374-9.753-2.219-2.58-5.583-4.177-8.85-3.98-1.625.116-3.228.656-4.45 1.651-1.229.977-1.97 2.501-1.863 4.023.218 3.07 3.029 5.626 5.946 5.745 2.974.203 5.757-1.383 7.624-3.425 1.88-2.107 2.957-4.708 3.688-7.239.721-2.548 1.162-5.073 1.538-7.477 1.355-9.672.898-17.63.706-23.076-.138-2.703-.244-4.815-.318-6.288a973.35 973.35 0 01-.077-1.636c-.013-.37-.015-.559-.003-.56.012 0 .037.188.073.554l.146 1.632c.116 1.435.285 3.552.449 6.284.273 5.448.81 13.415-.49 23.159-.365 2.425-.79 4.963-1.509 7.556-.73 2.573-1.814 5.259-3.776 7.476-1.951 2.15-4.862 3.85-8.094 3.65-3.21-.149-6.268-2.86-6.542-6.32-.128-1.731.725-3.478 2.086-4.562 1.356-1.105 3.078-1.677 4.818-1.808 3.53-.212 7.053 1.472 9.414 4.199 2.414 2.722 3.374 6.7 2.533 10.344-.399 1.821-1.215 3.586-2.448 5.036-1.2 1.473-2.771 2.622-4.463 3.484-3.417 1.721-7.194 2.297-10.827 2.502-3.643.21-7.227.142-10.68.619-1.727.23-3.408.619-5.011 1.185a24.333 24.333 0 00-4.521 2.236c-2.812 1.803-5.197 4.127-7.086 6.702-3.834 5.158-5.597 11.237-6.007 16.91-.432 5.703.323 11.052 1.496 15.768 1.165 4.728 2.82 8.863 4.882 12.13 2.05 3.277 4.487 5.634 6.72 7.175 2.234 1.562 4.238 2.326 5.606 2.737.688.201 1.22.332 1.583.4.36.074.545.12.543.132M223.724 325.401H86.918V231.46h136.806V325.4" fill="#1d2a30"/><path d="M163.37 348.03h-18.626v-35.438h18.627v35.439" fill="#1d2a30"/><path d="M100.535 346.667v12.754h70.581v189.94h6.495v-189.94l294.796 1.455v188.485h6.368V360.523l45.494.364v-15.319l-423.734 1.099" fill="#1d2a30"/><path d="M145.703 356.941l27.832 20.042-2.419 2.322-28.061-21.144 2.648-1.22M505.005 358.81l-32.292 22.998 2.419 2.323 32.523-24.1-2.65-1.22M276.133 341.973H203.18v5.368h72.953v-5.368" fill="#1d2a30"/><path d="M290.254 181.323c-.07.003-.055-.638-.356-1.718a7.144 7.144 0 00-2.625-3.787c-1.544-1.187-4.078-1.845-6.524-.93-2.426.84-4.518 3.422-4.49 6.434-.028 3.013 2.064 5.595 4.49 6.436 2.446.916 4.98.256 6.524-.93a7.139 7.139 0 002.625-3.787c.301-1.079.285-1.722.356-1.718.024 0 .04.158.047.462.013.302-.019.754-.139 1.322-.228 1.118-.92 2.791-2.59 4.111-1.614 1.321-4.351 2.108-7.04 1.141a7.362 7.362 0 01-3.498-2.597c-.928-1.224-1.456-2.81-1.47-4.44.014-1.63.542-3.213 1.47-4.439a7.374 7.374 0 013.498-2.596c2.689-.966 5.426-.18 7.038 1.142 1.67 1.32 2.364 2.992 2.592 4.11.12.567.152 1.02.139 1.323-.008.304-.023.461-.047.461M310.223 184.132c-.07.003-.054-.639-.355-1.719a7.152 7.152 0 00-2.625-3.785c-1.544-1.188-4.079-1.847-6.524-.93-2.426.84-4.518 3.42-4.49 6.432-.028 3.014 2.063 5.596 4.49 6.436 2.446.916 4.98.256 6.524-.93a7.156 7.156 0 002.625-3.786c.301-1.08.285-1.722.355-1.718.025 0 .04.157.046.461.014.303-.017.756-.138 1.323-.228 1.118-.92 2.79-2.59 4.11-1.614 1.323-4.349 2.108-7.04 1.142a7.374 7.374 0 01-3.498-2.596c-.928-1.226-1.456-2.81-1.468-4.442.012-1.629.54-3.213 1.468-4.438a7.38 7.38 0 013.497-2.596c2.69-.967 5.427-.182 7.039 1.141 1.672 1.32 2.364 2.992 2.592 4.11.121.567.152 1.02.138 1.323-.007.304-.02.462-.046.462M275.535 180.529c.001.192-1.93.353-4.313.361-2.384.008-4.316-.141-4.316-.333 0-.192 1.93-.354 4.313-.362 2.383-.007 4.316.142 4.316.334M295.189 180.348c-.29.076-.983-.583-2.285-.81-1.297-.24-2.455.086-2.633-.074-.086-.074.107-.285.634-.465.516-.182 1.396-.302 2.32-.137.921.166 1.558.56 1.834.882.29.328.268.57.13.604" fill="#33535f"/></svg>