<?xml version="1.0" encoding="UTF-8" standalone="no"?>
<svg
   xmlns:dc="http://purl.org/dc/elements/1.1/"
   xmlns:cc="http://creativecommons.org/ns#"
   xmlns:rdf="http://www.w3.org/1999/02/22-rdf-syntax-ns#"
   xmlns:svg="http://www.w3.org/2000/svg"
   xmlns="http://www.w3.org/2000/svg"
   xmlns:sodipodi="http://sodipodi.sourceforge.net/DTD/sodipodi-0.dtd"
   xmlns:inkscape="http://www.inkscape.org/namespaces/inkscape"
   inkscape:version="1.0 (4035a4f, 2020-05-01)"
   sodipodi:docname="design.svg"
   xml:space="preserve"
   style="enable-background:new 0 0 512 512;"
   viewBox="0 0 512 512"
   y="0px"
   x="0px"
   id="Capa_1"
   version="1.1"><metadata
   id="metadata115"><rdf:RDF><cc:Work
       rdf:about=""><dc:format>image/svg+xml</dc:format><dc:type
         rdf:resource="http://purl.org/dc/dcmitype/StillImage" /></cc:Work></rdf:RDF></metadata><defs
   id="defs113" /><sodipodi:namedview
   inkscape:current-layer="Capa_1"
   inkscape:window-maximized="1"
   inkscape:window-y="34"
   inkscape:window-x="0"
   inkscape:cy="208.58987"
   inkscape:cx="226.02723"
   inkscape:zoom="0.83984375"
   showgrid="false"
   id="namedview111"
   inkscape:window-height="1009"
   inkscape:window-width="1920"
   inkscape:pageshadow="2"
   inkscape:pageopacity="0"
   guidetolerance="10"
   gridtolerance="10"
   objecttolerance="10"
   borderopacity="1"
   bordercolor="#666666"
   pagecolor="#ffffff" />
<g
   style="fill:#3e64ff;fill-opacity:1"
   id="g6">
	<g
   style="fill:#3e64ff;fill-opacity:1"
   id="g4">
		<path
   style="fill:#3e64ff;fill-opacity:1"
   id="path2"
   d="M360,104h-80c-4.418,0-8,3.582-8,8v80c0,4.418,3.582,8,8,8h80c4.418,0,8-3.582,8-8v-80C368,107.582,364.418,104,360,104z     M288,184v-52.693L340.693,184H288z M352,172.68L299.32,120H352V172.68z" />
	</g>
</g>
<g
   style="fill:#3e64ff;fill-opacity:1"
   id="g12">
	<g
   style="fill:#3e64ff;fill-opacity:1"
   id="g10">
		<path
   style="fill:#3e64ff;fill-opacity:1"
   id="path8"
   d="M360,216h-80c-4.418,0-8,3.582-8,8v80c0,4.418,3.582,8,8,8h80c4.418,0,8-3.582,8-8v-80C368,219.582,364.418,216,360,216z     M288,296v-52.685L340.685,296H288z M352,284.688L299.312,232H352V284.688z" />
	</g>
</g>
<g
   style="fill:#3e64ff;fill-opacity:1"
   id="g18">
	<g
   style="fill:#3e64ff;fill-opacity:1"
   id="g16">
		<rect
   style="fill:#3e64ff;fill-opacity:1"
   id="rect14"
   height="16"
   width="64"
   y="328"
   x="272" />
	</g>
</g>
<g
   style="fill:#3e64ff;fill-opacity:1"
   id="g24">
	<g
   style="fill:#3e64ff;fill-opacity:1"
   id="g22">
		<rect
   style="fill:#3e64ff;fill-opacity:1"
   id="rect20"
   height="16"
   width="16"
   y="328"
   x="352" />
	</g>
</g>
<g
   style="fill:#3e64ff;fill-opacity:1"
   id="g30">
	<g
   style="fill:#3e64ff;fill-opacity:1"
   id="g28">
		<rect
   style="fill:#3e64ff;fill-opacity:1"
   id="rect26"
   height="16"
   width="96"
   y="360"
   x="272" />
	</g>
</g>
<g
   style="fill:#3e64ff;fill-opacity:1"
   id="g36">
	<g
   style="fill:#3e64ff;fill-opacity:1"
   id="g34">
		<rect
   style="fill:#3e64ff;fill-opacity:1"
   id="rect32"
   height="16"
   width="96"
   y="392"
   x="272" />
	</g>
</g>
<g
   style="fill:#3e64ff;fill-opacity:1"
   id="g42">
	<g
   style="fill:#3e64ff;fill-opacity:1"
   id="g40">
		<rect
   style="fill:#3e64ff;fill-opacity:1"
   id="rect38"
   height="16"
   width="80"
   y="184"
   x="136" />
	</g>
</g>
<g
   style="fill:#3e64ff;fill-opacity:1"
   id="g48">
	<g
   style="fill:#3e64ff;fill-opacity:1"
   id="g46">
		<rect
   style="fill:#3e64ff;fill-opacity:1"
   id="rect44"
   height="16"
   width="80"
   y="248"
   x="136" />
	</g>
</g>
<g
   style="fill:#3e64ff;fill-opacity:1"
   id="g54">
	<g
   style="fill:#3e64ff;fill-opacity:1"
   id="g52">
		<rect
   style="fill:#3e64ff;fill-opacity:1"
   id="rect50"
   height="16"
   width="80"
   y="312"
   x="136" />
	</g>
</g>
<g
   style="fill:#3e64ff;fill-opacity:1"
   id="g60">
	<g
   style="fill:#3e64ff;fill-opacity:1"
   id="g58">
		<path
   style="fill:#3e64ff;fill-opacity:1"
   id="path56"
   d="M464,56c-4.418,0-8,3.582-8,8v32h-48V16c0-8.837-7.163-16-16-16H120c-8.837,0-16,7.163-16,16v80H56V64    c0-4.418-3.582-8-8-8c-0.48,0-48,0.728-48,64v312c0,30.504,30.4,44.632,46.4,47.84c0.526,0.111,1.062,0.165,1.6,0.16h56v16    c0,8.837,7.163,16,16,16h272c8.837,0,16-7.163,16-16v-16h56c0.538,0.005,1.074-0.049,1.6-0.16c16-3.208,46.4-17.336,46.4-47.84    V120C512,56.728,464.48,56,464,56z M16,120c0-32.64,14.4-43.088,24-46.4v312.232c-8.773,2.722-16.927,7.139-24,13V120z M104,464    H48.88C44.104,462.856,16,455.128,16,432c0-24.96,32.248-31.88,33.6-32.16c3.725-0.76,6.401-4.038,6.4-7.84V112h48V464z M120,88    h92.12L120,145.543V88z M232,94.447V152h-92.136L232,94.447z M120,168h112v48H120V168z M120,232h112v48H120V232z M120,296h112v48    H120V296z M120,360h94.186L120,424.724V360z M232,367.172V432h-94.337L232,367.172z M392,496H120v-48h272V496z M392,432H248V88    h144V432z M392,72H120V16h272V72z M463.136,464H408V112h48v280c-0.001,3.802,2.675,7.08,6.4,7.84    c0.368,0.072,33.6,7.008,33.6,32.16C496,455.256,468.072,462.84,463.136,464z M496,398.832c-7.073-5.861-15.227-10.278-24-13V73.6    c9.496,3.32,24,13.776,24,46.4V398.832z" />
	</g>
</g>
<g
   style="fill:#3e64ff;fill-opacity:1"
   id="g66">
	<g
   style="fill:#3e64ff;fill-opacity:1"
   id="g64">
		<rect
   style="fill:#3e64ff;fill-opacity:1"
   id="rect62"
   height="16"
   width="64"
   y="40"
   x="200" />
	</g>
</g>
<g
   style="fill:#3e64ff;fill-opacity:1"
   id="g72">
	<g
   style="fill:#3e64ff;fill-opacity:1"
   id="g70">
		<rect
   style="fill:#3e64ff;fill-opacity:1"
   id="rect68"
   height="16"
   width="16"
   y="40"
   x="280" />
	</g>
</g>
<g
   style="fill:#3e64ff;fill-opacity:1"
   id="g78">
	<g
   style="fill:#3e64ff;fill-opacity:1"
   id="g76">
		<rect
   style="fill:#3e64ff;fill-opacity:1"
   id="rect74"
   height="16"
   width="16"
   y="40"
   x="312" />
	</g>
</g>
<g
   id="g80">
</g>
<g
   id="g82">
</g>
<g
   id="g84">
</g>
<g
   id="g86">
</g>
<g
   id="g88">
</g>
<g
   id="g90">
</g>
<g
   id="g92">
</g>
<g
   id="g94">
</g>
<g
   id="g96">
</g>
<g
   id="g98">
</g>
<g
   id="g100">
</g>
<g
   id="g102">
</g>
<g
   id="g104">
</g>
<g
   id="g106">
</g>
<g
   id="g108">
</g>
</svg>
