<?xml version="1.0" encoding="UTF-8" standalone="no"?>
<svg
   xmlns:dc="http://purl.org/dc/elements/1.1/"
   xmlns:cc="http://creativecommons.org/ns#"
   xmlns:rdf="http://www.w3.org/1999/02/22-rdf-syntax-ns#"
   xmlns:svg="http://www.w3.org/2000/svg"
   xmlns="http://www.w3.org/2000/svg"
   xmlns:sodipodi="http://sodipodi.sourceforge.net/DTD/sodipodi-0.dtd"
   xmlns:inkscape="http://www.inkscape.org/namespaces/inkscape"
   inkscape:version="1.0 (4035a4f, 2020-05-01)"
   sodipodi:docname="research.svg"
   id="svg19"
   version="1.1"
   width="512"
   viewBox="0 0 64 64"
   height="512">
  <metadata
     id="metadata25">
    <rdf:RDF>
      <cc:Work
         rdf:about="">
        <dc:format>image/svg+xml</dc:format>
        <dc:type
           rdf:resource="http://purl.org/dc/dcmitype/StillImage" />
      </cc:Work>
    </rdf:RDF>
  </metadata>
  <defs
     id="defs23" />
  <sodipodi:namedview
     inkscape:current-layer="svg19"
     inkscape:window-maximized="1"
     inkscape:window-y="34"
     inkscape:window-x="0"
     inkscape:cy="211.37985"
     inkscape:cx="75.368413"
     inkscape:zoom="0.83984375"
     showgrid="false"
     id="namedview21"
     inkscape:window-height="1009"
     inkscape:window-width="1920"
     inkscape:pageshadow="2"
     inkscape:pageopacity="0"
     guidetolerance="10"
     gridtolerance="10"
     objecttolerance="10"
     borderopacity="1"
     bordercolor="#666666"
     pagecolor="#ffffff" />
  <g
     style="fill:#3e64ff;fill-opacity:1"
     id="Research">
    <path
       style="fill:#3e64ff;fill-opacity:1"
       id="path2"
       d="m61.76 54.35a1.011 1.011 0 0 0 -.76-.35h-1v-33a3.009 3.009 0 0 0 -3-3h-1v-13a3.009 3.009 0 0 0 -3-3h-20a3.007 3.007 0 0 0 -2.78 1.87 14.852 14.852 0 0 0 -7.22-1.87 15.018 15.018 0 0 0 -15 15c0 .34.03.67.05 1h-1.05a3.009 3.009 0 0 0 -3 3v33h-1a1 1 0 0 0 -.99 1.16l.73 4.33a2.978 2.978 0 0 0 2.95 2.51h52.62a2.978 2.978 0 0 0 2.95-2.51l.73-4.33a1 1 0 0 0 -.23-.81zm-25.76-50.35h17a1 1 0 0 1 1 1v25h-18zm-4 1a1 1 0 0 1 1-1h1v26h-1a3 3 0 0 0 -1 .18zm1 27h19.17a3.026 3.026 0 0 0 0 2h-19.17a1 1 0 0 1 0-2zm-10-28a12.929 12.929 0 0 1 7 2.06v21.88a12.995 12.995 0 1 1 -7-23.94zm-17 17a1 1 0 0 1 1-1h1.3a15.025 15.025 0 0 0 13.7 11.95v2.05h-2a1 1 0 0 0 -1 1v13a4 4 0 0 0 8 0v-13a1 1 0 0 0 -1-1h-2v-2.04a14.811 14.811 0 0 0 6-1.71v2.75a3.009 3.009 0 0 0 3 3h22a1 1 0 0 0 0-2 1 1 0 0 1 0-2 1 1 0 0 0 1-1v-11h1a1 1 0 0 1 1 1v33h-22a1 1 0 0 0 -1 1v1h-6v-1a1 1 0 0 0 -1-1h-22zm19 15v12a2 2 0 0 1 -4 0v-12zm34.29 23.16a.989.989 0 0 1 -.98.84h-52.62a.989.989 0 0 1 -.98-.84l-.53-3.16h22.82v1a1 1 0 0 0 1 1h8a1 1 0 0 0 1-1v-1h22.82z" />
    <path
       style="fill:#3e64ff;fill-opacity:1"
       id="path4"
       d="m31 52h24a1 1 0 0 0 1-1v-12a1 1 0 0 0 -1-1h-24a1 1 0 0 0 -1 1v12a1 1 0 0 0 1 1zm1-12h22v10h-22z" />
    <path
       style="fill:#3e64ff;fill-opacity:1"
       id="path6"
       d="m34 42h2v2h-2z" />
    <path
       style="fill:#3e64ff;fill-opacity:1"
       id="path8"
       d="m38 42h14v2h-14z" />
    <path
       style="fill:#3e64ff;fill-opacity:1"
       id="path10"
       d="m34 46h18v2h-18z" />
    <path
       style="fill:#3e64ff;fill-opacity:1"
       id="path12"
       d="m39 7h12v2h-12z" />
    <path
       style="fill:#3e64ff;fill-opacity:1"
       id="path14"
       d="m39 11h12v2h-12z" />
    <path
       style="fill:#3e64ff;fill-opacity:1"
       id="path16"
       d="m39 15h12v2h-12z" />
  </g>
</svg>
