<?xml version="1.0" encoding="UTF-8" standalone="no"?>
<svg
   xmlns:dc="http://purl.org/dc/elements/1.1/"
   xmlns:cc="http://creativecommons.org/ns#"
   xmlns:rdf="http://www.w3.org/1999/02/22-rdf-syntax-ns#"
   xmlns:svg="http://www.w3.org/2000/svg"
   xmlns="http://www.w3.org/2000/svg"
   xmlns:sodipodi="http://sodipodi.sourceforge.net/DTD/sodipodi-0.dtd"
   xmlns:inkscape="http://www.inkscape.org/namespaces/inkscape"
   inkscape:version="1.0 (4035a4f, 2020-05-01)"
   sodipodi:docname="cloud.svg"
   id="svg9"
   version="1.1"
   height="512"
   width="512"
   viewBox="0 0 64 64">
  <metadata
     id="metadata15">
    <rdf:RDF>
      <cc:Work
         rdf:about="">
        <dc:format>image/svg+xml</dc:format>
        <dc:type
           rdf:resource="http://purl.org/dc/dcmitype/StillImage" />
      </cc:Work>
    </rdf:RDF>
  </metadata>
  <defs
     id="defs13" />
  <sodipodi:namedview
     inkscape:current-layer="svg9"
     inkscape:window-maximized="1"
     inkscape:window-y="34"
     inkscape:window-x="0"
     inkscape:cy="192.89624"
     inkscape:cx="221.14477"
     inkscape:zoom="0.83984375"
     showgrid="false"
     id="namedview11"
     inkscape:window-height="1009"
     inkscape:window-width="1920"
     inkscape:pageshadow="2"
     inkscape:pageopacity="0"
     guidetolerance="10"
     gridtolerance="10"
     objecttolerance="10"
     borderopacity="1"
     bordercolor="#666666"
     pagecolor="#ffffff" />
  <g
     style="fill:#3e64ff;fill-opacity:1"
     id="cloud-gear-file-storage-process">
    <path
       style="fill:#3e64ff;fill-opacity:1"
       id="path2"
       d="M32,20a9,9,0,1,0,9,9A9.01,9.01,0,0,0,32,20Zm0,16a7,7,0,1,1,7-7A7.008,7.008,0,0,1,32,36Z" />
    <rect
       style="fill:#3e64ff;fill-opacity:1"
       id="rect4"
       height="2"
       width="4"
       y="57"
       x="7" />
    <path
       style="fill:#3e64ff;fill-opacity:1"
       id="path6"
       d="M60,46H52V35.95A11,11,0,0,0,51,14c-.15,0-.3,0-.46.01A9.986,9.986,0,0,0,35.39,8.73a13,13,0,0,0-24.36,5.45A11,11,0,0,0,12,35.95v8.64l-.29-.3A1.033,1.033,0,0,0,11,44H4a1,1,0,0,0-1,1V61a1,1,0,0,0,1,1H22a1,1,0,0,0,1-1V47a1,1,0,0,0-1-1H14V36h5.69a2.382,2.382,0,0,0,.55,2.46l2.3,2.29a2.381,2.381,0,0,0,3.36.01.361.361,0,0,1,.4-.09,12.835,12.835,0,0,0,1.48.62.341.341,0,0,1,.22.33,2.372,2.372,0,0,0,1,1.93V47a1,1,0,0,0-1,1V58a4,4,0,0,0,8,0V48a1,1,0,0,0-1-1V43.55a2.372,2.372,0,0,0,1-1.93.341.341,0,0,1,.22-.33,12.835,12.835,0,0,0,1.48-.62.375.375,0,0,1,.4.08,2.372,2.372,0,0,0,3.36,0l2.3-2.29A2.382,2.382,0,0,0,44.31,36H50v8.59l-.29-.3A1.033,1.033,0,0,0,49,44H42a1,1,0,0,0-1,1V61a1,1,0,0,0,1,1H60a1,1,0,0,0,1-1V47A1,1,0,0,0,60,46ZM21,60H5V52H21Zm0-12v2H5V46h5.59l1.7,1.71A1.033,1.033,0,0,0,13,48ZM13,28a1,1,0,0,0-1,1v4.94a9,9,0,0,1,.1-17.9A1.047,1.047,0,0,0,13,15a11,11,0,0,1,21.11-4.33,1.012,1.012,0,0,0,.7.59,1.022,1.022,0,0,0,.89-.23A7.92,7.92,0,0,1,41,9a8.041,8.041,0,0,1,7.81,6.29,1,1,0,0,0,1.1.78A8.514,8.514,0,0,1,51,16a9,9,0,0,1,1,17.94V29a1,1,0,0,0-1-1H47v-.62A2.386,2.386,0,0,0,44.62,25a.365.365,0,0,1-.34-.22,11.821,11.821,0,0,0-.61-1.48.361.361,0,0,1,.09-.4,2.39,2.39,0,0,0,0-3.36l-2.3-2.29a2.381,2.381,0,0,0-3.36-.01.364.364,0,0,1-.4.09,12.835,12.835,0,0,0-1.48-.62.341.341,0,0,1-.22-.33A2.386,2.386,0,0,0,33.62,14H30.38A2.386,2.386,0,0,0,28,16.38a.341.341,0,0,1-.22.33,12.835,12.835,0,0,0-1.48.62.375.375,0,0,1-.4-.08,2.372,2.372,0,0,0-3.36,0l-2.3,2.29a2.39,2.39,0,0,0,0,3.36.361.361,0,0,1,.09.4,11.821,11.821,0,0,0-.61,1.48.365.365,0,0,1-.34.22A2.386,2.386,0,0,0,17,27.38V28Zm1,6V30h3v.62A2.386,2.386,0,0,0,19.38,33a.365.365,0,0,1,.34.22c.09.26.21.52.32.78ZM34,58a2,2,0,0,1-4,0V49h4ZM31,47V44h2v3ZM42.39,32.57a9.142,9.142,0,0,1-.52,1.25,2.351,2.351,0,0,0,.47,2.69.368.368,0,0,1,0,.53l-2.3,2.3a.368.368,0,0,1-.53,0,2.351,2.351,0,0,0-2.69-.47,9.142,9.142,0,0,1-1.25.52A2.345,2.345,0,0,0,34,41.62a.38.38,0,0,1-.38.38H30.38a.38.38,0,0,1-.38-.38,2.345,2.345,0,0,0-1.57-2.23,9.142,9.142,0,0,1-1.25-.52,2.436,2.436,0,0,0-1.01-.23,2.362,2.362,0,0,0-1.68.7.368.368,0,0,1-.53,0l-2.3-2.3a.368.368,0,0,1,0-.53,2.339,2.339,0,0,0,.47-2.68,9.828,9.828,0,0,1-.52-1.26A2.345,2.345,0,0,0,19.38,31a.38.38,0,0,1-.38-.38V27.38a.38.38,0,0,1,.38-.38,2.345,2.345,0,0,0,2.23-1.57,9.142,9.142,0,0,1,.52-1.25,2.351,2.351,0,0,0-.47-2.69.368.368,0,0,1,0-.53l2.3-2.3a.368.368,0,0,1,.53,0,2.367,2.367,0,0,0,2.69.47,9.142,9.142,0,0,1,1.25-.52A2.345,2.345,0,0,0,30,16.38a.38.38,0,0,1,.38-.38h3.24a.38.38,0,0,1,.38.38,2.345,2.345,0,0,0,1.57,2.23,9.142,9.142,0,0,1,1.25.52,2.351,2.351,0,0,0,2.69-.47.368.368,0,0,1,.53,0l2.3,2.3a.368.368,0,0,1,0,.53,2.339,2.339,0,0,0-.47,2.68,9.828,9.828,0,0,1,.52,1.26A2.345,2.345,0,0,0,44.62,27a.38.38,0,0,1,.38.38v3.24a.38.38,0,0,1-.38.38A2.345,2.345,0,0,0,42.39,32.57ZM43.96,34c.11-.26.23-.52.32-.78a.365.365,0,0,1,.34-.22A2.386,2.386,0,0,0,47,30.62V30h3v4ZM59,60H43V52H59ZM49,57H45v2h4Zm10-7H43V46h5.59l1.7,1.71A1.033,1.033,0,0,0,51,48h8Z" />
  </g>
</svg>
