<?xml version="1.0" encoding="UTF-8" standalone="no"?>
<svg
   xmlns:dc="http://purl.org/dc/elements/1.1/"
   xmlns:cc="http://creativecommons.org/ns#"
   xmlns:rdf="http://www.w3.org/1999/02/22-rdf-syntax-ns#"
   xmlns:svg="http://www.w3.org/2000/svg"
   xmlns="http://www.w3.org/2000/svg"
   xmlns:sodipodi="http://sodipodi.sourceforge.net/DTD/sodipodi-0.dtd"
   xmlns:inkscape="http://www.inkscape.org/namespaces/inkscape"
   inkscape:version="1.0 (4035a4f, 2020-05-01)"
   sodipodi:docname="programming.svg"
   id="svg78"
   version="1.1"
   width="512"
   viewBox="0 0 64 64"
   height="512">
  <metadata
     id="metadata84">
    <rdf:RDF>
      <cc:Work
         rdf:about="">
        <dc:format>image/svg+xml</dc:format>
        <dc:type
           rdf:resource="http://purl.org/dc/dcmitype/StillImage" />
      </cc:Work>
    </rdf:RDF>
  </metadata>
  <defs
     id="defs82" />
  <sodipodi:namedview
     inkscape:current-layer="svg78"
     inkscape:window-maximized="1"
     inkscape:window-y="34"
     inkscape:window-x="0"
     inkscape:cy="178.94635"
     inkscape:cx="168.13519"
     inkscape:zoom="0.83984375"
     showgrid="false"
     id="namedview80"
     inkscape:window-height="1009"
     inkscape:window-width="1920"
     inkscape:pageshadow="2"
     inkscape:pageopacity="0"
     guidetolerance="10"
     gridtolerance="10"
     objecttolerance="10"
     borderopacity="1"
     bordercolor="#666666"
     pagecolor="#ffffff" />
  <path
     style="fill:#3e64ff;fill-opacity:1"
     id="path2"
     d="m18.445 14.832 3 2a1 1 0 1 0 1.11-1.664l-1.755-1.168 1.752-1.168a1 1 0 0 0 -1.11-1.664l-3 2a1 1 0 0 0 0 1.664z" />
  <path
     style="fill:#3e64ff;fill-opacity:1"
     id="path4"
     d="m29.168 16.555a1 1 0 0 0 1.387.277l3-2a1 1 0 0 0 0-1.664l-3-2a1 1 0 0 0 -1.11 1.664l1.755 1.168-1.752 1.168a1 1 0 0 0 -.28 1.387z" />
  <path
     style="fill:#3e64ff;fill-opacity:1"
     id="path6"
     d="m24.684 17.949a1 1 0 0 0 1.264-.633l2-6a1 1 0 1 0 -1.9-.632l-2 6a1 1 0 0 0 .636 1.265z" />
  <path
     style="fill:#3e64ff;fill-opacity:1"
     id="path8"
     d="m19 19h6v2h-6z" />
  <path
     style="fill:#3e64ff;fill-opacity:1"
     id="path10"
     d="m27 19h2v2h-2z" />
  <path
     style="fill:#3e64ff;fill-opacity:1"
     id="path12"
     d="m23 22h12v2h-12z" />
  <path
     style="fill:#3e64ff;fill-opacity:1"
     id="path14"
     d="m41 22h9v2h-9z" />
  <path
     style="fill:#3e64ff;fill-opacity:1"
     id="path16"
     d="m23 25h2v2h-2z" />
  <path
     style="fill:#3e64ff;fill-opacity:1"
     id="path18"
     d="m27 25h12v2h-12z" />
  <path
     style="fill:#3e64ff;fill-opacity:1"
     id="path20"
     d="m41 25h4v2h-4z" />
  <path
     style="fill:#3e64ff;fill-opacity:1"
     id="path22"
     d="m30 28h6v2h-6z" />
  <path
     style="fill:#3e64ff;fill-opacity:1"
     id="path24"
     d="m38 28h2v2h-2z" />
  <path
     style="fill:#3e64ff;fill-opacity:1"
     id="path26"
     d="m37 22h2v2h-2z" />
  <path
     style="fill:#3e64ff;fill-opacity:1"
     id="path28"
     d="m61 48h-17.184a2.966 2.966 0 0 0 .184-1 3 3 0 0 0 -3-3h-3.279l-1.334-4h14.613a5.006 5.006 0 0 0 5-5v-28a5.006 5.006 0 0 0 -5-5h-38a5.006 5.006 0 0 0 -5 5v21h-5a1 1 0 0 0 -1 1v32a1 1 0 0 0 1 1h24a1 1 0 0 0 1-1v-11h2v11a1 1 0 0 0 1 1h30a1 1 0 0 0 1-1v-12a1 1 0 0 0 -1-1zm-25.388-4h-7.612v-4h6.279zm15.388-6h-23v-4h26v1a3 3 0 0 1 -3 3zm-38-34h38a3 3 0 0 1 2.816 2h-43.632a3 3 0 0 1 2.816-2zm-3 4h44v24h-26v-3a1 1 0 0 0 -1-1h-11v-16a1 1 0 0 0 -2 0v16h-4zm16 52h-22v-30h22zm2-14h13a1 1 0 0 1 0 2h-13zm32 14h-28v-10h28z" />
  <path
     style="fill:#3e64ff;fill-opacity:1"
     id="path30"
     d="m36 51h2v2h-2z" />
  <path
     style="fill:#3e64ff;fill-opacity:1"
     id="path32"
     d="m39 51h2v2h-2z" />
  <path
     style="fill:#3e64ff;fill-opacity:1"
     id="path34"
     d="m42 51h2v2h-2z" />
  <path
     style="fill:#3e64ff;fill-opacity:1"
     id="path36"
     d="m45 51h2v2h-2z" />
  <path
     style="fill:#3e64ff;fill-opacity:1"
     id="path38"
     d="m48 51h2v2h-2z" />
  <path
     style="fill:#3e64ff;fill-opacity:1"
     id="path40"
     d="m51 51h2v2h-2z" />
  <path
     style="fill:#3e64ff;fill-opacity:1"
     id="path42"
     d="m54 51h2v2h-2z" />
  <path
     style="fill:#3e64ff;fill-opacity:1"
     id="path44"
     d="m36 54h2v2h-2z" />
  <path
     style="fill:#3e64ff;fill-opacity:1"
     id="path46"
     d="m39 54h2v2h-2z" />
  <path
     style="fill:#3e64ff;fill-opacity:1"
     id="path48"
     d="m42 54h2v2h-2z" />
  <path
     style="fill:#3e64ff;fill-opacity:1"
     id="path50"
     d="m45 54h2v2h-2z" />
  <path
     style="fill:#3e64ff;fill-opacity:1"
     id="path52"
     d="m48 54h2v2h-2z" />
  <path
     style="fill:#3e64ff;fill-opacity:1"
     id="path54"
     d="m51 54h2v2h-2z" />
  <path
     style="fill:#3e64ff;fill-opacity:1"
     id="path56"
     d="m54 54h2v2h-2z" />
  <path
     style="fill:#3e64ff;fill-opacity:1"
     id="path58"
     d="m36 57h2v2h-2z" />
  <path
     style="fill:#3e64ff;fill-opacity:1"
     id="path60"
     d="m39 57h14v2h-14z" />
  <path
     style="fill:#3e64ff;fill-opacity:1"
     id="path62"
     d="m54 57h2v2h-2z" />
  <path
     style="fill:#3e64ff;fill-opacity:1"
     id="path64"
     d="m57 51h2v2h-2z" />
  <path
     style="fill:#3e64ff;fill-opacity:1"
     id="path66"
     d="m57 54h2v2h-2z" />
  <path
     style="fill:#3e64ff;fill-opacity:1"
     id="path68"
     d="m57 57h2v2h-2z" />
  <path
     style="fill:#3e64ff;fill-opacity:1"
     id="path70"
     d="m33 51h2v2h-2z" />
  <path
     style="fill:#3e64ff;fill-opacity:1"
     id="path72"
     d="m33 54h2v2h-2z" />
  <path
     style="fill:#3e64ff;fill-opacity:1"
     id="path74"
     d="m33 57h2v2h-2z" />
  <path
     style="fill:#3e64ff;fill-opacity:1"
     id="path76"
     d="m17.5 36a2.5 2.5 0 0 0 0-5h-5a2.5 2.5 0 0 0 0 5h1.5v2.382l-3.447 1.718a1 1 0 0 0 0 1.79l3.447 1.728v2.382h-3a1 1 0 0 0 -1 1v4a1 1 0 0 0 1 1h3v2h-1.5a2.5 2.5 0 0 0 0 5h5a2.5 2.5 0 0 0 0-5h-1.5v-2h3a1 1 0 0 0 1-1v-4a1 1 0 0 0 -1-1h-3v-2.382l3.447-1.718a1 1 0 0 0 0-1.79l-3.447-1.728v-2.382zm.5 20.5a.5.5 0 0 1 -.5.5h-5a.5.5 0 0 1 0-1h5a.5.5 0 0 1 .5.5zm0-8.5v2h-6v-2zm-3-6.118-1.764-.882 1.764-.882 1.764.882zm-3-8.382a.5.5 0 0 1 .5-.5h5a.5.5 0 0 1 0 1h-5a.5.5 0 0 1 -.5-.5z" />
</svg>
